0
SECTION
2
HEADER
9
$ACADVER
1
AC1006
0
ENDSEC
0
SECTION
2
TABLES
0
TABLE
2
LAYER
70
1
0
LAYER
70
0
62
1
6
CONTINUOUS
2
L0D0_0
0
ENDTAB
0
ENDSEC
0
SECTION
2
BLOCKS
0
ENDSEC
0
SECTION
2
ENTITIES
0
TEXT
8
L0D0_0
10
-0.676
20
-3.05
40
4.834
1

50
0
72
0
11
-0.676
21
-3.05
73
3
0
TEXT
8
L0D0_0
10
-0.676
20
-10.3
40
4.834
1

50
0
72
0
11
-0.676
21
-10.3
73
3
0
POLYLINE
8
L0D0_0
70
1
40
0
41
0
66
1
0
VERTEX
8
L0D0_0
10
6.254
20
3.785
0
VERTEX
8
L0D0_0
10
-0.203
20
5.539
0
VERTEX
8
L0D0_0
10
5.538
20
11.142
0
VERTEX
8
L0D0_0
10
11.994
20
9.387
0
SEQEND
0
POLYLINE
8
L0D0_0
70
0
40
0
41
0
66
1
0
VERTEX
8
L0D0_0
10
-0.676
20
5.464
0
VERTEX
8
L0D0_0
10
5.391
20
11.386
0
VERTEX
8
L0D0_0
10
12.467
20
9.463
0
VERTEX
8
L0D0_0
10
6.4
20
3.541
0
VERTEX
8
L0D0_0
10
6.4
20
-2.03
0
VERTEX
8
L0D0_0
10
-0.676
20
-0.108
0
VERTEX
8
L0D0_0
10
-0.676
20
5.464
0
VERTEX
8
L0D0_0
10
6.4
20
3.541
0
SEQEND
0
POLYLINE
8
L0D0_0
70
0
40
0
41
0
66
1
0
VERTEX
8
L0D0_0
10
12.467
20
9.463
0
VERTEX
8
L0D0_0
10
12.467
20
3.891
0
VERTEX
8
L0D0_0
10
6.4
20
-2.03
0
SEQEND
0
POLYLINE
8
L0D0_0
70
0
40
0
41
0
66
1
0
VERTEX
8
L0D0_0
10
6.018
20
9.999
0
VERTEX
8
L0D0_0
10
10.44
20
8.797
0
VERTEX
8
L0D0_0
10
5.773
20
4.242
0
VERTEX
8
L0D0_0
10
1.351
20
5.444
0
VERTEX
8
L0D0_0
10
6.018
20
9.999
0
VERTEX
8
L0D0_0
10
6.018
20
4.77
0
VERTEX
8
L0D0_0
10
6.25
20
4.707
0
SEQEND
0
POLYLINE
8
L0D0_0
70
0
40
0
41
0
66
1
0
VERTEX
8
L0D0_0
10
11.719
20
9.119
0
VERTEX
8
L0D0_0
10
5.538
20
10.799
0
VERTEX
8
L0D0_0
10
0.072
20
5.465
0
SEQEND
0
POLYLINE
8
L0D0_0
70
0
40
0
41
0
66
1
0
VERTEX
8
L0D0_0
10
5.538
20
10.799
0
VERTEX
8
L0D0_0
10
5.538
20
11.142
0
SEQEND
0
POLYLINE
8
L0D0_0
70
0
40
0
41
0
66
1
0
VERTEX
8
L0D0_0
10
6.018
20
4.77
0
VERTEX
8
L0D0_0
10
5.541
20
4.305
0
SEQEND
0
ENDSEC
0
EOF
