0
SECTION
2
HEADER
9
$ACADVER
1
AC1006
0
ENDSEC
0
SECTION
2
TABLES
0
TABLE
2
LAYER
70
1
0
LAYER
70
0
62
1
6
CONTINUOUS
2
L0D0_0
0
ENDTAB
0
ENDSEC
0
SECTION
2
BLOCKS
0
ENDSEC
0
SECTION
2
ENTITIES
0
TEXT
8
L0D0_0
10
-19
20
-9.862
40
4.834
1

50
0
72
0
11
-19
21
-9.862
73
3
0
TEXT
8
L0D0_0
10
-19
20
-17.113
40
4.834
1

50
0
72
0
11
-19
21
-17.113
73
3
0
POLYLINE
8
L0D0_0
70
1
40
0
41
0
66
1
0
VERTEX
8
L0D0_0
10
-0.283
20
-1.469
0
VERTEX
8
L0D0_0
10
-1.08
20
-1.452
0
VERTEX
8
L0D0_0
10
-1.874
20
-1.416
0
VERTEX
8
L0D0_0
10
-2.663
20
-1.362
0
VERTEX
8
L0D0_0
10
-2.709
20
-1.358
0
VERTEX
8
L0D0_0
10
3.407
20
4.611
0
VERTEX
8
L0D0_0
10
5.618
20
3.686
0
VERTEX
8
L0D0_0
10
6.974
20
2.396
0
VERTEX
8
L0D0_0
10
7.269
20
0.937
0
VERTEX
8
L0D0_0
10
6.456
20
-0.469
0
VERTEX
8
L0D0_0
10
5.674
20
-0.965
0
VERTEX
8
L0D0_0
10
5.211
20
-1.048
0
VERTEX
8
L0D0_0
10
4.447
20
-1.165
0
VERTEX
8
L0D0_0
10
3.673
20
-1.263
0
VERTEX
8
L0D0_0
10
2.891
20
-1.342
0
VERTEX
8
L0D0_0
10
2.103
20
-1.402
0
VERTEX
8
L0D0_0
10
1.31
20
-1.444
0
VERTEX
8
L0D0_0
10
0.514
20
-1.466
0
SEQEND
0
POLYLINE
8
L0D0_0
70
1
40
0
41
0
66
1
0
VERTEX
8
L0D0_0
10
0.022
20
-2.5
0
VERTEX
8
L0D0_0
10
-0.818
20
-2.491
0
VERTEX
8
L0D0_0
10
-1.657
20
-2.463
0
VERTEX
8
L0D0_0
10
-2.493
20
-2.415
0
VERTEX
8
L0D0_0
10
-3.323
20
-2.349
0
VERTEX
8
L0D0_0
10
-4.148
20
-2.264
0
VERTEX
8
L0D0_0
10
-4.964
20
-2.16
0
VERTEX
8
L0D0_0
10
-5.77
20
-2.038
0
VERTEX
8
L0D0_0
10
-6.565
20
-1.897
0
VERTEX
8
L0D0_0
10
-7.347
20
-1.739
0
VERTEX
8
L0D0_0
10
-8.115
20
-1.562
0
VERTEX
8
L0D0_0
10
-8.867
20
-1.369
0
VERTEX
8
L0D0_0
10
-9.602
20
-1.158
0
VERTEX
8
L0D0_0
10
-10.318
20
-0.931
0
VERTEX
8
L0D0_0
10
-11.013
20
-0.688
0
VERTEX
8
L0D0_0
10
-11.687
20
-0.429
0
VERTEX
8
L0D0_0
10
-12.339
20
-0.156
0
VERTEX
8
L0D0_0
10
-12.966
20
0.133
0
VERTEX
8
L0D0_0
10
-13.567
20
0.435
0
VERTEX
8
L0D0_0
10
-14.142
20
0.751
0
VERTEX
8
L0D0_0
10
-14.69
20
1.079
0
VERTEX
8
L0D0_0
10
-15.208
20
1.42
0
VERTEX
8
L0D0_0
10
-15.697
20
1.772
0
VERTEX
8
L0D0_0
10
-16.155
20
2.135
0
VERTEX
8
L0D0_0
10
-16.582
20
2.509
0
VERTEX
8
L0D0_0
10
-16.976
20
2.891
0
VERTEX
8
L0D0_0
10
-17.337
20
3.282
0
VERTEX
8
L0D0_0
10
-17.664
20
3.681
0
VERTEX
8
L0D0_0
10
-17.956
20
4.087
0
VERTEX
8
L0D0_0
10
-18.213
20
4.499
0
VERTEX
8
L0D0_0
10
-18.435
20
4.917
0
VERTEX
8
L0D0_0
10
-18.62
20
5.339
0
VERTEX
8
L0D0_0
10
-18.769
20
5.765
0
VERTEX
8
L0D0_0
10
-18.881
20
6.194
0
VERTEX
8
L0D0_0
10
-18.957
20
6.625
0
VERTEX
8
L0D0_0
10
-18.995
20
7.058
0
VERTEX
8
L0D0_0
10
-18.996
20
7.491
0
VERTEX
8
L0D0_0
10
-18.96
20
7.923
0
VERTEX
8
L0D0_0
10
-18.886
20
8.355
0
VERTEX
8
L0D0_0
10
-18.776
20
8.784
0
VERTEX
8
L0D0_0
10
-18.629
20
9.21
0
VERTEX
8
L0D0_0
10
-18.445
20
9.633
0
VERTEX
8
L0D0_0
10
-18.226
20
10.051
0
VERTEX
8
L0D0_0
10
-17.971
20
10.463
0
VERTEX
8
L0D0_0
10
-17.68
20
10.87
0
VERTEX
8
L0D0_0
10
-17.355
20
11.269
0
VERTEX
8
L0D0_0
10
-16.996
20
11.66
0
VERTEX
8
L0D0_0
10
-16.604
20
12.043
0
VERTEX
8
L0D0_0
10
-16.179
20
12.417
0
VERTEX
8
L0D0_0
10
-15.722
20
12.78
0
VERTEX
8
L0D0_0
10
-15.235
20
13.133
0
VERTEX
8
L0D0_0
10
-14.718
20
13.475
0
VERTEX
8
L0D0_0
10
-14.172
20
13.804
0
VERTEX
8
L0D0_0
10
-13.598
20
14.12
0
VERTEX
8
L0D0_0
10
-12.998
20
14.423
0
VERTEX
8
L0D0_0
10
-12.372
20
14.713
0
VERTEX
8
L0D0_0
10
-11.723
20
14.987
0
VERTEX
8
L0D0_0
10
-11.05
20
15.247
0
VERTEX
8
L0D0_0
10
-10.355
20
15.491
0
VERTEX
8
L0D0_0
10
-9.64
20
15.718
0
VERTEX
8
L0D0_0
10
-8.907
20
15.93
0
VERTEX
8
L0D0_0
10
-8.481
20
16.04
0
VERTEX
8
L0D0_0
10
0.283
20
16.04
0
VERTEX
8
L0D0_0
10
-0.514
20
16.038
0
VERTEX
8
L0D0_0
10
-1.31
20
16.016
0
VERTEX
8
L0D0_0
10
-2.103
20
15.974
0
VERTEX
8
L0D0_0
10
-2.891
20
15.914
0
VERTEX
8
L0D0_0
10
-3.673
20
15.835
0
VERTEX
8
L0D0_0
10
-4.447
20
15.737
0
VERTEX
8
L0D0_0
10
-5.211
20
15.62
0
VERTEX
8
L0D0_0
10
-5.964
20
15.485
0
VERTEX
8
L0D0_0
10
-6.704
20
15.332
0
VERTEX
8
L0D0_0
10
-7.429
20
15.161
0
VERTEX
8
L0D0_0
10
-8.137
20
14.973
0
VERTEX
8
L0D0_0
10
-8.828
20
14.768
0
VERTEX
8
L0D0_0
10
-9.499
20
14.547
0
VERTEX
8
L0D0_0
10
-10.15
20
14.31
0
VERTEX
8
L0D0_0
10
-10.778
20
14.057
0
VERTEX
8
L0D0_0
10
-11.382
20
13.789
0
VERTEX
8
L0D0_0
10
-11.961
20
13.508
0
VERTEX
8
L0D0_0
10
-12.514
20
13.212
0
VERTEX
8
L0D0_0
10
-13.04
20
12.903
0
VERTEX
8
L0D0_0
10
-13.537
20
12.582
0
VERTEX
8
L0D0_0
10
-14.004
20
12.25
0
VERTEX
8
L0D0_0
10
-14.44
20
11.906
0
VERTEX
8
L0D0_0
10
-14.845
20
11.553
0
VERTEX
8
L0D0_0
10
-15.217
20
11.189
0
VERTEX
8
L0D0_0
10
-15.555
20
10.818
0
VERTEX
8
L0D0_0
10
-15.86
20
10.438
0
VERTEX
8
L0D0_0
10
-16.129
20
10.052
0
VERTEX
8
L0D0_0
10
-16.363
20
9.66
0
VERTEX
8
L0D0_0
10
-16.561
20
9.262
0
VERTEX
8
L0D0_0
10
-16.723
20
8.86
0
VERTEX
8
L0D0_0
10
-16.848
20
8.455
0
VERTEX
8
L0D0_0
10
-16.936
20
8.047
0
VERTEX
8
L0D0_0
10
-16.986
20
7.637
0
VERTEX
8
L0D0_0
10
-17
20
7.226
0
VERTEX
8
L0D0_0
10
-16.976
20
6.816
0
VERTEX
8
L0D0_0
10
-16.914
20
6.407
0
VERTEX
8
L0D0_0
10
-16.816
20
6
0
VERTEX
8
L0D0_0
10
-16.68
20
5.595
0
VERTEX
8
L0D0_0
10
-16.508
20
5.194
0
VERTEX
8
L0D0_0
10
-16.299
20
4.798
0
VERTEX
8
L0D0_0
10
-16.055
20
4.407
0
VERTEX
8
L0D0_0
10
-15.775
20
4.023
0
VERTEX
8
L0D0_0
10
-15.461
20
3.646
0
VERTEX
8
L0D0_0
10
-15.113
20
3.276
0
VERTEX
8
L0D0_0
10
-14.731
20
2.916
0
VERTEX
8
L0D0_0
10
-14.317
20
2.565
0
VERTEX
8
L0D0_0
10
-13.872
20
2.225
0
VERTEX
8
L0D0_0
10
-13.396
20
1.895
0
VERTEX
8
L0D0_0
10
-12.891
20
1.578
0
VERTEX
8
L0D0_0
10
-12.357
20
1.273
0
VERTEX
8
L0D0_0
10
-11.796
20
0.981
0
VERTEX
8
L0D0_0
10
-11.21
20
0.703
0
VERTEX
8
L0D0_0
10
-10.598
20
0.44
0
VERTEX
8
L0D0_0
10
-9.963
20
0.192
0
VERTEX
8
L0D0_0
10
-9.307
20
-0.041
0
VERTEX
8
L0D0_0
10
-8.63
20
-0.258
0
VERTEX
8
L0D0_0
10
-7.934
20
-0.458
0
VERTEX
8
L0D0_0
10
-7.22
20
-0.641
0
VERTEX
8
L0D0_0
10
-6.491
20
-0.806
0
VERTEX
8
L0D0_0
10
-5.747
20
-0.954
0
VERTEX
8
L0D0_0
10
-4.991
20
-1.084
0
VERTEX
8
L0D0_0
10
-4.224
20
-1.195
0
VERTEX
8
L0D0_0
10
-3.448
20
-1.288
0
VERTEX
8
L0D0_0
10
-2.709
20
-1.358
0
VERTEX
8
L0D0_0
10
-3.407
20
-2.039
0
VERTEX
8
L0D0_0
10
-0.677
20
-2.458
0
VERTEX
8
L0D0_0
10
2.156
20
-2.306
0
VERTEX
8
L0D0_0
10
4.661
20
-1.608
0
VERTEX
8
L0D0_0
10
5.674
20
-0.965
0
VERTEX
8
L0D0_0
10
5.964
20
-0.913
0
VERTEX
8
L0D0_0
10
6.704
20
-0.76
0
VERTEX
8
L0D0_0
10
7.429
20
-0.59
0
VERTEX
8
L0D0_0
10
8.137
20
-0.402
0
VERTEX
8
L0D0_0
10
8.828
20
-0.197
0
VERTEX
8
L0D0_0
10
9.499
20
0.025
0
VERTEX
8
L0D0_0
10
10.15
20
0.262
0
VERTEX
8
L0D0_0
10
10.778
20
0.515
0
VERTEX
8
L0D0_0
10
11.382
20
0.782
0
VERTEX
8
L0D0_0
10
11.961
20
1.064
0
VERTEX
8
L0D0_0
10
12.514
20
1.36
0
VERTEX
8
L0D0_0
10
13.04
20
1.668
0
VERTEX
8
L0D0_0
10
13.537
20
1.989
0
VERTEX
8
L0D0_0
10
14.004
20
2.322
0
VERTEX
8
L0D0_0
10
14.44
20
2.666
0
VERTEX
8
L0D0_0
10
14.845
20
3.019
0
VERTEX
8
L0D0_0
10
15.217
20
3.382
0
VERTEX
8
L0D0_0
10
15.555
20
3.754
0
VERTEX
8
L0D0_0
10
15.86
20
4.133
0
VERTEX
8
L0D0_0
10
16.129
20
4.52
0
VERTEX
8
L0D0_0
10
16.363
20
4.912
0
VERTEX
8
L0D0_0
10
16.561
20
5.31
0
VERTEX
8
L0D0_0
10
16.723
20
5.712
0
VERTEX
8
L0D0_0
10
16.848
20
6.117
0
VERTEX
8
L0D0_0
10
16.936
20
6.525
0
VERTEX
8
L0D0_0
10
16.986
20
6.935
0
VERTEX
8
L0D0_0
10
17
20
7.345
0
VERTEX
8
L0D0_0
10
16.976
20
7.756
0
VERTEX
8
L0D0_0
10
16.914
20
8.165
0
VERTEX
8
L0D0_0
10
16.816
20
8.572
0
VERTEX
8
L0D0_0
10
16.68
20
8.977
0
VERTEX
8
L0D0_0
10
16.508
20
9.378
0
VERTEX
8
L0D0_0
10
16.299
20
9.774
0
VERTEX
8
L0D0_0
10
16.055
20
10.165
0
VERTEX
8
L0D0_0
10
15.775
20
10.549
0
VERTEX
8
L0D0_0
10
15.461
20
10.926
0
VERTEX
8
L0D0_0
10
15.113
20
11.296
0
VERTEX
8
L0D0_0
10
14.731
20
11.656
0
VERTEX
8
L0D0_0
10
14.317
20
12.007
0
VERTEX
8
L0D0_0
10
13.872
20
12.347
0
VERTEX
8
L0D0_0
10
13.396
20
12.677
0
VERTEX
8
L0D0_0
10
12.891
20
12.994
0
VERTEX
8
L0D0_0
10
12.357
20
13.299
0
VERTEX
8
L0D0_0
10
11.796
20
13.591
0
VERTEX
8
L0D0_0
10
11.21
20
13.868
0
VERTEX
8
L0D0_0
10
10.598
20
14.132
0
VERTEX
8
L0D0_0
10
9.963
20
14.38
0
VERTEX
8
L0D0_0
10
9.307
20
14.613
0
VERTEX
8
L0D0_0
10
8.63
20
14.83
0
VERTEX
8
L0D0_0
10
7.934
20
15.03
0
VERTEX
8
L0D0_0
10
7.22
20
15.213
0
VERTEX
8
L0D0_0
10
6.491
20
15.378
0
VERTEX
8
L0D0_0
10
5.747
20
15.526
0
VERTEX
8
L0D0_0
10
4.991
20
15.656
0
VERTEX
8
L0D0_0
10
4.224
20
15.767
0
VERTEX
8
L0D0_0
10
3.448
20
15.86
0
VERTEX
8
L0D0_0
10
2.663
20
15.933
0
VERTEX
8
L0D0_0
10
1.874
20
15.988
0
VERTEX
8
L0D0_0
10
1.08
20
16.024
0
VERTEX
8
L0D0_0
10
0.283
20
16.04
0
VERTEX
8
L0D0_0
10
-8.481
20
16.04
0
VERTEX
8
L0D0_0
10
-8.156
20
16.124
0
VERTEX
8
L0D0_0
10
-7.389
20
16.301
0
VERTEX
8
L0D0_0
10
-6.607
20
16.461
0
VERTEX
8
L0D0_0
10
-5.813
20
16.602
0
VERTEX
8
L0D0_0
10
-5.007
20
16.726
0
VERTEX
8
L0D0_0
10
-4.191
20
16.831
0
VERTEX
8
L0D0_0
10
-3.367
20
16.917
0
VERTEX
8
L0D0_0
10
-2.537
20
16.984
0
VERTEX
8
L0D0_0
10
-1.701
20
17.032
0
VERTEX
8
L0D0_0
10
-0.863
20
17.062
0
VERTEX
8
L0D0_0
10
-0.022
20
17.072
0
VERTEX
8
L0D0_0
10
0.818
20
17.063
0
VERTEX
8
L0D0_0
10
1.657
20
17.034
0
VERTEX
8
L0D0_0
10
2.493
20
16.987
0
VERTEX
8
L0D0_0
10
3.323
20
16.921
0
VERTEX
8
L0D0_0
10
4.148
20
16.836
0
VERTEX
8
L0D0_0
10
4.964
20
16.732
0
VERTEX
8
L0D0_0
10
5.77
20
16.609
0
VERTEX
8
L0D0_0
10
6.565
20
16.469
0
VERTEX
8
L0D0_0
10
7.347
20
16.31
0
VERTEX
8
L0D0_0
10
8.115
20
16.134
0
VERTEX
8
L0D0_0
10
8.867
20
15.941
0
VERTEX
8
L0D0_0
10
9.602
20
15.73
0
VERTEX
8
L0D0_0
10
10.318
20
15.503
0
VERTEX
8
L0D0_0
10
11.013
20
15.26
0
VERTEX
8
L0D0_0
10
11.687
20
15.001
0
VERTEX
8
L0D0_0
10
12.339
20
14.727
0
VERTEX
8
L0D0_0
10
12.966
20
14.439
0
VERTEX
8
L0D0_0
10
13.567
20
14.137
0
VERTEX
8
L0D0_0
10
14.142
20
13.821
0
VERTEX
8
L0D0_0
10
14.69
20
13.492
0
VERTEX
8
L0D0_0
10
15.208
20
13.152
0
VERTEX
8
L0D0_0
10
15.697
20
12.799
0
VERTEX
8
L0D0_0
10
16.155
20
12.436
0
VERTEX
8
L0D0_0
10
16.582
20
12.063
0
VERTEX
8
L0D0_0
10
16.976
20
11.681
0
VERTEX
8
L0D0_0
10
17.337
20
11.29
0
VERTEX
8
L0D0_0
10
17.664
20
10.891
0
VERTEX
8
L0D0_0
10
17.956
20
10.485
0
VERTEX
8
L0D0_0
10
18.213
20
10.073
0
VERTEX
8
L0D0_0
10
18.435
20
9.655
0
VERTEX
8
L0D0_0
10
18.62
20
9.233
0
VERTEX
8
L0D0_0
10
18.769
20
8.807
0
VERTEX
8
L0D0_0
10
18.881
20
8.378
0
VERTEX
8
L0D0_0
10
18.957
20
7.946
0
VERTEX
8
L0D0_0
10
18.995
20
7.514
0
VERTEX
8
L0D0_0
10
18.996
20
7.081
0
VERTEX
8
L0D0_0
10
18.96
20
6.648
0
VERTEX
8
L0D0_0
10
18.886
20
6.217
0
VERTEX
8
L0D0_0
10
18.776
20
5.788
0
VERTEX
8
L0D0_0
10
18.629
20
5.362
0
VERTEX
8
L0D0_0
10
18.445
20
4.939
0
VERTEX
8
L0D0_0
10
18.226
20
4.521
0
VERTEX
8
L0D0_0
10
17.971
20
4.109
0
VERTEX
8
L0D0_0
10
17.68
20
3.702
0
VERTEX
8
L0D0_0
10
17.355
20
3.303
0
VERTEX
8
L0D0_0
10
16.996
20
2.912
0
VERTEX
8
L0D0_0
10
16.604
20
2.529
0
VERTEX
8
L0D0_0
10
16.179
20
2.155
0
VERTEX
8
L0D0_0
10
15.722
20
1.791
0
VERTEX
8
L0D0_0
10
15.235
20
1.439
0
VERTEX
8
L0D0_0
10
14.718
20
1.097
0
VERTEX
8
L0D0_0
10
14.172
20
0.768
0
VERTEX
8
L0D0_0
10
13.598
20
0.452
0
VERTEX
8
L0D0_0
10
12.998
20
0.148
0
VERTEX
8
L0D0_0
10
12.372
20
-0.141
0
VERTEX
8
L0D0_0
10
11.723
20
-0.415
0
VERTEX
8
L0D0_0
10
11.05
20
-0.675
0
VERTEX
8
L0D0_0
10
10.355
20
-0.919
0
VERTEX
8
L0D0_0
10
9.64
20
-1.147
0
VERTEX
8
L0D0_0
10
8.907
20
-1.358
0
VERTEX
8
L0D0_0
10
8.156
20
-1.552
0
VERTEX
8
L0D0_0
10
7.389
20
-1.73
0
VERTEX
8
L0D0_0
10
6.607
20
-1.889
0
VERTEX
8
L0D0_0
10
5.813
20
-2.031
0
VERTEX
8
L0D0_0
10
5.007
20
-2.154
0
VERTEX
8
L0D0_0
10
4.191
20
-2.259
0
VERTEX
8
L0D0_0
10
3.367
20
-2.345
0
VERTEX
8
L0D0_0
10
2.537
20
-2.412
0
VERTEX
8
L0D0_0
10
1.701
20
-2.46
0
VERTEX
8
L0D0_0
10
0.863
20
-2.49
0
SEQEND
0
POLYLINE
8
L0D0_0
70
0
40
0
41
0
66
1
0
VERTEX
8
L0D0_0
10
5.905
20
-0.924
0
VERTEX
8
L0D0_0
10
5.906
20
-0.924
0
VERTEX
8
L0D0_0
10
6.197
20
-0.702
0
VERTEX
8
L0D0_0
10
6.456
20
-0.469
0
VERTEX
8
L0D0_0
10
6.683
20
-0.227
0
VERTEX
8
L0D0_0
10
6.875
20
0.022
0
VERTEX
8
L0D0_0
10
7.033
20
0.278
0
VERTEX
8
L0D0_0
10
7.155
20
0.539
0
VERTEX
8
L0D0_0
10
7.24
20
0.804
0
VERTEX
8
L0D0_0
10
7.288
20
1.071
0
VERTEX
8
L0D0_0
10
7.299
20
1.339
0
VERTEX
8
L0D0_0
10
7.273
20
1.607
0
VERTEX
8
L0D0_0
10
7.21
20
1.874
0
VERTEX
8
L0D0_0
10
7.11
20
2.137
0
VERTEX
8
L0D0_0
10
6.974
20
2.396
0
VERTEX
8
L0D0_0
10
6.803
20
2.65
0
VERTEX
8
L0D0_0
10
6.596
20
2.896
0
VERTEX
8
L0D0_0
10
6.357
20
3.134
0
VERTEX
8
L0D0_0
10
6.084
20
3.363
0
VERTEX
8
L0D0_0
10
5.781
20
3.582
0
VERTEX
8
L0D0_0
10
5.448
20
3.788
0
VERTEX
8
L0D0_0
10
5.088
20
3.982
0
VERTEX
8
L0D0_0
10
4.701
20
4.162
0
VERTEX
8
L0D0_0
10
4.291
20
4.327
0
VERTEX
8
L0D0_0
10
3.859
20
4.477
0
VERTEX
8
L0D0_0
10
3.407
20
4.611
0
VERTEX
8
L0D0_0
10
7.934
20
9.029
0
VERTEX
8
L0D0_0
10
7.934
20
13.315
0
VERTEX
8
L0D0_0
10
7.22
20
13.498
0
VERTEX
8
L0D0_0
10
6.491
20
13.664
0
VERTEX
8
L0D0_0
10
5.747
20
13.812
0
VERTEX
8
L0D0_0
10
4.991
20
13.941
0
VERTEX
8
L0D0_0
10
4.224
20
14.053
0
VERTEX
8
L0D0_0
10
3.448
20
14.145
0
VERTEX
8
L0D0_0
10
2.663
20
14.219
0
VERTEX
8
L0D0_0
10
1.874
20
14.274
0
VERTEX
8
L0D0_0
10
1.08
20
14.31
0
VERTEX
8
L0D0_0
10
0.283
20
14.326
0
VERTEX
8
L0D0_0
10
-0.514
20
14.323
0
VERTEX
8
L0D0_0
10
-1.31
20
14.301
0
VERTEX
8
L0D0_0
10
-2.103
20
14.26
0
VERTEX
8
L0D0_0
10
-2.891
20
14.2
0
VERTEX
8
L0D0_0
10
-3.673
20
14.12
0
VERTEX
8
L0D0_0
10
-4.447
20
14.022
0
VERTEX
8
L0D0_0
10
-5.211
20
13.906
0
VERTEX
8
L0D0_0
10
-5.964
20
13.771
0
VERTEX
8
L0D0_0
10
-6.704
20
13.618
0
VERTEX
8
L0D0_0
10
-7.429
20
13.447
0
VERTEX
8
L0D0_0
10
-8.137
20
13.259
0
VERTEX
8
L0D0_0
10
-8.828
20
13.054
0
VERTEX
8
L0D0_0
10
-9.499
20
12.833
0
VERTEX
8
L0D0_0
10
-10.15
20
12.596
0
VERTEX
8
L0D0_0
10
-10.778
20
12.343
0
VERTEX
8
L0D0_0
10
-11.382
20
12.075
0
VERTEX
8
L0D0_0
10
-11.961
20
11.793
0
VERTEX
8
L0D0_0
10
-12.514
20
11.498
0
VERTEX
8
L0D0_0
10
-13.04
20
11.189
0
VERTEX
8
L0D0_0
10
-13.537
20
10.868
0
VERTEX
8
L0D0_0
10
-14.004
20
10.535
0
VERTEX
8
L0D0_0
10
-14.44
20
10.192
0
VERTEX
8
L0D0_0
10
-14.845
20
9.838
0
VERTEX
8
L0D0_0
10
-15.217
20
9.475
0
VERTEX
8
L0D0_0
10
-15.555
20
9.104
0
VERTEX
8
L0D0_0
10
-15.86
20
8.724
0
VERTEX
8
L0D0_0
10
-16.129
20
8.338
0
VERTEX
8
L0D0_0
10
-16.363
20
7.945
0
VERTEX
8
L0D0_0
10
-16.561
20
7.548
0
VERTEX
8
L0D0_0
10
-16.723
20
7.146
0
VERTEX
8
L0D0_0
10
-16.848
20
6.74
0
VERTEX
8
L0D0_0
10
-16.918
20
6.429
0
SEQEND
0
POLYLINE
8
L0D0_0
70
0
40
0
41
0
66
1
0
VERTEX
8
L0D0_0
10
7.292
20
1.114
0
VERTEX
8
L0D0_0
10
7.273
20
1.265
0
VERTEX
8
L0D0_0
10
7.21
20
1.531
0
VERTEX
8
L0D0_0
10
7.11
20
1.794
0
VERTEX
8
L0D0_0
10
6.974
20
2.053
0
VERTEX
8
L0D0_0
10
6.803
20
2.307
0
VERTEX
8
L0D0_0
10
6.596
20
2.553
0
VERTEX
8
L0D0_0
10
6.357
20
2.792
0
VERTEX
8
L0D0_0
10
6.084
20
3.02
0
VERTEX
8
L0D0_0
10
5.781
20
3.239
0
VERTEX
8
L0D0_0
10
5.448
20
3.445
0
VERTEX
8
L0D0_0
10
5.088
20
3.639
0
VERTEX
8
L0D0_0
10
4.701
20
3.819
0
VERTEX
8
L0D0_0
10
4.291
20
3.985
0
VERTEX
8
L0D0_0
10
3.859
20
4.134
0
VERTEX
8
L0D0_0
10
3.407
20
4.268
0
VERTEX
8
L0D0_0
10
-2.383
20
-1.383
0
SEQEND
0
POLYLINE
8
L0D0_0
70
0
40
0
41
0
66
1
0
VERTEX
8
L0D0_0
10
19
20
7.286
0
VERTEX
8
L0D0_0
10
19
20
0.943
0
VERTEX
8
L0D0_0
10
18.996
20
0.738
0
VERTEX
8
L0D0_0
10
18.96
20
0.305
0
VERTEX
8
L0D0_0
10
18.886
20
-0.126
0
VERTEX
8
L0D0_0
10
18.776
20
-0.555
0
VERTEX
8
L0D0_0
10
18.629
20
-0.981
0
VERTEX
8
L0D0_0
10
18.445
20
-1.404
0
VERTEX
8
L0D0_0
10
18.226
20
-1.822
0
VERTEX
8
L0D0_0
10
17.971
20
-2.234
0
VERTEX
8
L0D0_0
10
17.68
20
-2.641
0
VERTEX
8
L0D0_0
10
17.355
20
-3.04
0
VERTEX
8
L0D0_0
10
16.996
20
-3.431
0
VERTEX
8
L0D0_0
10
16.604
20
-3.814
0
VERTEX
8
L0D0_0
10
16.179
20
-4.188
0
VERTEX
8
L0D0_0
10
15.722
20
-4.552
0
VERTEX
8
L0D0_0
10
15.235
20
-4.904
0
VERTEX
8
L0D0_0
10
14.718
20
-5.246
0
VERTEX
8
L0D0_0
10
14.172
20
-5.575
0
VERTEX
8
L0D0_0
10
13.598
20
-5.891
0
VERTEX
8
L0D0_0
10
12.998
20
-6.195
0
VERTEX
8
L0D0_0
10
12.372
20
-6.484
0
VERTEX
8
L0D0_0
10
11.723
20
-6.758
0
VERTEX
8
L0D0_0
10
11.05
20
-7.018
0
VERTEX
8
L0D0_0
10
10.355
20
-7.262
0
VERTEX
8
L0D0_0
10
9.64
20
-7.49
0
VERTEX
8
L0D0_0
10
8.907
20
-7.701
0
VERTEX
8
L0D0_0
10
8.156
20
-7.895
0
VERTEX
8
L0D0_0
10
7.389
20
-8.073
0
VERTEX
8
L0D0_0
10
6.607
20
-8.232
0
VERTEX
8
L0D0_0
10
5.813
20
-8.374
0
VERTEX
8
L0D0_0
10
5.007
20
-8.497
0
VERTEX
8
L0D0_0
10
4.191
20
-8.602
0
VERTEX
8
L0D0_0
10
3.367
20
-8.688
0
VERTEX
8
L0D0_0
10
2.537
20
-8.755
0
VERTEX
8
L0D0_0
10
1.701
20
-8.804
0
VERTEX
8
L0D0_0
10
0.863
20
-8.833
0
VERTEX
8
L0D0_0
10
0.022
20
-8.843
0
VERTEX
8
L0D0_0
10
-0.818
20
-8.834
0
VERTEX
8
L0D0_0
10
-1.657
20
-8.806
0
VERTEX
8
L0D0_0
10
-2.493
20
-8.758
0
VERTEX
8
L0D0_0
10
-3.323
20
-8.692
0
VERTEX
8
L0D0_0
10
-4.148
20
-8.607
0
VERTEX
8
L0D0_0
10
-4.964
20
-8.503
0
VERTEX
8
L0D0_0
10
-5.77
20
-8.381
0
VERTEX
8
L0D0_0
10
-6.565
20
-8.24
0
VERTEX
8
L0D0_0
10
-7.347
20
-8.082
0
VERTEX
8
L0D0_0
10
-8.115
20
-7.905
0
VERTEX
8
L0D0_0
10
-8.867
20
-7.712
0
VERTEX
8
L0D0_0
10
-9.602
20
-7.501
0
VERTEX
8
L0D0_0
10
-10.318
20
-7.274
0
VERTEX
8
L0D0_0
10
-11.013
20
-7.031
0
VERTEX
8
L0D0_0
10
-11.687
20
-6.772
0
VERTEX
8
L0D0_0
10
-12.339
20
-6.499
0
VERTEX
8
L0D0_0
10
-12.966
20
-6.21
0
VERTEX
8
L0D0_0
10
-13.567
20
-5.908
0
VERTEX
8
L0D0_0
10
-14.142
20
-5.592
0
VERTEX
8
L0D0_0
10
-14.69
20
-5.264
0
VERTEX
8
L0D0_0
10
-15.208
20
-4.923
0
VERTEX
8
L0D0_0
10
-15.697
20
-4.571
0
VERTEX
8
L0D0_0
10
-16.155
20
-4.208
0
VERTEX
8
L0D0_0
10
-16.582
20
-3.834
0
VERTEX
8
L0D0_0
10
-16.976
20
-3.452
0
VERTEX
8
L0D0_0
10
-17.337
20
-3.061
0
VERTEX
8
L0D0_0
10
-17.664
20
-2.662
0
VERTEX
8
L0D0_0
10
-17.956
20
-2.256
0
VERTEX
8
L0D0_0
10
-18.213
20
-1.844
0
VERTEX
8
L0D0_0
10
-18.435
20
-1.426
0
VERTEX
8
L0D0_0
10
-18.62
20
-1.004
0
VERTEX
8
L0D0_0
10
-18.769
20
-0.578
0
VERTEX
8
L0D0_0
10
-18.881
20
-0.149
0
VERTEX
8
L0D0_0
10
-18.957
20
0.282
0
VERTEX
8
L0D0_0
10
-18.995
20
0.715
0
VERTEX
8
L0D0_0
10
-19
20
0.943
0
VERTEX
8
L0D0_0
10
-19
20
7.286
0
SEQEND
0
POLYLINE
8
L0D0_0
70
0
40
0
41
0
66
1
0
VERTEX
8
L0D0_0
10
7.934
20
13.315
0
VERTEX
8
L0D0_0
10
-6.527
20
-0.799
0
SEQEND
0
POLYLINE
8
L0D0_0
70
0
40
0
41
0
66
1
0
VERTEX
8
L0D0_0
10
3.407
20
4.268
0
VERTEX
8
L0D0_0
10
3.407
20
4.611
0
SEQEND
0
POLYLINE
8
L0D0_0
70
0
40
0
41
0
66
1
0
VERTEX
8
L0D0_0
10
15.971
20
4.286
0
VERTEX
8
L0D0_0
10
15.69
20
4.615
0
VERTEX
8
L0D0_0
10
15.091
20
5.237
0
VERTEX
8
L0D0_0
10
14.455
20
5.823
0
VERTEX
8
L0D0_0
10
13.785
20
6.369
0
VERTEX
8
L0D0_0
10
13.083
20
6.873
0
VERTEX
8
L0D0_0
10
12.352
20
7.335
0
VERTEX
8
L0D0_0
10
11.595
20
7.752
0
VERTEX
8
L0D0_0
10
10.814
20
8.122
0
VERTEX
8
L0D0_0
10
10.012
20
8.445
0
VERTEX
8
L0D0_0
10
9.192
20
8.719
0
VERTEX
8
L0D0_0
10
8.357
20
8.943
0
VERTEX
8
L0D0_0
10
7.934
20
9.029
0
SEQEND
0
ENDSEC
0
EOF
