0
SECTION
2
HEADER
9
$ACADVER
1
AC1006
0
ENDSEC
0
SECTION
2
TABLES
0
TABLE
2
LAYER
70
1
0
LAYER
70
0
62
1
6
CONTINUOUS
2
L0D0_0
0
ENDTAB
0
ENDSEC
0
SECTION
2
BLOCKS
0
ENDSEC
0
SECTION
2
ENTITIES
0
TEXT
8
L0D0_0
10
0
20
15.73
40
4.834
1

50
0
72
0
11
0
21
15.73
73
3
0
TEXT
8
L0D0_0
10
0
20
8.48
40
4.834
1

50
0
72
0
11
0
21
8.48
73
3
0
POLYLINE
8
L0D0_0
70
1
40
0
41
0
66
1
0
VERTEX
8
L0D0_0
10
0
20
16.75
0
VERTEX
8
L0D0_0
10
0
20
46.5
0
VERTEX
8
L0D0_0
10
7.4
20
46.5
0
VERTEX
8
L0D0_0
10
7.4
20
34.5
0
VERTEX
8
L0D0_0
10
16.4
20
34.5
0
VERTEX
8
L0D0_0
10
16.4
20
46.5
0
VERTEX
8
L0D0_0
10
22.8
20
46.5
0
VERTEX
8
L0D0_0
10
22.8
20
34.5
0
VERTEX
8
L0D0_0
10
30.8
20
34.5
0
VERTEX
8
L0D0_0
10
30.8
20
46.5
0
VERTEX
8
L0D0_0
10
37.2
20
46.5
0
VERTEX
8
L0D0_0
10
37.2
20
34.5
0
VERTEX
8
L0D0_0
10
44.2
20
34.5
0
VERTEX
8
L0D0_0
10
44.2
20
46.5
0
VERTEX
8
L0D0_0
10
50.6
20
46.5
0
VERTEX
8
L0D0_0
10
50.6
20
34.5
0
VERTEX
8
L0D0_0
10
56.6
20
34.5
0
VERTEX
8
L0D0_0
10
56.6
20
46.5
0
VERTEX
8
L0D0_0
10
63
20
46.5
0
VERTEX
8
L0D0_0
10
63
20
34.5
0
VERTEX
8
L0D0_0
10
68
20
34.5
0
VERTEX
8
L0D0_0
10
68
20
46.5
0
VERTEX
8
L0D0_0
10
74.4
20
46.5
0
VERTEX
8
L0D0_0
10
74.4
20
34.5
0
VERTEX
8
L0D0_0
10
83.4
20
34.5
0
VERTEX
8
L0D0_0
10
83.4
20
46.5
0
VERTEX
8
L0D0_0
10
89.8
20
46.5
0
VERTEX
8
L0D0_0
10
89.8
20
34.5
0
VERTEX
8
L0D0_0
10
97.8
20
34.5
0
VERTEX
8
L0D0_0
10
97.8
20
46.5
0
VERTEX
8
L0D0_0
10
104.2
20
46.5
0
VERTEX
8
L0D0_0
10
104.2
20
34.5
0
VERTEX
8
L0D0_0
10
111.2
20
34.5
0
VERTEX
8
L0D0_0
10
111.2
20
46.5
0
VERTEX
8
L0D0_0
10
117.6
20
46.5
0
VERTEX
8
L0D0_0
10
117.6
20
34.5
0
VERTEX
8
L0D0_0
10
123.6
20
34.5
0
VERTEX
8
L0D0_0
10
123.6
20
46.5
0
VERTEX
8
L0D0_0
10
130
20
46.5
0
VERTEX
8
L0D0_0
10
130
20
34.5
0
VERTEX
8
L0D0_0
10
135
20
34.5
0
VERTEX
8
L0D0_0
10
135
20
46.5
0
VERTEX
8
L0D0_0
10
141.4
20
46.5
0
VERTEX
8
L0D0_0
10
141.4
20
34.5
0
VERTEX
8
L0D0_0
10
150.4
20
34.5
0
VERTEX
8
L0D0_0
10
150.4
20
46.5
0
VERTEX
8
L0D0_0
10
156.8
20
46.5
0
VERTEX
8
L0D0_0
10
156.8
20
34.5
0
VERTEX
8
L0D0_0
10
164.8
20
34.5
0
VERTEX
8
L0D0_0
10
164.8
20
46.5
0
VERTEX
8
L0D0_0
10
171.2
20
46.5
0
VERTEX
8
L0D0_0
10
171.2
20
34.5
0
VERTEX
8
L0D0_0
10
178.2
20
34.5
0
VERTEX
8
L0D0_0
10
178.2
20
46.5
0
VERTEX
8
L0D0_0
10
184.6
20
46.5
0
VERTEX
8
L0D0_0
10
184.6
20
34.5
0
VERTEX
8
L0D0_0
10
190.6
20
34.5
0
VERTEX
8
L0D0_0
10
190.6
20
46.5
0
VERTEX
8
L0D0_0
10
197
20
46.5
0
VERTEX
8
L0D0_0
10
197
20
34.5
0
VERTEX
8
L0D0_0
10
202
20
34.5
0
VERTEX
8
L0D0_0
10
202
20
46.5
0
VERTEX
8
L0D0_0
10
0
20
46.5
0
VERTEX
8
L0D0_0
10
0
20
60
0
VERTEX
8
L0D0_0
10
7.4
20
60
0
VERTEX
8
L0D0_0
10
7.4
20
50.5
0
VERTEX
8
L0D0_0
10
16.4
20
50.5
0
VERTEX
8
L0D0_0
10
16.4
20
60
0
VERTEX
8
L0D0_0
10
22.8
20
60
0
VERTEX
8
L0D0_0
10
22.8
20
50.5
0
VERTEX
8
L0D0_0
10
30.8
20
50.5
0
VERTEX
8
L0D0_0
10
30.8
20
60
0
VERTEX
8
L0D0_0
10
37.2
20
60
0
VERTEX
8
L0D0_0
10
37.2
20
50.5
0
VERTEX
8
L0D0_0
10
44.2
20
50.5
0
VERTEX
8
L0D0_0
10
44.2
20
60
0
VERTEX
8
L0D0_0
10
50.6
20
60
0
VERTEX
8
L0D0_0
10
50.6
20
50.5
0
VERTEX
8
L0D0_0
10
56.6
20
50.5
0
VERTEX
8
L0D0_0
10
56.6
20
60
0
VERTEX
8
L0D0_0
10
63
20
60
0
VERTEX
8
L0D0_0
10
63
20
50.5
0
VERTEX
8
L0D0_0
10
68
20
50.5
0
VERTEX
8
L0D0_0
10
68
20
60
0
VERTEX
8
L0D0_0
10
74.4
20
60
0
VERTEX
8
L0D0_0
10
74.4
20
50
0
VERTEX
8
L0D0_0
10
83.4
20
50
0
VERTEX
8
L0D0_0
10
83.4
20
60
0
VERTEX
8
L0D0_0
10
89.8
20
60
0
VERTEX
8
L0D0_0
10
89.8
20
50
0
VERTEX
8
L0D0_0
10
97.8
20
50
0
VERTEX
8
L0D0_0
10
97.8
20
60
0
VERTEX
8
L0D0_0
10
104.2
20
60
0
VERTEX
8
L0D0_0
10
104.2
20
50
0
VERTEX
8
L0D0_0
10
111.2
20
50
0
VERTEX
8
L0D0_0
10
111.2
20
60
0
VERTEX
8
L0D0_0
10
117.6
20
60
0
VERTEX
8
L0D0_0
10
117.6
20
50
0
VERTEX
8
L0D0_0
10
123.6
20
50
0
VERTEX
8
L0D0_0
10
123.6
20
60
0
VERTEX
8
L0D0_0
10
130
20
60
0
VERTEX
8
L0D0_0
10
130
20
50
0
VERTEX
8
L0D0_0
10
135
20
50
0
VERTEX
8
L0D0_0
10
135
20
60
0
VERTEX
8
L0D0_0
10
141.4
20
60
0
VERTEX
8
L0D0_0
10
141.4
20
49.7
0
VERTEX
8
L0D0_0
10
150.4
20
49.7
0
VERTEX
8
L0D0_0
10
150.4
20
60
0
VERTEX
8
L0D0_0
10
156.8
20
60
0
VERTEX
8
L0D0_0
10
156.8
20
49.7
0
VERTEX
8
L0D0_0
10
164.8
20
49.7
0
VERTEX
8
L0D0_0
10
164.8
20
60
0
VERTEX
8
L0D0_0
10
171.2
20
60
0
VERTEX
8
L0D0_0
10
171.2
20
49.7
0
VERTEX
8
L0D0_0
10
178.2
20
49.7
0
VERTEX
8
L0D0_0
10
178.2
20
60
0
VERTEX
8
L0D0_0
10
184.6
20
60
0
VERTEX
8
L0D0_0
10
184.6
20
49.7
0
VERTEX
8
L0D0_0
10
190.6
20
49.7
0
VERTEX
8
L0D0_0
10
190.6
20
60
0
VERTEX
8
L0D0_0
10
197
20
60
0
VERTEX
8
L0D0_0
10
197
20
49.7
0
VERTEX
8
L0D0_0
10
202
20
49.7
0
VERTEX
8
L0D0_0
10
202
20
60
0
VERTEX
8
L0D0_0
10
0
20
60
0
VERTEX
8
L0D0_0
10
0
20
76
0
VERTEX
8
L0D0_0
10
7.4
20
76
0
VERTEX
8
L0D0_0
10
7.4
20
64
0
VERTEX
8
L0D0_0
10
16.4
20
64
0
VERTEX
8
L0D0_0
10
16.4
20
76
0
VERTEX
8
L0D0_0
10
22.8
20
76
0
VERTEX
8
L0D0_0
10
22.8
20
64
0
VERTEX
8
L0D0_0
10
30.8
20
64
0
VERTEX
8
L0D0_0
10
30.8
20
76
0
VERTEX
8
L0D0_0
10
37.2
20
76
0
VERTEX
8
L0D0_0
10
37.2
20
64
0
VERTEX
8
L0D0_0
10
44.2
20
64
0
VERTEX
8
L0D0_0
10
44.2
20
76
0
VERTEX
8
L0D0_0
10
50.6
20
76
0
VERTEX
8
L0D0_0
10
50.6
20
64
0
VERTEX
8
L0D0_0
10
56.6
20
64
0
VERTEX
8
L0D0_0
10
56.6
20
76
0
VERTEX
8
L0D0_0
10
63
20
76
0
VERTEX
8
L0D0_0
10
63
20
64
0
VERTEX
8
L0D0_0
10
68
20
64
0
VERTEX
8
L0D0_0
10
68
20
76
0
VERTEX
8
L0D0_0
10
74.4
20
76
0
VERTEX
8
L0D0_0
10
74.4
20
63.5
0
VERTEX
8
L0D0_0
10
83.4
20
63.5
0
VERTEX
8
L0D0_0
10
83.4
20
76
0
VERTEX
8
L0D0_0
10
89.8
20
76
0
VERTEX
8
L0D0_0
10
89.8
20
63.5
0
VERTEX
8
L0D0_0
10
97.8
20
63.5
0
VERTEX
8
L0D0_0
10
97.8
20
76
0
VERTEX
8
L0D0_0
10
104.2
20
76
0
VERTEX
8
L0D0_0
10
104.2
20
63.5
0
VERTEX
8
L0D0_0
10
111.2
20
63.5
0
VERTEX
8
L0D0_0
10
111.2
20
76
0
VERTEX
8
L0D0_0
10
117.6
20
76
0
VERTEX
8
L0D0_0
10
117.6
20
63.5
0
VERTEX
8
L0D0_0
10
123.6
20
63.5
0
VERTEX
8
L0D0_0
10
123.6
20
76
0
VERTEX
8
L0D0_0
10
130
20
76
0
VERTEX
8
L0D0_0
10
130
20
63.5
0
VERTEX
8
L0D0_0
10
135
20
63.5
0
VERTEX
8
L0D0_0
10
135
20
76
0
VERTEX
8
L0D0_0
10
141.4
20
76
0
VERTEX
8
L0D0_0
10
141.4
20
63
0
VERTEX
8
L0D0_0
10
150.4
20
63
0
VERTEX
8
L0D0_0
10
150.4
20
76
0
VERTEX
8
L0D0_0
10
156.8
20
76
0
VERTEX
8
L0D0_0
10
156.8
20
63
0
VERTEX
8
L0D0_0
10
164.8
20
63
0
VERTEX
8
L0D0_0
10
164.8
20
76
0
VERTEX
8
L0D0_0
10
171.2
20
76
0
VERTEX
8
L0D0_0
10
171.2
20
63
0
VERTEX
8
L0D0_0
10
178.2
20
63
0
VERTEX
8
L0D0_0
10
178.2
20
76
0
VERTEX
8
L0D0_0
10
184.6
20
76
0
VERTEX
8
L0D0_0
10
184.6
20
63
0
VERTEX
8
L0D0_0
10
190.6
20
63
0
VERTEX
8
L0D0_0
10
190.6
20
76
0
VERTEX
8
L0D0_0
10
197
20
76
0
VERTEX
8
L0D0_0
10
197
20
63
0
VERTEX
8
L0D0_0
10
202
20
63
0
VERTEX
8
L0D0_0
10
202
20
76
0
VERTEX
8
L0D0_0
10
0
20
76
0
VERTEX
8
L0D0_0
10
0
20
89.5
0
VERTEX
8
L0D0_0
10
7.4
20
89.5
0
VERTEX
8
L0D0_0
10
7.4
20
80
0
VERTEX
8
L0D0_0
10
16.4
20
80
0
VERTEX
8
L0D0_0
10
16.4
20
89.5
0
VERTEX
8
L0D0_0
10
22.8
20
89.5
0
VERTEX
8
L0D0_0
10
22.8
20
80
0
VERTEX
8
L0D0_0
10
30.8
20
80
0
VERTEX
8
L0D0_0
10
30.8
20
89.5
0
VERTEX
8
L0D0_0
10
37.2
20
89.5
0
VERTEX
8
L0D0_0
10
37.2
20
80
0
VERTEX
8
L0D0_0
10
44.2
20
80
0
VERTEX
8
L0D0_0
10
44.2
20
89.5
0
VERTEX
8
L0D0_0
10
50.6
20
89.5
0
VERTEX
8
L0D0_0
10
50.6
20
80
0
VERTEX
8
L0D0_0
10
56.6
20
80
0
VERTEX
8
L0D0_0
10
56.6
20
89.5
0
VERTEX
8
L0D0_0
10
63
20
89.5
0
VERTEX
8
L0D0_0
10
63
20
80
0
VERTEX
8
L0D0_0
10
68
20
80
0
VERTEX
8
L0D0_0
10
68
20
89.5
0
VERTEX
8
L0D0_0
10
74.4
20
89.5
0
VERTEX
8
L0D0_0
10
74.4
20
79.5
0
VERTEX
8
L0D0_0
10
83.4
20
79.5
0
VERTEX
8
L0D0_0
10
83.4
20
89.5
0
VERTEX
8
L0D0_0
10
89.8
20
89.5
0
VERTEX
8
L0D0_0
10
89.8
20
79.5
0
VERTEX
8
L0D0_0
10
97.8
20
79.5
0
VERTEX
8
L0D0_0
10
97.8
20
89.5
0
VERTEX
8
L0D0_0
10
104.2
20
89.5
0
VERTEX
8
L0D0_0
10
104.2
20
79.5
0
VERTEX
8
L0D0_0
10
111.2
20
79.5
0
VERTEX
8
L0D0_0
10
111.2
20
89.5
0
VERTEX
8
L0D0_0
10
117.6
20
89.5
0
VERTEX
8
L0D0_0
10
117.6
20
79.5
0
VERTEX
8
L0D0_0
10
123.6
20
79.5
0
VERTEX
8
L0D0_0
10
123.6
20
89.5
0
VERTEX
8
L0D0_0
10
130
20
89.5
0
VERTEX
8
L0D0_0
10
130
20
79.5
0
VERTEX
8
L0D0_0
10
135
20
79.5
0
VERTEX
8
L0D0_0
10
135
20
89.5
0
VERTEX
8
L0D0_0
10
141.4
20
89.5
0
VERTEX
8
L0D0_0
10
141.4
20
79
0
VERTEX
8
L0D0_0
10
150.4
20
79
0
VERTEX
8
L0D0_0
10
150.4
20
89.5
0
VERTEX
8
L0D0_0
10
156.8
20
89.5
0
VERTEX
8
L0D0_0
10
156.8
20
79
0
VERTEX
8
L0D0_0
10
164.8
20
79
0
VERTEX
8
L0D0_0
10
164.8
20
89.5
0
VERTEX
8
L0D0_0
10
171.2
20
89.5
0
VERTEX
8
L0D0_0
10
171.2
20
79
0
VERTEX
8
L0D0_0
10
178.2
20
79
0
VERTEX
8
L0D0_0
10
178.2
20
89.5
0
VERTEX
8
L0D0_0
10
184.6
20
89.5
0
VERTEX
8
L0D0_0
10
184.6
20
79
0
VERTEX
8
L0D0_0
10
190.6
20
79
0
VERTEX
8
L0D0_0
10
190.6
20
89.5
0
VERTEX
8
L0D0_0
10
197
20
89.5
0
VERTEX
8
L0D0_0
10
197
20
79
0
VERTEX
8
L0D0_0
10
202
20
79
0
VERTEX
8
L0D0_0
10
202
20
89.5
0
VERTEX
8
L0D0_0
10
0
20
89.5
0
VERTEX
8
L0D0_0
10
0
20
105.5
0
VERTEX
8
L0D0_0
10
7.4
20
105.5
0
VERTEX
8
L0D0_0
10
7.4
20
93.5
0
VERTEX
8
L0D0_0
10
16.4
20
93.5
0
VERTEX
8
L0D0_0
10
16.4
20
105.5
0
VERTEX
8
L0D0_0
10
22.8
20
105.5
0
VERTEX
8
L0D0_0
10
22.8
20
93.5
0
VERTEX
8
L0D0_0
10
30.8
20
93.5
0
VERTEX
8
L0D0_0
10
30.8
20
105.5
0
VERTEX
8
L0D0_0
10
37.2
20
105.5
0
VERTEX
8
L0D0_0
10
37.2
20
93.5
0
VERTEX
8
L0D0_0
10
44.2
20
93.5
0
VERTEX
8
L0D0_0
10
44.2
20
105.5
0
VERTEX
8
L0D0_0
10
50.6
20
105.5
0
VERTEX
8
L0D0_0
10
50.6
20
93.5
0
VERTEX
8
L0D0_0
10
56.6
20
93.5
0
VERTEX
8
L0D0_0
10
56.6
20
105.5
0
VERTEX
8
L0D0_0
10
63
20
105.5
0
VERTEX
8
L0D0_0
10
63
20
93.5
0
VERTEX
8
L0D0_0
10
68
20
93.5
0
VERTEX
8
L0D0_0
10
68
20
105.5
0
VERTEX
8
L0D0_0
10
74.4
20
105.5
0
VERTEX
8
L0D0_0
10
74.4
20
93
0
VERTEX
8
L0D0_0
10
83.4
20
93
0
VERTEX
8
L0D0_0
10
83.4
20
105.5
0
VERTEX
8
L0D0_0
10
89.8
20
105.5
0
VERTEX
8
L0D0_0
10
89.8
20
93
0
VERTEX
8
L0D0_0
10
97.8
20
93
0
VERTEX
8
L0D0_0
10
97.8
20
105.5
0
VERTEX
8
L0D0_0
10
104.2
20
105.5
0
VERTEX
8
L0D0_0
10
104.2
20
93
0
VERTEX
8
L0D0_0
10
111.2
20
93
0
VERTEX
8
L0D0_0
10
111.2
20
105.5
0
VERTEX
8
L0D0_0
10
117.6
20
105.5
0
VERTEX
8
L0D0_0
10
117.6
20
93
0
VERTEX
8
L0D0_0
10
123.6
20
93
0
VERTEX
8
L0D0_0
10
123.6
20
105.5
0
VERTEX
8
L0D0_0
10
130
20
105.5
0
VERTEX
8
L0D0_0
10
130
20
93
0
VERTEX
8
L0D0_0
10
135
20
93
0
VERTEX
8
L0D0_0
10
135
20
105.5
0
VERTEX
8
L0D0_0
10
141.4
20
105.5
0
VERTEX
8
L0D0_0
10
141.4
20
93
0
VERTEX
8
L0D0_0
10
150.4
20
93
0
VERTEX
8
L0D0_0
10
150.4
20
105.5
0
VERTEX
8
L0D0_0
10
156.8
20
105.5
0
VERTEX
8
L0D0_0
10
156.8
20
93
0
VERTEX
8
L0D0_0
10
164.8
20
93
0
VERTEX
8
L0D0_0
10
164.8
20
105.5
0
VERTEX
8
L0D0_0
10
171.2
20
105.5
0
VERTEX
8
L0D0_0
10
171.2
20
93
0
VERTEX
8
L0D0_0
10
178.2
20
93
0
VERTEX
8
L0D0_0
10
178.2
20
105.5
0
VERTEX
8
L0D0_0
10
184.6
20
105.5
0
VERTEX
8
L0D0_0
10
184.6
20
93
0
VERTEX
8
L0D0_0
10
190.6
20
93
0
VERTEX
8
L0D0_0
10
190.6
20
105.5
0
VERTEX
8
L0D0_0
10
197
20
105.5
0
VERTEX
8
L0D0_0
10
197
20
93
0
VERTEX
8
L0D0_0
10
202
20
93
0
VERTEX
8
L0D0_0
10
202
20
105.5
0
VERTEX
8
L0D0_0
10
0
20
105.5
0
VERTEX
8
L0D0_0
10
0
20
119
0
VERTEX
8
L0D0_0
10
7.4
20
119
0
VERTEX
8
L0D0_0
10
7.4
20
109.5
0
VERTEX
8
L0D0_0
10
16.4
20
109.5
0
VERTEX
8
L0D0_0
10
16.4
20
119
0
VERTEX
8
L0D0_0
10
22.8
20
119
0
VERTEX
8
L0D0_0
10
22.8
20
109.5
0
VERTEX
8
L0D0_0
10
30.8
20
109.5
0
VERTEX
8
L0D0_0
10
30.8
20
119
0
VERTEX
8
L0D0_0
10
37.2
20
119
0
VERTEX
8
L0D0_0
10
37.2
20
109.5
0
VERTEX
8
L0D0_0
10
44.2
20
109.5
0
VERTEX
8
L0D0_0
10
44.2
20
119
0
VERTEX
8
L0D0_0
10
50.6
20
119
0
VERTEX
8
L0D0_0
10
50.6
20
109.5
0
VERTEX
8
L0D0_0
10
56.6
20
109.5
0
VERTEX
8
L0D0_0
10
56.6
20
119
0
VERTEX
8
L0D0_0
10
63
20
119
0
VERTEX
8
L0D0_0
10
63
20
109.5
0
VERTEX
8
L0D0_0
10
68
20
109.5
0
VERTEX
8
L0D0_0
10
68
20
119
0
VERTEX
8
L0D0_0
10
74.4
20
119
0
VERTEX
8
L0D0_0
10
74.4
20
109
0
VERTEX
8
L0D0_0
10
83.4
20
109
0
VERTEX
8
L0D0_0
10
83.4
20
119
0
VERTEX
8
L0D0_0
10
89.8
20
119
0
VERTEX
8
L0D0_0
10
89.8
20
109
0
VERTEX
8
L0D0_0
10
97.8
20
109
0
VERTEX
8
L0D0_0
10
97.8
20
119
0
VERTEX
8
L0D0_0
10
104.2
20
119
0
VERTEX
8
L0D0_0
10
104.2
20
109
0
VERTEX
8
L0D0_0
10
111.2
20
109
0
VERTEX
8
L0D0_0
10
111.2
20
119
0
VERTEX
8
L0D0_0
10
117.6
20
119
0
VERTEX
8
L0D0_0
10
117.6
20
109
0
VERTEX
8
L0D0_0
10
123.6
20
109
0
VERTEX
8
L0D0_0
10
123.6
20
119
0
VERTEX
8
L0D0_0
10
130
20
119
0
VERTEX
8
L0D0_0
10
130
20
109
0
VERTEX
8
L0D0_0
10
135
20
109
0
VERTEX
8
L0D0_0
10
135
20
119
0
VERTEX
8
L0D0_0
10
141.4
20
119
0
VERTEX
8
L0D0_0
10
141.4
20
108.5
0
VERTEX
8
L0D0_0
10
150.4
20
108.5
0
VERTEX
8
L0D0_0
10
150.4
20
119
0
VERTEX
8
L0D0_0
10
156.8
20
119
0
VERTEX
8
L0D0_0
10
156.8
20
108.5
0
VERTEX
8
L0D0_0
10
164.8
20
108.5
0
VERTEX
8
L0D0_0
10
164.8
20
119
0
VERTEX
8
L0D0_0
10
171.2
20
119
0
VERTEX
8
L0D0_0
10
171.2
20
108.5
0
VERTEX
8
L0D0_0
10
178.2
20
108.5
0
VERTEX
8
L0D0_0
10
178.2
20
119
0
VERTEX
8
L0D0_0
10
184.6
20
119
0
VERTEX
8
L0D0_0
10
184.6
20
108.5
0
VERTEX
8
L0D0_0
10
190.6
20
108.5
0
VERTEX
8
L0D0_0
10
190.6
20
119
0
VERTEX
8
L0D0_0
10
197
20
119
0
VERTEX
8
L0D0_0
10
197
20
108.5
0
VERTEX
8
L0D0_0
10
202
20
108.5
0
VERTEX
8
L0D0_0
10
202
20
119
0
VERTEX
8
L0D0_0
10
0
20
119
0
VERTEX
8
L0D0_0
10
0
20
135
0
VERTEX
8
L0D0_0
10
7.4
20
135
0
VERTEX
8
L0D0_0
10
7.4
20
123
0
VERTEX
8
L0D0_0
10
16.4
20
123
0
VERTEX
8
L0D0_0
10
16.4
20
135
0
VERTEX
8
L0D0_0
10
22.8
20
135
0
VERTEX
8
L0D0_0
10
22.8
20
123
0
VERTEX
8
L0D0_0
10
30.8
20
123
0
VERTEX
8
L0D0_0
10
30.8
20
135
0
VERTEX
8
L0D0_0
10
37.2
20
135
0
VERTEX
8
L0D0_0
10
37.2
20
123
0
VERTEX
8
L0D0_0
10
44.2
20
123
0
VERTEX
8
L0D0_0
10
44.2
20
135
0
VERTEX
8
L0D0_0
10
50.6
20
135
0
VERTEX
8
L0D0_0
10
50.6
20
123
0
VERTEX
8
L0D0_0
10
56.6
20
123
0
VERTEX
8
L0D0_0
10
56.6
20
135
0
VERTEX
8
L0D0_0
10
63
20
135
0
VERTEX
8
L0D0_0
10
63
20
123
0
VERTEX
8
L0D0_0
10
68
20
123
0
VERTEX
8
L0D0_0
10
68
20
135
0
VERTEX
8
L0D0_0
10
74.4
20
135
0
VERTEX
8
L0D0_0
10
74.4
20
123
0
VERTEX
8
L0D0_0
10
83.4
20
123
0
VERTEX
8
L0D0_0
10
83.4
20
135
0
VERTEX
8
L0D0_0
10
89.8
20
135
0
VERTEX
8
L0D0_0
10
89.8
20
123
0
VERTEX
8
L0D0_0
10
97.8
20
123
0
VERTEX
8
L0D0_0
10
97.8
20
135
0
VERTEX
8
L0D0_0
10
104.2
20
135
0
VERTEX
8
L0D0_0
10
104.2
20
123
0
VERTEX
8
L0D0_0
10
111.2
20
123
0
VERTEX
8
L0D0_0
10
111.2
20
135
0
VERTEX
8
L0D0_0
10
117.6
20
135
0
VERTEX
8
L0D0_0
10
117.6
20
123
0
VERTEX
8
L0D0_0
10
123.6
20
123
0
VERTEX
8
L0D0_0
10
123.6
20
135
0
VERTEX
8
L0D0_0
10
130
20
135
0
VERTEX
8
L0D0_0
10
130
20
123
0
VERTEX
8
L0D0_0
10
135
20
123
0
VERTEX
8
L0D0_0
10
135
20
135
0
VERTEX
8
L0D0_0
10
141.4
20
135
0
VERTEX
8
L0D0_0
10
141.4
20
122.5
0
VERTEX
8
L0D0_0
10
150.4
20
122.5
0
VERTEX
8
L0D0_0
10
150.4
20
135
0
VERTEX
8
L0D0_0
10
156.8
20
135
0
VERTEX
8
L0D0_0
10
156.8
20
122.5
0
VERTEX
8
L0D0_0
10
164.8
20
122.5
0
VERTEX
8
L0D0_0
10
164.8
20
135
0
VERTEX
8
L0D0_0
10
171.2
20
135
0
VERTEX
8
L0D0_0
10
171.2
20
122.5
0
VERTEX
8
L0D0_0
10
178.2
20
122.5
0
VERTEX
8
L0D0_0
10
178.2
20
135
0
VERTEX
8
L0D0_0
10
184.6
20
135
0
VERTEX
8
L0D0_0
10
184.6
20
122.5
0
VERTEX
8
L0D0_0
10
190.6
20
122.5
0
VERTEX
8
L0D0_0
10
190.6
20
135
0
VERTEX
8
L0D0_0
10
197
20
135
0
VERTEX
8
L0D0_0
10
197
20
122.5
0
VERTEX
8
L0D0_0
10
202
20
122.5
0
VERTEX
8
L0D0_0
10
202
20
135
0
VERTEX
8
L0D0_0
10
0
20
135
0
VERTEX
8
L0D0_0
10
0
20
148.5
0
VERTEX
8
L0D0_0
10
7.4
20
148.5
0
VERTEX
8
L0D0_0
10
7.4
20
139
0
VERTEX
8
L0D0_0
10
16.4
20
139
0
VERTEX
8
L0D0_0
10
16.4
20
148.5
0
VERTEX
8
L0D0_0
10
22.8
20
148.5
0
VERTEX
8
L0D0_0
10
22.8
20
139
0
VERTEX
8
L0D0_0
10
30.8
20
139
0
VERTEX
8
L0D0_0
10
30.8
20
148.5
0
VERTEX
8
L0D0_0
10
37.2
20
148.5
0
VERTEX
8
L0D0_0
10
37.2
20
139
0
VERTEX
8
L0D0_0
10
44.2
20
139
0
VERTEX
8
L0D0_0
10
44.2
20
148.5
0
VERTEX
8
L0D0_0
10
50.6
20
148.5
0
VERTEX
8
L0D0_0
10
50.6
20
139
0
VERTEX
8
L0D0_0
10
56.6
20
139
0
VERTEX
8
L0D0_0
10
56.6
20
148.5
0
VERTEX
8
L0D0_0
10
62.685
20
148.5
0
VERTEX
8
L0D0_0
10
62.685
20
139
0
VERTEX
8
L0D0_0
10
68
20
139
0
VERTEX
8
L0D0_0
10
68
20
148.5
0
VERTEX
8
L0D0_0
10
74.4
20
148.5
0
VERTEX
8
L0D0_0
10
74.4
20
138.5
0
VERTEX
8
L0D0_0
10
83.4
20
138.5
0
VERTEX
8
L0D0_0
10
83.4
20
148.5
0
VERTEX
8
L0D0_0
10
89.8
20
148.5
0
VERTEX
8
L0D0_0
10
89.8
20
138.5
0
VERTEX
8
L0D0_0
10
97.8
20
138.5
0
VERTEX
8
L0D0_0
10
97.8
20
148.5
0
VERTEX
8
L0D0_0
10
104.2
20
148.5
0
VERTEX
8
L0D0_0
10
104.2
20
138.5
0
VERTEX
8
L0D0_0
10
111.2
20
138.5
0
VERTEX
8
L0D0_0
10
111.2
20
148.5
0
VERTEX
8
L0D0_0
10
117.6
20
148.5
0
VERTEX
8
L0D0_0
10
117.6
20
138.5
0
VERTEX
8
L0D0_0
10
123.6
20
138.5
0
VERTEX
8
L0D0_0
10
123.6
20
148.5
0
VERTEX
8
L0D0_0
10
130
20
148.5
0
VERTEX
8
L0D0_0
10
130
20
138.5
0
VERTEX
8
L0D0_0
10
135
20
138.5
0
VERTEX
8
L0D0_0
10
135
20
148.5
0
VERTEX
8
L0D0_0
10
141.4
20
148.5
0
VERTEX
8
L0D0_0
10
141.4
20
138
0
VERTEX
8
L0D0_0
10
150.4
20
138
0
VERTEX
8
L0D0_0
10
150.4
20
148.5
0
VERTEX
8
L0D0_0
10
156.8
20
148.5
0
VERTEX
8
L0D0_0
10
156.8
20
138
0
VERTEX
8
L0D0_0
10
164.8
20
138
0
VERTEX
8
L0D0_0
10
164.8
20
148.5
0
VERTEX
8
L0D0_0
10
171.2
20
148.5
0
VERTEX
8
L0D0_0
10
171.2
20
138
0
VERTEX
8
L0D0_0
10
178.2
20
138
0
VERTEX
8
L0D0_0
10
178.2
20
148.5
0
VERTEX
8
L0D0_0
10
184.6
20
148.5
0
VERTEX
8
L0D0_0
10
184.6
20
138
0
VERTEX
8
L0D0_0
10
190.6
20
138
0
VERTEX
8
L0D0_0
10
190.6
20
148.5
0
VERTEX
8
L0D0_0
10
197
20
148.5
0
VERTEX
8
L0D0_0
10
197
20
138
0
VERTEX
8
L0D0_0
10
202
20
138
0
VERTEX
8
L0D0_0
10
202
20
148.5
0
VERTEX
8
L0D0_0
10
0
20
148.5
0
VERTEX
8
L0D0_0
10
0
20
164.5
0
VERTEX
8
L0D0_0
10
7.4
20
164.5
0
VERTEX
8
L0D0_0
10
7.4
20
152.5
0
VERTEX
8
L0D0_0
10
16.4
20
152.5
0
VERTEX
8
L0D0_0
10
16.4
20
164.5
0
VERTEX
8
L0D0_0
10
22.8
20
164.5
0
VERTEX
8
L0D0_0
10
22.8
20
152.5
0
VERTEX
8
L0D0_0
10
30.8
20
152.5
0
VERTEX
8
L0D0_0
10
30.8
20
164.5
0
VERTEX
8
L0D0_0
10
37.2
20
164.5
0
VERTEX
8
L0D0_0
10
37.2
20
152.5
0
VERTEX
8
L0D0_0
10
44.2
20
152.5
0
VERTEX
8
L0D0_0
10
44.2
20
164.5
0
VERTEX
8
L0D0_0
10
50.6
20
164.5
0
VERTEX
8
L0D0_0
10
50.6
20
152.5
0
VERTEX
8
L0D0_0
10
56.6
20
152.5
0
VERTEX
8
L0D0_0
10
56.6
20
164.5
0
VERTEX
8
L0D0_0
10
62.685
20
164.5
0
VERTEX
8
L0D0_0
10
62.685
20
152.5
0
VERTEX
8
L0D0_0
10
68
20
152.5
0
VERTEX
8
L0D0_0
10
68
20
164.5
0
VERTEX
8
L0D0_0
10
74.4
20
164.5
0
VERTEX
8
L0D0_0
10
74.4
20
152.5
0
VERTEX
8
L0D0_0
10
83.4
20
152.5
0
VERTEX
8
L0D0_0
10
83.4
20
164.5
0
VERTEX
8
L0D0_0
10
89.8
20
164.5
0
VERTEX
8
L0D0_0
10
89.8
20
152.5
0
VERTEX
8
L0D0_0
10
97.8
20
152.5
0
VERTEX
8
L0D0_0
10
97.8
20
164.5
0
VERTEX
8
L0D0_0
10
104.2
20
164.5
0
VERTEX
8
L0D0_0
10
104.2
20
152.5
0
VERTEX
8
L0D0_0
10
111.2
20
152.5
0
VERTEX
8
L0D0_0
10
111.2
20
164.5
0
VERTEX
8
L0D0_0
10
117.6
20
164.5
0
VERTEX
8
L0D0_0
10
117.6
20
152.5
0
VERTEX
8
L0D0_0
10
123.6
20
152.5
0
VERTEX
8
L0D0_0
10
123.6
20
164.5
0
VERTEX
8
L0D0_0
10
130
20
164.5
0
VERTEX
8
L0D0_0
10
130
20
152.5
0
VERTEX
8
L0D0_0
10
135
20
152.5
0
VERTEX
8
L0D0_0
10
135
20
164.5
0
VERTEX
8
L0D0_0
10
141.4
20
164.5
0
VERTEX
8
L0D0_0
10
141.4
20
152
0
VERTEX
8
L0D0_0
10
150.4
20
152
0
VERTEX
8
L0D0_0
10
150.4
20
164.5
0
VERTEX
8
L0D0_0
10
156.8
20
164.5
0
VERTEX
8
L0D0_0
10
156.8
20
152
0
VERTEX
8
L0D0_0
10
164.8
20
152
0
VERTEX
8
L0D0_0
10
164.8
20
164.5
0
VERTEX
8
L0D0_0
10
171.2
20
164.5
0
VERTEX
8
L0D0_0
10
171.2
20
152
0
VERTEX
8
L0D0_0
10
178.2
20
152
0
VERTEX
8
L0D0_0
10
178.2
20
164.5
0
VERTEX
8
L0D0_0
10
184.6
20
164.5
0
VERTEX
8
L0D0_0
10
184.6
20
152
0
VERTEX
8
L0D0_0
10
190.6
20
152
0
VERTEX
8
L0D0_0
10
190.6
20
164.5
0
VERTEX
8
L0D0_0
10
197
20
164.5
0
VERTEX
8
L0D0_0
10
197
20
152
0
VERTEX
8
L0D0_0
10
202
20
152
0
VERTEX
8
L0D0_0
10
202
20
164.5
0
VERTEX
8
L0D0_0
10
0
20
164.5
0
VERTEX
8
L0D0_0
10
0
20
178
0
VERTEX
8
L0D0_0
10
7.4
20
178
0
VERTEX
8
L0D0_0
10
7.4
20
168.5
0
VERTEX
8
L0D0_0
10
16.4
20
168.5
0
VERTEX
8
L0D0_0
10
16.4
20
178
0
VERTEX
8
L0D0_0
10
22.8
20
178
0
VERTEX
8
L0D0_0
10
22.8
20
168.5
0
VERTEX
8
L0D0_0
10
30.8
20
168.5
0
VERTEX
8
L0D0_0
10
30.8
20
178
0
VERTEX
8
L0D0_0
10
37.2
20
178
0
VERTEX
8
L0D0_0
10
37.2
20
168.5
0
VERTEX
8
L0D0_0
10
44.2
20
168.5
0
VERTEX
8
L0D0_0
10
44.2
20
178
0
VERTEX
8
L0D0_0
10
50.6
20
178
0
VERTEX
8
L0D0_0
10
50.6
20
168.5
0
VERTEX
8
L0D0_0
10
56.6
20
168.5
0
VERTEX
8
L0D0_0
10
56.6
20
178
0
VERTEX
8
L0D0_0
10
62.685
20
178
0
VERTEX
8
L0D0_0
10
62.685
20
168.5
0
VERTEX
8
L0D0_0
10
68
20
168.5
0
VERTEX
8
L0D0_0
10
68
20
178
0
VERTEX
8
L0D0_0
10
74.4
20
178
0
VERTEX
8
L0D0_0
10
74.4
20
168
0
VERTEX
8
L0D0_0
10
83.4
20
168
0
VERTEX
8
L0D0_0
10
83.4
20
178
0
VERTEX
8
L0D0_0
10
89.8
20
178
0
VERTEX
8
L0D0_0
10
89.8
20
168
0
VERTEX
8
L0D0_0
10
97.8
20
168
0
VERTEX
8
L0D0_0
10
97.8
20
178
0
VERTEX
8
L0D0_0
10
104.2
20
178
0
VERTEX
8
L0D0_0
10
104.2
20
168
0
VERTEX
8
L0D0_0
10
111.2
20
168
0
VERTEX
8
L0D0_0
10
111.2
20
178
0
VERTEX
8
L0D0_0
10
117.6
20
178
0
VERTEX
8
L0D0_0
10
117.6
20
168
0
VERTEX
8
L0D0_0
10
123.6
20
168
0
VERTEX
8
L0D0_0
10
123.6
20
178
0
VERTEX
8
L0D0_0
10
130
20
178
0
VERTEX
8
L0D0_0
10
130
20
168
0
VERTEX
8
L0D0_0
10
135
20
168
0
VERTEX
8
L0D0_0
10
135
20
178
0
VERTEX
8
L0D0_0
10
141.4
20
178
0
VERTEX
8
L0D0_0
10
141.4
20
167.5
0
VERTEX
8
L0D0_0
10
150.4
20
167.5
0
VERTEX
8
L0D0_0
10
150.4
20
178
0
VERTEX
8
L0D0_0
10
156.8
20
178
0
VERTEX
8
L0D0_0
10
156.8
20
167.5
0
VERTEX
8
L0D0_0
10
164.8
20
167.5
0
VERTEX
8
L0D0_0
10
164.8
20
178
0
VERTEX
8
L0D0_0
10
171.2
20
178
0
VERTEX
8
L0D0_0
10
171.2
20
167.5
0
VERTEX
8
L0D0_0
10
178.2
20
167.5
0
VERTEX
8
L0D0_0
10
178.2
20
178
0
VERTEX
8
L0D0_0
10
184.6
20
178
0
VERTEX
8
L0D0_0
10
184.6
20
167.5
0
VERTEX
8
L0D0_0
10
190.6
20
167.5
0
VERTEX
8
L0D0_0
10
190.6
20
178
0
VERTEX
8
L0D0_0
10
197
20
178
0
VERTEX
8
L0D0_0
10
197
20
167.5
0
VERTEX
8
L0D0_0
10
202
20
167.5
0
VERTEX
8
L0D0_0
10
202
20
178
0
VERTEX
8
L0D0_0
10
0
20
178
0
VERTEX
8
L0D0_0
10
0
20
194
0
VERTEX
8
L0D0_0
10
7.4
20
194
0
VERTEX
8
L0D0_0
10
7.4
20
182
0
VERTEX
8
L0D0_0
10
16.4
20
182
0
VERTEX
8
L0D0_0
10
16.4
20
194
0
VERTEX
8
L0D0_0
10
22.8
20
194
0
VERTEX
8
L0D0_0
10
22.8
20
182
0
VERTEX
8
L0D0_0
10
30.8
20
182
0
VERTEX
8
L0D0_0
10
30.8
20
194
0
VERTEX
8
L0D0_0
10
37.2
20
194
0
VERTEX
8
L0D0_0
10
37.2
20
182
0
VERTEX
8
L0D0_0
10
44.2
20
182
0
VERTEX
8
L0D0_0
10
44.2
20
194
0
VERTEX
8
L0D0_0
10
50.6
20
194
0
VERTEX
8
L0D0_0
10
50.6
20
182
0
VERTEX
8
L0D0_0
10
56.6
20
182
0
VERTEX
8
L0D0_0
10
56.6
20
194
0
VERTEX
8
L0D0_0
10
62.685
20
194
0
VERTEX
8
L0D0_0
10
62.685
20
182
0
VERTEX
8
L0D0_0
10
68
20
182
0
VERTEX
8
L0D0_0
10
68
20
194
0
VERTEX
8
L0D0_0
10
74.4
20
194
0
VERTEX
8
L0D0_0
10
74.4
20
182
0
VERTEX
8
L0D0_0
10
83.4
20
182
0
VERTEX
8
L0D0_0
10
83.4
20
194
0
VERTEX
8
L0D0_0
10
89.8
20
194
0
VERTEX
8
L0D0_0
10
89.8
20
182
0
VERTEX
8
L0D0_0
10
97.8
20
182
0
VERTEX
8
L0D0_0
10
97.8
20
194
0
VERTEX
8
L0D0_0
10
104.2
20
194
0
VERTEX
8
L0D0_0
10
104.2
20
182
0
VERTEX
8
L0D0_0
10
111.2
20
182
0
VERTEX
8
L0D0_0
10
111.2
20
194
0
VERTEX
8
L0D0_0
10
117.6
20
194
0
VERTEX
8
L0D0_0
10
117.6
20
182
0
VERTEX
8
L0D0_0
10
123.6
20
182
0
VERTEX
8
L0D0_0
10
123.6
20
194
0
VERTEX
8
L0D0_0
10
130
20
194
0
VERTEX
8
L0D0_0
10
130
20
182
0
VERTEX
8
L0D0_0
10
135
20
182
0
VERTEX
8
L0D0_0
10
135
20
194
0
VERTEX
8
L0D0_0
10
141.4
20
194
0
VERTEX
8
L0D0_0
10
141.4
20
182
0
VERTEX
8
L0D0_0
10
150.4
20
182
0
VERTEX
8
L0D0_0
10
150.4
20
194
0
VERTEX
8
L0D0_0
10
156.8
20
194
0
VERTEX
8
L0D0_0
10
156.8
20
182
0
VERTEX
8
L0D0_0
10
164.8
20
182
0
VERTEX
8
L0D0_0
10
164.8
20
194
0
VERTEX
8
L0D0_0
10
171.2
20
194
0
VERTEX
8
L0D0_0
10
171.2
20
182
0
VERTEX
8
L0D0_0
10
178.2
20
182
0
VERTEX
8
L0D0_0
10
178.2
20
194
0
VERTEX
8
L0D0_0
10
184.6
20
194
0
VERTEX
8
L0D0_0
10
184.6
20
182
0
VERTEX
8
L0D0_0
10
190.6
20
182
0
VERTEX
8
L0D0_0
10
190.6
20
194
0
VERTEX
8
L0D0_0
10
197
20
194
0
VERTEX
8
L0D0_0
10
197
20
182
0
VERTEX
8
L0D0_0
10
202
20
182
0
VERTEX
8
L0D0_0
10
202
20
194
0
VERTEX
8
L0D0_0
10
0
20
194
0
VERTEX
8
L0D0_0
10
0
20
207.5
0
VERTEX
8
L0D0_0
10
7.4
20
207.5
0
VERTEX
8
L0D0_0
10
7.4
20
198
0
VERTEX
8
L0D0_0
10
16.4
20
198
0
VERTEX
8
L0D0_0
10
16.4
20
207.5
0
VERTEX
8
L0D0_0
10
22.8
20
207.5
0
VERTEX
8
L0D0_0
10
22.8
20
198
0
VERTEX
8
L0D0_0
10
30.8
20
198
0
VERTEX
8
L0D0_0
10
30.8
20
207.5
0
VERTEX
8
L0D0_0
10
37.2
20
207.5
0
VERTEX
8
L0D0_0
10
37.2
20
198
0
VERTEX
8
L0D0_0
10
44.2
20
198
0
VERTEX
8
L0D0_0
10
44.2
20
207.5
0
VERTEX
8
L0D0_0
10
50.6
20
207.5
0
VERTEX
8
L0D0_0
10
50.6
20
198
0
VERTEX
8
L0D0_0
10
56.6
20
198
0
VERTEX
8
L0D0_0
10
56.6
20
207.5
0
VERTEX
8
L0D0_0
10
62.685
20
207.5
0
VERTEX
8
L0D0_0
10
62.685
20
198
0
VERTEX
8
L0D0_0
10
68
20
198
0
VERTEX
8
L0D0_0
10
68
20
207.5
0
VERTEX
8
L0D0_0
10
74.4
20
207.5
0
VERTEX
8
L0D0_0
10
74.4
20
197.5
0
VERTEX
8
L0D0_0
10
83.4
20
197.5
0
VERTEX
8
L0D0_0
10
83.4
20
207.5
0
VERTEX
8
L0D0_0
10
89.8
20
207.5
0
VERTEX
8
L0D0_0
10
89.8
20
197.5
0
VERTEX
8
L0D0_0
10
97.8
20
197.5
0
VERTEX
8
L0D0_0
10
97.8
20
207.5
0
VERTEX
8
L0D0_0
10
104.2
20
207.5
0
VERTEX
8
L0D0_0
10
104.2
20
197.5
0
VERTEX
8
L0D0_0
10
111.2
20
197.5
0
VERTEX
8
L0D0_0
10
111.2
20
207.5
0
VERTEX
8
L0D0_0
10
117.6
20
207.5
0
VERTEX
8
L0D0_0
10
117.6
20
197.5
0
VERTEX
8
L0D0_0
10
123.6
20
197.5
0
VERTEX
8
L0D0_0
10
123.6
20
207.5
0
VERTEX
8
L0D0_0
10
130
20
207.5
0
VERTEX
8
L0D0_0
10
130
20
197.5
0
VERTEX
8
L0D0_0
10
135
20
197.5
0
VERTEX
8
L0D0_0
10
135
20
207.5
0
VERTEX
8
L0D0_0
10
141.4
20
207.5
0
VERTEX
8
L0D0_0
10
141.4
20
197
0
VERTEX
8
L0D0_0
10
150.4
20
197
0
VERTEX
8
L0D0_0
10
150.4
20
207.5
0
VERTEX
8
L0D0_0
10
156.8
20
207.5
0
VERTEX
8
L0D0_0
10
156.8
20
197
0
VERTEX
8
L0D0_0
10
164.8
20
197
0
VERTEX
8
L0D0_0
10
164.8
20
207.5
0
VERTEX
8
L0D0_0
10
171.2
20
207.5
0
VERTEX
8
L0D0_0
10
171.2
20
197
0
VERTEX
8
L0D0_0
10
178.2
20
197
0
VERTEX
8
L0D0_0
10
178.2
20
207.5
0
VERTEX
8
L0D0_0
10
184.6
20
207.5
0
VERTEX
8
L0D0_0
10
184.6
20
197
0
VERTEX
8
L0D0_0
10
190.6
20
197
0
VERTEX
8
L0D0_0
10
190.6
20
207.5
0
VERTEX
8
L0D0_0
10
197
20
207.5
0
VERTEX
8
L0D0_0
10
197
20
197
0
VERTEX
8
L0D0_0
10
202
20
197
0
VERTEX
8
L0D0_0
10
202
20
207.5
0
VERTEX
8
L0D0_0
10
0
20
207.5
0
VERTEX
8
L0D0_0
10
0
20
223.5
0
VERTEX
8
L0D0_0
10
7.4
20
223.5
0
VERTEX
8
L0D0_0
10
7.4
20
211.5
0
VERTEX
8
L0D0_0
10
16.4
20
211.5
0
VERTEX
8
L0D0_0
10
16.4
20
223.5
0
VERTEX
8
L0D0_0
10
22.8
20
223.5
0
VERTEX
8
L0D0_0
10
22.8
20
211.5
0
VERTEX
8
L0D0_0
10
30.8
20
211.5
0
VERTEX
8
L0D0_0
10
30.8
20
223.5
0
VERTEX
8
L0D0_0
10
37.2
20
223.5
0
VERTEX
8
L0D0_0
10
37.2
20
211.5
0
VERTEX
8
L0D0_0
10
44.2
20
211.5
0
VERTEX
8
L0D0_0
10
44.2
20
223.5
0
VERTEX
8
L0D0_0
10
50.6
20
223.5
0
VERTEX
8
L0D0_0
10
50.6
20
211.5
0
VERTEX
8
L0D0_0
10
56.6
20
211.5
0
VERTEX
8
L0D0_0
10
56.6
20
223.5
0
VERTEX
8
L0D0_0
10
62.685
20
223.5
0
VERTEX
8
L0D0_0
10
62.685
20
211.5
0
VERTEX
8
L0D0_0
10
68
20
211.5
0
VERTEX
8
L0D0_0
10
68
20
223.5
0
VERTEX
8
L0D0_0
10
74.4
20
223.5
0
VERTEX
8
L0D0_0
10
74.4
20
211.5
0
VERTEX
8
L0D0_0
10
83.4
20
211.5
0
VERTEX
8
L0D0_0
10
83.4
20
223.5
0
VERTEX
8
L0D0_0
10
89.8
20
223.5
0
VERTEX
8
L0D0_0
10
89.8
20
211.5
0
VERTEX
8
L0D0_0
10
97.8
20
211.5
0
VERTEX
8
L0D0_0
10
97.8
20
223.5
0
VERTEX
8
L0D0_0
10
104.2
20
223.5
0
VERTEX
8
L0D0_0
10
104.2
20
211.5
0
VERTEX
8
L0D0_0
10
111.2
20
211.5
0
VERTEX
8
L0D0_0
10
111.2
20
223.5
0
VERTEX
8
L0D0_0
10
117.6
20
223.5
0
VERTEX
8
L0D0_0
10
117.6
20
211.5
0
VERTEX
8
L0D0_0
10
123.6
20
211.5
0
VERTEX
8
L0D0_0
10
123.6
20
223.5
0
VERTEX
8
L0D0_0
10
130
20
223.5
0
VERTEX
8
L0D0_0
10
130
20
211.5
0
VERTEX
8
L0D0_0
10
135
20
211.5
0
VERTEX
8
L0D0_0
10
135
20
223.5
0
VERTEX
8
L0D0_0
10
141.4
20
223.5
0
VERTEX
8
L0D0_0
10
141.4
20
211.5
0
VERTEX
8
L0D0_0
10
150.4
20
211.5
0
VERTEX
8
L0D0_0
10
150.4
20
223.5
0
VERTEX
8
L0D0_0
10
156.8
20
223.5
0
VERTEX
8
L0D0_0
10
156.8
20
211.5
0
VERTEX
8
L0D0_0
10
164.8
20
211.5
0
VERTEX
8
L0D0_0
10
164.8
20
223.5
0
VERTEX
8
L0D0_0
10
171.2
20
223.5
0
VERTEX
8
L0D0_0
10
171.2
20
211.5
0
VERTEX
8
L0D0_0
10
178.2
20
211.5
0
VERTEX
8
L0D0_0
10
178.2
20
223.5
0
VERTEX
8
L0D0_0
10
184.6
20
223.5
0
VERTEX
8
L0D0_0
10
184.6
20
211.5
0
VERTEX
8
L0D0_0
10
190.6
20
211.5
0
VERTEX
8
L0D0_0
10
190.6
20
223.5
0
VERTEX
8
L0D0_0
10
197
20
223.5
0
VERTEX
8
L0D0_0
10
197
20
211.5
0
VERTEX
8
L0D0_0
10
202
20
211.5
0
VERTEX
8
L0D0_0
10
202
20
223.5
0
VERTEX
8
L0D0_0
10
0
20
223.5
0
VERTEX
8
L0D0_0
10
0
20
237
0
VERTEX
8
L0D0_0
10
7.4
20
237
0
VERTEX
8
L0D0_0
10
7.4
20
227.5
0
VERTEX
8
L0D0_0
10
16.4
20
227.5
0
VERTEX
8
L0D0_0
10
16.4
20
237
0
VERTEX
8
L0D0_0
10
22.8
20
237
0
VERTEX
8
L0D0_0
10
22.8
20
227.5
0
VERTEX
8
L0D0_0
10
30.8
20
227.5
0
VERTEX
8
L0D0_0
10
30.8
20
237
0
VERTEX
8
L0D0_0
10
37.2
20
237
0
VERTEX
8
L0D0_0
10
37.2
20
227.5
0
VERTEX
8
L0D0_0
10
44.2
20
227.5
0
VERTEX
8
L0D0_0
10
44.2
20
237
0
VERTEX
8
L0D0_0
10
50.6
20
237
0
VERTEX
8
L0D0_0
10
50.6
20
227.5
0
VERTEX
8
L0D0_0
10
56.6
20
227.5
0
VERTEX
8
L0D0_0
10
56.6
20
237
0
VERTEX
8
L0D0_0
10
62.685
20
237
0
VERTEX
8
L0D0_0
10
62.685
20
227.5
0
VERTEX
8
L0D0_0
10
68
20
227.5
0
VERTEX
8
L0D0_0
10
68
20
237
0
VERTEX
8
L0D0_0
10
74.4
20
237
0
VERTEX
8
L0D0_0
10
74.4
20
227
0
VERTEX
8
L0D0_0
10
83.4
20
227
0
VERTEX
8
L0D0_0
10
83.4
20
237
0
VERTEX
8
L0D0_0
10
89.8
20
237
0
VERTEX
8
L0D0_0
10
89.8
20
227
0
VERTEX
8
L0D0_0
10
97.8
20
227
0
VERTEX
8
L0D0_0
10
97.8
20
237
0
VERTEX
8
L0D0_0
10
104.2
20
237
0
VERTEX
8
L0D0_0
10
104.2
20
227
0
VERTEX
8
L0D0_0
10
111.2
20
227
0
VERTEX
8
L0D0_0
10
111.2
20
237
0
VERTEX
8
L0D0_0
10
117.6
20
237
0
VERTEX
8
L0D0_0
10
117.6
20
227
0
VERTEX
8
L0D0_0
10
123.6
20
227
0
VERTEX
8
L0D0_0
10
123.6
20
237
0
VERTEX
8
L0D0_0
10
130
20
237
0
VERTEX
8
L0D0_0
10
130
20
227
0
VERTEX
8
L0D0_0
10
135
20
227
0
VERTEX
8
L0D0_0
10
135
20
237
0
VERTEX
8
L0D0_0
10
141.4
20
237
0
VERTEX
8
L0D0_0
10
141.4
20
226.5
0
VERTEX
8
L0D0_0
10
150.4
20
226.5
0
VERTEX
8
L0D0_0
10
150.4
20
237
0
VERTEX
8
L0D0_0
10
156.8
20
237
0
VERTEX
8
L0D0_0
10
156.8
20
226.5
0
VERTEX
8
L0D0_0
10
164.8
20
226.5
0
VERTEX
8
L0D0_0
10
164.8
20
237
0
VERTEX
8
L0D0_0
10
171.2
20
237
0
VERTEX
8
L0D0_0
10
171.2
20
226.5
0
VERTEX
8
L0D0_0
10
178.2
20
226.5
0
VERTEX
8
L0D0_0
10
178.2
20
237
0
VERTEX
8
L0D0_0
10
184.6
20
237
0
VERTEX
8
L0D0_0
10
184.6
20
226.5
0
VERTEX
8
L0D0_0
10
190.6
20
226.5
0
VERTEX
8
L0D0_0
10
190.6
20
237
0
VERTEX
8
L0D0_0
10
197
20
237
0
VERTEX
8
L0D0_0
10
197
20
226.5
0
VERTEX
8
L0D0_0
10
202
20
226.5
0
VERTEX
8
L0D0_0
10
202
20
237
0
VERTEX
8
L0D0_0
10
0
20
237
0
VERTEX
8
L0D0_0
10
0
20
253
0
VERTEX
8
L0D0_0
10
7.4
20
253
0
VERTEX
8
L0D0_0
10
7.4
20
241
0
VERTEX
8
L0D0_0
10
16.4
20
241
0
VERTEX
8
L0D0_0
10
16.4
20
253
0
VERTEX
8
L0D0_0
10
22.8
20
253
0
VERTEX
8
L0D0_0
10
22.8
20
241
0
VERTEX
8
L0D0_0
10
30.8
20
241
0
VERTEX
8
L0D0_0
10
30.8
20
253
0
VERTEX
8
L0D0_0
10
37.2
20
253
0
VERTEX
8
L0D0_0
10
37.2
20
241
0
VERTEX
8
L0D0_0
10
44.2
20
241
0
VERTEX
8
L0D0_0
10
44.2
20
253
0
VERTEX
8
L0D0_0
10
50.6
20
253
0
VERTEX
8
L0D0_0
10
50.6
20
241
0
VERTEX
8
L0D0_0
10
56.6
20
241
0
VERTEX
8
L0D0_0
10
56.6
20
253
0
VERTEX
8
L0D0_0
10
62.685
20
253
0
VERTEX
8
L0D0_0
10
62.685
20
241
0
VERTEX
8
L0D0_0
10
68
20
241
0
VERTEX
8
L0D0_0
10
68
20
253
0
VERTEX
8
L0D0_0
10
74.4
20
253
0
VERTEX
8
L0D0_0
10
74.4
20
241
0
VERTEX
8
L0D0_0
10
83.4
20
241
0
VERTEX
8
L0D0_0
10
83.4
20
253
0
VERTEX
8
L0D0_0
10
89.8
20
253
0
VERTEX
8
L0D0_0
10
89.8
20
241
0
VERTEX
8
L0D0_0
10
97.8
20
241
0
VERTEX
8
L0D0_0
10
97.8
20
253
0
VERTEX
8
L0D0_0
10
104.2
20
253
0
VERTEX
8
L0D0_0
10
104.2
20
241
0
VERTEX
8
L0D0_0
10
111.2
20
241
0
VERTEX
8
L0D0_0
10
111.2
20
253
0
VERTEX
8
L0D0_0
10
117.6
20
253
0
VERTEX
8
L0D0_0
10
117.6
20
241
0
VERTEX
8
L0D0_0
10
123.6
20
241
0
VERTEX
8
L0D0_0
10
123.6
20
253
0
VERTEX
8
L0D0_0
10
130
20
253
0
VERTEX
8
L0D0_0
10
130
20
241
0
VERTEX
8
L0D0_0
10
135
20
241
0
VERTEX
8
L0D0_0
10
135
20
253
0
VERTEX
8
L0D0_0
10
141.4
20
253
0
VERTEX
8
L0D0_0
10
141.4
20
241
0
VERTEX
8
L0D0_0
10
150.4
20
241
0
VERTEX
8
L0D0_0
10
150.4
20
253
0
VERTEX
8
L0D0_0
10
156.8
20
253
0
VERTEX
8
L0D0_0
10
156.8
20
241
0
VERTEX
8
L0D0_0
10
164.8
20
241
0
VERTEX
8
L0D0_0
10
164.8
20
253
0
VERTEX
8
L0D0_0
10
171.2
20
253
0
VERTEX
8
L0D0_0
10
171.2
20
241
0
VERTEX
8
L0D0_0
10
178.2
20
241
0
VERTEX
8
L0D0_0
10
178.2
20
253
0
VERTEX
8
L0D0_0
10
184.6
20
253
0
VERTEX
8
L0D0_0
10
184.6
20
241
0
VERTEX
8
L0D0_0
10
190.6
20
241
0
VERTEX
8
L0D0_0
10
190.6
20
253
0
VERTEX
8
L0D0_0
10
197
20
253
0
VERTEX
8
L0D0_0
10
197
20
241
0
VERTEX
8
L0D0_0
10
202
20
241
0
VERTEX
8
L0D0_0
10
202
20
253
0
VERTEX
8
L0D0_0
10
0
20
253
0
VERTEX
8
L0D0_0
10
0
20
266.5
0
VERTEX
8
L0D0_0
10
7.4
20
266.5
0
VERTEX
8
L0D0_0
10
7.4
20
257
0
VERTEX
8
L0D0_0
10
16.4
20
257
0
VERTEX
8
L0D0_0
10
16.4
20
266.5
0
VERTEX
8
L0D0_0
10
22.8
20
266.5
0
VERTEX
8
L0D0_0
10
22.8
20
257
0
VERTEX
8
L0D0_0
10
30.8
20
257
0
VERTEX
8
L0D0_0
10
30.8
20
266.5
0
VERTEX
8
L0D0_0
10
37.2
20
266.5
0
VERTEX
8
L0D0_0
10
37.2
20
257
0
VERTEX
8
L0D0_0
10
44.2
20
257
0
VERTEX
8
L0D0_0
10
44.2
20
266.5
0
VERTEX
8
L0D0_0
10
50.6
20
266.5
0
VERTEX
8
L0D0_0
10
50.6
20
257
0
VERTEX
8
L0D0_0
10
56.6
20
257
0
VERTEX
8
L0D0_0
10
56.6
20
266.5
0
VERTEX
8
L0D0_0
10
62.685
20
266.5
0
VERTEX
8
L0D0_0
10
62.685
20
257
0
VERTEX
8
L0D0_0
10
68
20
257
0
VERTEX
8
L0D0_0
10
68
20
266.5
0
VERTEX
8
L0D0_0
10
74.4
20
266.5
0
VERTEX
8
L0D0_0
10
74.4
20
256.5
0
VERTEX
8
L0D0_0
10
83.4
20
256.5
0
VERTEX
8
L0D0_0
10
83.4
20
266.5
0
VERTEX
8
L0D0_0
10
89.8
20
266.5
0
VERTEX
8
L0D0_0
10
89.8
20
256.5
0
VERTEX
8
L0D0_0
10
97.8
20
256.5
0
VERTEX
8
L0D0_0
10
97.8
20
266.5
0
VERTEX
8
L0D0_0
10
104.2
20
266.5
0
VERTEX
8
L0D0_0
10
104.2
20
256.5
0
VERTEX
8
L0D0_0
10
111.2
20
256.5
0
VERTEX
8
L0D0_0
10
111.2
20
266.5
0
VERTEX
8
L0D0_0
10
117.6
20
266.5
0
VERTEX
8
L0D0_0
10
117.6
20
256.5
0
VERTEX
8
L0D0_0
10
123.6
20
256.5
0
VERTEX
8
L0D0_0
10
123.6
20
266.5
0
VERTEX
8
L0D0_0
10
130
20
266.5
0
VERTEX
8
L0D0_0
10
130
20
256.5
0
VERTEX
8
L0D0_0
10
135
20
256.5
0
VERTEX
8
L0D0_0
10
135
20
266.5
0
VERTEX
8
L0D0_0
10
141.4
20
266.5
0
VERTEX
8
L0D0_0
10
141.4
20
256
0
VERTEX
8
L0D0_0
10
150.4
20
256
0
VERTEX
8
L0D0_0
10
150.4
20
266.5
0
VERTEX
8
L0D0_0
10
156.8
20
266.5
0
VERTEX
8
L0D0_0
10
156.8
20
256
0
VERTEX
8
L0D0_0
10
164.8
20
256
0
VERTEX
8
L0D0_0
10
164.8
20
266.5
0
VERTEX
8
L0D0_0
10
171.2
20
266.5
0
VERTEX
8
L0D0_0
10
171.2
20
256
0
VERTEX
8
L0D0_0
10
178.2
20
256
0
VERTEX
8
L0D0_0
10
178.2
20
266.5
0
VERTEX
8
L0D0_0
10
184.6
20
266.5
0
VERTEX
8
L0D0_0
10
184.6
20
256
0
VERTEX
8
L0D0_0
10
190.6
20
256
0
VERTEX
8
L0D0_0
10
190.6
20
266.5
0
VERTEX
8
L0D0_0
10
197
20
266.5
0
VERTEX
8
L0D0_0
10
197
20
256
0
VERTEX
8
L0D0_0
10
202
20
256
0
VERTEX
8
L0D0_0
10
202
20
266.5
0
VERTEX
8
L0D0_0
10
0
20
266.5
0
VERTEX
8
L0D0_0
10
0
20
282.5
0
VERTEX
8
L0D0_0
10
7.4
20
282.5
0
VERTEX
8
L0D0_0
10
7.4
20
270.5
0
VERTEX
8
L0D0_0
10
16.4
20
270.5
0
VERTEX
8
L0D0_0
10
16.4
20
282.5
0
VERTEX
8
L0D0_0
10
22.8
20
282.5
0
VERTEX
8
L0D0_0
10
22.8
20
270.5
0
VERTEX
8
L0D0_0
10
30.8
20
270.5
0
VERTEX
8
L0D0_0
10
30.8
20
282.5
0
VERTEX
8
L0D0_0
10
37.2
20
282.5
0
VERTEX
8
L0D0_0
10
37.2
20
270.5
0
VERTEX
8
L0D0_0
10
44.2
20
270.5
0
VERTEX
8
L0D0_0
10
44.2
20
282.5
0
VERTEX
8
L0D0_0
10
50.6
20
282.5
0
VERTEX
8
L0D0_0
10
50.6
20
270.5
0
VERTEX
8
L0D0_0
10
56.6
20
270.5
0
VERTEX
8
L0D0_0
10
56.6
20
282.5
0
VERTEX
8
L0D0_0
10
62.685
20
282.5
0
VERTEX
8
L0D0_0
10
62.685
20
270.5
0
VERTEX
8
L0D0_0
10
68
20
270.5
0
VERTEX
8
L0D0_0
10
68
20
282.5
0
VERTEX
8
L0D0_0
10
74.4
20
282.5
0
VERTEX
8
L0D0_0
10
74.4
20
270.5
0
VERTEX
8
L0D0_0
10
83.4
20
270.5
0
VERTEX
8
L0D0_0
10
83.4
20
282.5
0
VERTEX
8
L0D0_0
10
89.8
20
282.5
0
VERTEX
8
L0D0_0
10
89.8
20
270.5
0
VERTEX
8
L0D0_0
10
97.8
20
270.5
0
VERTEX
8
L0D0_0
10
97.8
20
282.5
0
VERTEX
8
L0D0_0
10
104.2
20
282.5
0
VERTEX
8
L0D0_0
10
104.2
20
270.5
0
VERTEX
8
L0D0_0
10
111.2
20
270.5
0
VERTEX
8
L0D0_0
10
111.2
20
282.5
0
VERTEX
8
L0D0_0
10
117.6
20
282.5
0
VERTEX
8
L0D0_0
10
117.6
20
270.5
0
VERTEX
8
L0D0_0
10
123.6
20
270.5
0
VERTEX
8
L0D0_0
10
123.6
20
282.5
0
VERTEX
8
L0D0_0
10
130
20
282.5
0
VERTEX
8
L0D0_0
10
130
20
270.5
0
VERTEX
8
L0D0_0
10
135
20
270.5
0
VERTEX
8
L0D0_0
10
135
20
282.5
0
VERTEX
8
L0D0_0
10
141.4
20
282.5
0
VERTEX
8
L0D0_0
10
141.4
20
270.5
0
VERTEX
8
L0D0_0
10
150.4
20
270.5
0
VERTEX
8
L0D0_0
10
150.4
20
282.5
0
VERTEX
8
L0D0_0
10
156.8
20
282.5
0
VERTEX
8
L0D0_0
10
156.8
20
270.5
0
VERTEX
8
L0D0_0
10
164.8
20
270.5
0
VERTEX
8
L0D0_0
10
164.8
20
282.5
0
VERTEX
8
L0D0_0
10
171.2
20
282.5
0
VERTEX
8
L0D0_0
10
171.2
20
270.5
0
VERTEX
8
L0D0_0
10
178.2
20
270.5
0
VERTEX
8
L0D0_0
10
178.2
20
282.5
0
VERTEX
8
L0D0_0
10
184.6
20
282.5
0
VERTEX
8
L0D0_0
10
184.6
20
270.5
0
VERTEX
8
L0D0_0
10
190.6
20
270.5
0
VERTEX
8
L0D0_0
10
190.6
20
282.5
0
VERTEX
8
L0D0_0
10
197
20
282.5
0
VERTEX
8
L0D0_0
10
197
20
270.5
0
VERTEX
8
L0D0_0
10
202
20
270.5
0
VERTEX
8
L0D0_0
10
202
20
282.5
0
VERTEX
8
L0D0_0
10
0
20
282.5
0
VERTEX
8
L0D0_0
10
0
20
296
0
VERTEX
8
L0D0_0
10
7.4
20
296
0
VERTEX
8
L0D0_0
10
7.4
20
286.5
0
VERTEX
8
L0D0_0
10
16.4
20
286.5
0
VERTEX
8
L0D0_0
10
16.4
20
296
0
VERTEX
8
L0D0_0
10
22.8
20
296
0
VERTEX
8
L0D0_0
10
22.8
20
286.5
0
VERTEX
8
L0D0_0
10
30.8
20
286.5
0
VERTEX
8
L0D0_0
10
30.8
20
296
0
VERTEX
8
L0D0_0
10
37.2
20
296
0
VERTEX
8
L0D0_0
10
37.2
20
286.5
0
VERTEX
8
L0D0_0
10
44.2
20
286.5
0
VERTEX
8
L0D0_0
10
44.2
20
296
0
VERTEX
8
L0D0_0
10
50.6
20
296
0
VERTEX
8
L0D0_0
10
50.6
20
286.5
0
VERTEX
8
L0D0_0
10
56.6
20
286.5
0
VERTEX
8
L0D0_0
10
56.6
20
296
0
VERTEX
8
L0D0_0
10
62.685
20
296
0
VERTEX
8
L0D0_0
10
62.685
20
286.5
0
VERTEX
8
L0D0_0
10
68
20
286.5
0
VERTEX
8
L0D0_0
10
68
20
296
0
VERTEX
8
L0D0_0
10
74.4
20
296
0
VERTEX
8
L0D0_0
10
74.4
20
286
0
VERTEX
8
L0D0_0
10
83.4
20
286
0
VERTEX
8
L0D0_0
10
83.4
20
296
0
VERTEX
8
L0D0_0
10
89.8
20
296
0
VERTEX
8
L0D0_0
10
89.8
20
286
0
VERTEX
8
L0D0_0
10
97.8
20
286
0
VERTEX
8
L0D0_0
10
97.8
20
296
0
VERTEX
8
L0D0_0
10
104.2
20
296
0
VERTEX
8
L0D0_0
10
104.2
20
286
0
VERTEX
8
L0D0_0
10
111.2
20
286
0
VERTEX
8
L0D0_0
10
111.2
20
296
0
VERTEX
8
L0D0_0
10
117.6
20
296
0
VERTEX
8
L0D0_0
10
117.6
20
286
0
VERTEX
8
L0D0_0
10
123.6
20
286
0
VERTEX
8
L0D0_0
10
123.6
20
296
0
VERTEX
8
L0D0_0
10
130
20
296
0
VERTEX
8
L0D0_0
10
130
20
286
0
VERTEX
8
L0D0_0
10
135
20
286
0
VERTEX
8
L0D0_0
10
135
20
296
0
VERTEX
8
L0D0_0
10
141.4
20
296
0
VERTEX
8
L0D0_0
10
141.4
20
285.5
0
VERTEX
8
L0D0_0
10
150.4
20
285.5
0
VERTEX
8
L0D0_0
10
150.4
20
296
0
VERTEX
8
L0D0_0
10
156.8
20
296
0
VERTEX
8
L0D0_0
10
156.8
20
285.5
0
VERTEX
8
L0D0_0
10
164.8
20
285.5
0
VERTEX
8
L0D0_0
10
164.8
20
296
0
VERTEX
8
L0D0_0
10
171.2
20
296
0
VERTEX
8
L0D0_0
10
171.2
20
285.5
0
VERTEX
8
L0D0_0
10
178.2
20
285.5
0
VERTEX
8
L0D0_0
10
178.2
20
296
0
VERTEX
8
L0D0_0
10
184.6
20
296
0
VERTEX
8
L0D0_0
10
184.6
20
285.5
0
VERTEX
8
L0D0_0
10
190.6
20
285.5
0
VERTEX
8
L0D0_0
10
190.6
20
296
0
VERTEX
8
L0D0_0
10
197
20
296
0
VERTEX
8
L0D0_0
10
197
20
285.5
0
VERTEX
8
L0D0_0
10
202
20
285.5
0
VERTEX
8
L0D0_0
10
202
20
296
0
VERTEX
8
L0D0_0
10
0
20
296
0
VERTEX
8
L0D0_0
10
0
20
313.75
0
VERTEX
8
L0D0_0
10
210
20
313.75
0
VERTEX
8
L0D0_0
10
210
20
16.75
0
SEQEND
0
POLYLINE
8
L0D0_0
70
1
40
0
41
0
66
1
0
VERTEX
8
L0D0_0
10
118.6
20
169
0
VERTEX
8
L0D0_0
10
118.6
20
170
0
VERTEX
8
L0D0_0
10
119.4
20
170
0
VERTEX
8
L0D0_0
10
119.4
20
176
0
VERTEX
8
L0D0_0
10
118.6
20
176
0
VERTEX
8
L0D0_0
10
118.6
20
177
0
VERTEX
8
L0D0_0
10
122.6
20
177
0
VERTEX
8
L0D0_0
10
122.6
20
169
0
SEQEND
0
POLYLINE
8
L0D0_0
70
1
40
0
41
0
66
1
0
VERTEX
8
L0D0_0
10
131
20
169
0
VERTEX
8
L0D0_0
10
131
20
170
0
VERTEX
8
L0D0_0
10
131.8
20
170
0
VERTEX
8
L0D0_0
10
131.8
20
176
0
VERTEX
8
L0D0_0
10
131
20
176
0
VERTEX
8
L0D0_0
10
131
20
177
0
VERTEX
8
L0D0_0
10
134
20
177
0
VERTEX
8
L0D0_0
10
134
20
169
0
SEQEND
0
POLYLINE
8
L0D0_0
70
1
40
0
41
0
66
1
0
VERTEX
8
L0D0_0
10
142.4
20
168.5
0
VERTEX
8
L0D0_0
10
142.4
20
169.75
0
VERTEX
8
L0D0_0
10
143.2
20
169.75
0
VERTEX
8
L0D0_0
10
143.2
20
175.75
0
VERTEX
8
L0D0_0
10
142.4
20
175.75
0
VERTEX
8
L0D0_0
10
142.4
20
177
0
VERTEX
8
L0D0_0
10
149.4
20
177
0
VERTEX
8
L0D0_0
10
149.4
20
168.5
0
SEQEND
0
POLYLINE
8
L0D0_0
70
1
40
0
41
0
66
1
0
VERTEX
8
L0D0_0
10
157.8
20
168.5
0
VERTEX
8
L0D0_0
10
157.8
20
169.75
0
VERTEX
8
L0D0_0
10
158.6
20
169.75
0
VERTEX
8
L0D0_0
10
158.6
20
175.75
0
VERTEX
8
L0D0_0
10
157.8
20
175.75
0
VERTEX
8
L0D0_0
10
157.8
20
177
0
VERTEX
8
L0D0_0
10
163.8
20
177
0
VERTEX
8
L0D0_0
10
163.8
20
168.5
0
SEQEND
0
POLYLINE
8
L0D0_0
70
1
40
0
41
0
66
1
0
VERTEX
8
L0D0_0
10
172.2
20
168.5
0
VERTEX
8
L0D0_0
10
172.2
20
169.75
0
VERTEX
8
L0D0_0
10
173
20
169.75
0
VERTEX
8
L0D0_0
10
173
20
175.75
0
VERTEX
8
L0D0_0
10
172.2
20
175.75
0
VERTEX
8
L0D0_0
10
172.2
20
177
0
VERTEX
8
L0D0_0
10
177.2
20
177
0
VERTEX
8
L0D0_0
10
177.2
20
168.5
0
SEQEND
0
POLYLINE
8
L0D0_0
70
1
40
0
41
0
66
1
0
VERTEX
8
L0D0_0
10
185.6
20
168.5
0
VERTEX
8
L0D0_0
10
185.6
20
169.75
0
VERTEX
8
L0D0_0
10
186.4
20
169.75
0
VERTEX
8
L0D0_0
10
186.4
20
175.75
0
VERTEX
8
L0D0_0
10
185.6
20
175.75
0
VERTEX
8
L0D0_0
10
185.6
20
177
0
VERTEX
8
L0D0_0
10
189.6
20
177
0
VERTEX
8
L0D0_0
10
189.6
20
168.5
0
SEQEND
0
POLYLINE
8
L0D0_0
70
1
40
0
41
0
66
1
0
VERTEX
8
L0D0_0
10
198
20
168.5
0
VERTEX
8
L0D0_0
10
198
20
169.75
0
VERTEX
8
L0D0_0
10
198.8
20
169.75
0
VERTEX
8
L0D0_0
10
198.8
20
175.75
0
VERTEX
8
L0D0_0
10
198
20
175.75
0
VERTEX
8
L0D0_0
10
198
20
177
0
VERTEX
8
L0D0_0
10
201
20
177
0
VERTEX
8
L0D0_0
10
201
20
168.5
0
SEQEND
0
POLYLINE
8
L0D0_0
70
1
40
0
41
0
66
1
0
VERTEX
8
L0D0_0
10
142.4
20
183
0
VERTEX
8
L0D0_0
10
142.4
20
184.5
0
VERTEX
8
L0D0_0
10
143.15
20
184.5
0
VERTEX
8
L0D0_0
10
143.15
20
190.5
0
VERTEX
8
L0D0_0
10
142.4
20
190.5
0
VERTEX
8
L0D0_0
10
142.4
20
192
0
VERTEX
8
L0D0_0
10
149.4
20
192
0
VERTEX
8
L0D0_0
10
149.4
20
183
0
SEQEND
0
POLYLINE
8
L0D0_0
70
1
40
0
41
0
66
1
0
VERTEX
8
L0D0_0
10
157.8
20
183
0
VERTEX
8
L0D0_0
10
157.8
20
184.5
0
VERTEX
8
L0D0_0
10
158.55
20
184.5
0
VERTEX
8
L0D0_0
10
158.55
20
190.5
0
VERTEX
8
L0D0_0
10
157.8
20
190.5
0
VERTEX
8
L0D0_0
10
157.8
20
192
0
VERTEX
8
L0D0_0
10
163.8
20
192
0
VERTEX
8
L0D0_0
10
163.8
20
183
0
SEQEND
0
POLYLINE
8
L0D0_0
70
1
40
0
41
0
66
1
0
VERTEX
8
L0D0_0
10
172.2
20
183
0
VERTEX
8
L0D0_0
10
172.2
20
184.5
0
VERTEX
8
L0D0_0
10
172.95
20
184.5
0
VERTEX
8
L0D0_0
10
172.95
20
190.5
0
VERTEX
8
L0D0_0
10
172.2
20
190.5
0
VERTEX
8
L0D0_0
10
172.2
20
192
0
VERTEX
8
L0D0_0
10
177.2
20
192
0
VERTEX
8
L0D0_0
10
177.2
20
183
0
SEQEND
0
POLYLINE
8
L0D0_0
70
1
40
0
41
0
66
1
0
VERTEX
8
L0D0_0
10
185.6
20
183
0
VERTEX
8
L0D0_0
10
185.6
20
184.5
0
VERTEX
8
L0D0_0
10
186.35
20
184.5
0
VERTEX
8
L0D0_0
10
186.35
20
190.5
0
VERTEX
8
L0D0_0
10
185.6
20
190.5
0
VERTEX
8
L0D0_0
10
185.6
20
192
0
VERTEX
8
L0D0_0
10
189.6
20
192
0
VERTEX
8
L0D0_0
10
189.6
20
183
0
SEQEND
0
POLYLINE
8
L0D0_0
70
1
40
0
41
0
66
1
0
VERTEX
8
L0D0_0
10
198
20
183
0
VERTEX
8
L0D0_0
10
198
20
184.5
0
VERTEX
8
L0D0_0
10
198.75
20
184.5
0
VERTEX
8
L0D0_0
10
198.75
20
190.5
0
VERTEX
8
L0D0_0
10
198
20
190.5
0
VERTEX
8
L0D0_0
10
198
20
192
0
VERTEX
8
L0D0_0
10
201
20
192
0
VERTEX
8
L0D0_0
10
201
20
183
0
SEQEND
0
POLYLINE
8
L0D0_0
70
1
40
0
41
0
66
1
0
VERTEX
8
L0D0_0
10
105.2
20
183
0
VERTEX
8
L0D0_0
10
105.2
20
184.75
0
VERTEX
8
L0D0_0
10
105.95
20
184.75
0
VERTEX
8
L0D0_0
10
105.95
20
190.75
0
VERTEX
8
L0D0_0
10
105.2
20
190.75
0
VERTEX
8
L0D0_0
10
105.2
20
192.5
0
VERTEX
8
L0D0_0
10
110.2
20
192.5
0
VERTEX
8
L0D0_0
10
110.2
20
183
0
SEQEND
0
POLYLINE
8
L0D0_0
70
1
40
0
41
0
66
1
0
VERTEX
8
L0D0_0
10
118.6
20
183
0
VERTEX
8
L0D0_0
10
118.6
20
184.75
0
VERTEX
8
L0D0_0
10
119.35
20
184.75
0
VERTEX
8
L0D0_0
10
119.35
20
190.75
0
VERTEX
8
L0D0_0
10
118.6
20
190.75
0
VERTEX
8
L0D0_0
10
118.6
20
192.5
0
VERTEX
8
L0D0_0
10
122.6
20
192.5
0
VERTEX
8
L0D0_0
10
122.6
20
183
0
SEQEND
0
POLYLINE
8
L0D0_0
70
1
40
0
41
0
66
1
0
VERTEX
8
L0D0_0
10
131
20
183
0
VERTEX
8
L0D0_0
10
131
20
184.75
0
VERTEX
8
L0D0_0
10
131.75
20
184.75
0
VERTEX
8
L0D0_0
10
131.75
20
190.75
0
VERTEX
8
L0D0_0
10
131
20
190.75
0
VERTEX
8
L0D0_0
10
131
20
192.5
0
VERTEX
8
L0D0_0
10
134
20
192.5
0
VERTEX
8
L0D0_0
10
134
20
183
0
SEQEND
0
POLYLINE
8
L0D0_0
70
1
40
0
41
0
66
1
0
VERTEX
8
L0D0_0
10
105.2
20
198.5
0
VERTEX
8
L0D0_0
10
105.2
20
199.5
0
VERTEX
8
L0D0_0
10
105.95
20
199.5
0
VERTEX
8
L0D0_0
10
105.95
20
205.5
0
VERTEX
8
L0D0_0
10
105.2
20
205.5
0
VERTEX
8
L0D0_0
10
105.2
20
206.5
0
VERTEX
8
L0D0_0
10
110.2
20
206.5
0
VERTEX
8
L0D0_0
10
110.2
20
198.5
0
SEQEND
0
POLYLINE
8
L0D0_0
70
1
40
0
41
0
66
1
0
VERTEX
8
L0D0_0
10
118.6
20
198.5
0
VERTEX
8
L0D0_0
10
118.6
20
199.5
0
VERTEX
8
L0D0_0
10
119.35
20
199.5
0
VERTEX
8
L0D0_0
10
119.35
20
205.5
0
VERTEX
8
L0D0_0
10
118.6
20
205.5
0
VERTEX
8
L0D0_0
10
118.6
20
206.5
0
VERTEX
8
L0D0_0
10
122.6
20
206.5
0
VERTEX
8
L0D0_0
10
122.6
20
198.5
0
SEQEND
0
POLYLINE
8
L0D0_0
70
1
40
0
41
0
66
1
0
VERTEX
8
L0D0_0
10
131
20
198.5
0
VERTEX
8
L0D0_0
10
131
20
199.5
0
VERTEX
8
L0D0_0
10
131.75
20
199.5
0
VERTEX
8
L0D0_0
10
131.75
20
205.5
0
VERTEX
8
L0D0_0
10
131
20
205.5
0
VERTEX
8
L0D0_0
10
131
20
206.5
0
VERTEX
8
L0D0_0
10
134
20
206.5
0
VERTEX
8
L0D0_0
10
134
20
198.5
0
SEQEND
0
POLYLINE
8
L0D0_0
70
1
40
0
41
0
66
1
0
VERTEX
8
L0D0_0
10
142.4
20
198
0
VERTEX
8
L0D0_0
10
142.4
20
199.25
0
VERTEX
8
L0D0_0
10
143.15
20
199.25
0
VERTEX
8
L0D0_0
10
143.15
20
205.25
0
VERTEX
8
L0D0_0
10
142.4
20
205.25
0
VERTEX
8
L0D0_0
10
142.4
20
206.5
0
VERTEX
8
L0D0_0
10
149.4
20
206.5
0
VERTEX
8
L0D0_0
10
149.4
20
198
0
SEQEND
0
POLYLINE
8
L0D0_0
70
1
40
0
41
0
66
1
0
VERTEX
8
L0D0_0
10
157.8
20
198
0
VERTEX
8
L0D0_0
10
157.8
20
199.25
0
VERTEX
8
L0D0_0
10
158.55
20
199.25
0
VERTEX
8
L0D0_0
10
158.55
20
205.25
0
VERTEX
8
L0D0_0
10
157.8
20
205.25
0
VERTEX
8
L0D0_0
10
157.8
20
206.5
0
VERTEX
8
L0D0_0
10
163.8
20
206.5
0
VERTEX
8
L0D0_0
10
163.8
20
198
0
SEQEND
0
POLYLINE
8
L0D0_0
70
1
40
0
41
0
66
1
0
VERTEX
8
L0D0_0
10
172.2
20
198
0
VERTEX
8
L0D0_0
10
172.2
20
199.25
0
VERTEX
8
L0D0_0
10
172.95
20
199.25
0
VERTEX
8
L0D0_0
10
172.95
20
205.25
0
VERTEX
8
L0D0_0
10
172.2
20
205.25
0
VERTEX
8
L0D0_0
10
172.2
20
206.5
0
VERTEX
8
L0D0_0
10
177.2
20
206.5
0
VERTEX
8
L0D0_0
10
177.2
20
198
0
SEQEND
0
POLYLINE
8
L0D0_0
70
1
40
0
41
0
66
1
0
VERTEX
8
L0D0_0
10
185.6
20
198
0
VERTEX
8
L0D0_0
10
185.6
20
199.25
0
VERTEX
8
L0D0_0
10
186.35
20
199.25
0
VERTEX
8
L0D0_0
10
186.35
20
205.25
0
VERTEX
8
L0D0_0
10
185.6
20
205.25
0
VERTEX
8
L0D0_0
10
185.6
20
206.5
0
VERTEX
8
L0D0_0
10
189.6
20
206.5
0
VERTEX
8
L0D0_0
10
189.6
20
198
0
SEQEND
0
POLYLINE
8
L0D0_0
70
1
40
0
41
0
66
1
0
VERTEX
8
L0D0_0
10
198
20
198
0
VERTEX
8
L0D0_0
10
198
20
199.25
0
VERTEX
8
L0D0_0
10
198.75
20
199.25
0
VERTEX
8
L0D0_0
10
198.75
20
205.25
0
VERTEX
8
L0D0_0
10
198
20
205.25
0
VERTEX
8
L0D0_0
10
198
20
206.5
0
VERTEX
8
L0D0_0
10
201
20
206.5
0
VERTEX
8
L0D0_0
10
201
20
198
0
SEQEND
0
POLYLINE
8
L0D0_0
70
1
40
0
41
0
66
1
0
VERTEX
8
L0D0_0
10
142.4
20
212.5
0
VERTEX
8
L0D0_0
10
142.4
20
214
0
VERTEX
8
L0D0_0
10
143.1
20
214
0
VERTEX
8
L0D0_0
10
143.1
20
220
0
VERTEX
8
L0D0_0
10
142.4
20
220
0
VERTEX
8
L0D0_0
10
142.4
20
221.5
0
VERTEX
8
L0D0_0
10
149.4
20
221.5
0
VERTEX
8
L0D0_0
10
149.4
20
212.5
0
SEQEND
0
POLYLINE
8
L0D0_0
70
1
40
0
41
0
66
1
0
VERTEX
8
L0D0_0
10
157.8
20
212.5
0
VERTEX
8
L0D0_0
10
157.8
20
214
0
VERTEX
8
L0D0_0
10
158.5
20
214
0
VERTEX
8
L0D0_0
10
158.5
20
220
0
VERTEX
8
L0D0_0
10
157.8
20
220
0
VERTEX
8
L0D0_0
10
157.8
20
221.5
0
VERTEX
8
L0D0_0
10
163.8
20
221.5
0
VERTEX
8
L0D0_0
10
163.8
20
212.5
0
SEQEND
0
POLYLINE
8
L0D0_0
70
1
40
0
41
0
66
1
0
VERTEX
8
L0D0_0
10
172.2
20
212.5
0
VERTEX
8
L0D0_0
10
172.2
20
214
0
VERTEX
8
L0D0_0
10
172.9
20
214
0
VERTEX
8
L0D0_0
10
172.9
20
220
0
VERTEX
8
L0D0_0
10
172.2
20
220
0
VERTEX
8
L0D0_0
10
172.2
20
221.5
0
VERTEX
8
L0D0_0
10
177.2
20
221.5
0
VERTEX
8
L0D0_0
10
177.2
20
212.5
0
SEQEND
0
POLYLINE
8
L0D0_0
70
1
40
0
41
0
66
1
0
VERTEX
8
L0D0_0
10
185.6
20
212.5
0
VERTEX
8
L0D0_0
10
185.6
20
214
0
VERTEX
8
L0D0_0
10
186.3
20
214
0
VERTEX
8
L0D0_0
10
186.3
20
220
0
VERTEX
8
L0D0_0
10
185.6
20
220
0
VERTEX
8
L0D0_0
10
185.6
20
221.5
0
VERTEX
8
L0D0_0
10
189.6
20
221.5
0
VERTEX
8
L0D0_0
10
189.6
20
212.5
0
SEQEND
0
POLYLINE
8
L0D0_0
70
1
40
0
41
0
66
1
0
VERTEX
8
L0D0_0
10
198
20
212.5
0
VERTEX
8
L0D0_0
10
198
20
214
0
VERTEX
8
L0D0_0
10
198.7
20
214
0
VERTEX
8
L0D0_0
10
198.7
20
220
0
VERTEX
8
L0D0_0
10
198
20
220
0
VERTEX
8
L0D0_0
10
198
20
221.5
0
VERTEX
8
L0D0_0
10
201
20
221.5
0
VERTEX
8
L0D0_0
10
201
20
212.5
0
SEQEND
0
POLYLINE
8
L0D0_0
70
1
40
0
41
0
66
1
0
VERTEX
8
L0D0_0
10
105.2
20
212.5
0
VERTEX
8
L0D0_0
10
105.2
20
214.25
0
VERTEX
8
L0D0_0
10
105.9
20
214.25
0
VERTEX
8
L0D0_0
10
105.9
20
220.25
0
VERTEX
8
L0D0_0
10
105.2
20
220.25
0
VERTEX
8
L0D0_0
10
105.2
20
222
0
VERTEX
8
L0D0_0
10
110.2
20
222
0
VERTEX
8
L0D0_0
10
110.2
20
212.5
0
SEQEND
0
POLYLINE
8
L0D0_0
70
1
40
0
41
0
66
1
0
VERTEX
8
L0D0_0
10
118.6
20
212.5
0
VERTEX
8
L0D0_0
10
118.6
20
214.25
0
VERTEX
8
L0D0_0
10
119.3
20
214.25
0
VERTEX
8
L0D0_0
10
119.3
20
220.25
0
VERTEX
8
L0D0_0
10
118.6
20
220.25
0
VERTEX
8
L0D0_0
10
118.6
20
222
0
VERTEX
8
L0D0_0
10
122.6
20
222
0
VERTEX
8
L0D0_0
10
122.6
20
212.5
0
SEQEND
0
POLYLINE
8
L0D0_0
70
1
40
0
41
0
66
1
0
VERTEX
8
L0D0_0
10
131
20
212.5
0
VERTEX
8
L0D0_0
10
131
20
214.25
0
VERTEX
8
L0D0_0
10
131.7
20
214.25
0
VERTEX
8
L0D0_0
10
131.7
20
220.25
0
VERTEX
8
L0D0_0
10
131
20
220.25
0
VERTEX
8
L0D0_0
10
131
20
222
0
VERTEX
8
L0D0_0
10
134
20
222
0
VERTEX
8
L0D0_0
10
134
20
212.5
0
SEQEND
0
POLYLINE
8
L0D0_0
70
1
40
0
41
0
66
1
0
VERTEX
8
L0D0_0
10
105.2
20
228
0
VERTEX
8
L0D0_0
10
105.2
20
229
0
VERTEX
8
L0D0_0
10
105.9
20
229
0
VERTEX
8
L0D0_0
10
105.9
20
235
0
VERTEX
8
L0D0_0
10
105.2
20
235
0
VERTEX
8
L0D0_0
10
105.2
20
236
0
VERTEX
8
L0D0_0
10
110.2
20
236
0
VERTEX
8
L0D0_0
10
110.2
20
228
0
SEQEND
0
POLYLINE
8
L0D0_0
70
1
40
0
41
0
66
1
0
VERTEX
8
L0D0_0
10
118.6
20
228
0
VERTEX
8
L0D0_0
10
118.6
20
229
0
VERTEX
8
L0D0_0
10
119.3
20
229
0
VERTEX
8
L0D0_0
10
119.3
20
235
0
VERTEX
8
L0D0_0
10
118.6
20
235
0
VERTEX
8
L0D0_0
10
118.6
20
236
0
VERTEX
8
L0D0_0
10
122.6
20
236
0
VERTEX
8
L0D0_0
10
122.6
20
228
0
SEQEND
0
POLYLINE
8
L0D0_0
70
1
40
0
41
0
66
1
0
VERTEX
8
L0D0_0
10
131
20
228
0
VERTEX
8
L0D0_0
10
131
20
229
0
VERTEX
8
L0D0_0
10
131.7
20
229
0
VERTEX
8
L0D0_0
10
131.7
20
235
0
VERTEX
8
L0D0_0
10
131
20
235
0
VERTEX
8
L0D0_0
10
131
20
236
0
VERTEX
8
L0D0_0
10
134
20
236
0
VERTEX
8
L0D0_0
10
134
20
228
0
SEQEND
0
POLYLINE
8
L0D0_0
70
1
40
0
41
0
66
1
0
VERTEX
8
L0D0_0
10
142.4
20
227.5
0
VERTEX
8
L0D0_0
10
142.4
20
228.75
0
VERTEX
8
L0D0_0
10
143.1
20
228.75
0
VERTEX
8
L0D0_0
10
143.1
20
234.75
0
VERTEX
8
L0D0_0
10
142.4
20
234.75
0
VERTEX
8
L0D0_0
10
142.4
20
236
0
VERTEX
8
L0D0_0
10
149.4
20
236
0
VERTEX
8
L0D0_0
10
149.4
20
227.5
0
SEQEND
0
POLYLINE
8
L0D0_0
70
1
40
0
41
0
66
1
0
VERTEX
8
L0D0_0
10
157.8
20
227.5
0
VERTEX
8
L0D0_0
10
157.8
20
228.75
0
VERTEX
8
L0D0_0
10
158.5
20
228.75
0
VERTEX
8
L0D0_0
10
158.5
20
234.75
0
VERTEX
8
L0D0_0
10
157.8
20
234.75
0
VERTEX
8
L0D0_0
10
157.8
20
236
0
VERTEX
8
L0D0_0
10
163.8
20
236
0
VERTEX
8
L0D0_0
10
163.8
20
227.5
0
SEQEND
0
POLYLINE
8
L0D0_0
70
1
40
0
41
0
66
1
0
VERTEX
8
L0D0_0
10
172.2
20
227.5
0
VERTEX
8
L0D0_0
10
172.2
20
228.75
0
VERTEX
8
L0D0_0
10
172.9
20
228.75
0
VERTEX
8
L0D0_0
10
172.9
20
234.75
0
VERTEX
8
L0D0_0
10
172.2
20
234.75
0
VERTEX
8
L0D0_0
10
172.2
20
236
0
VERTEX
8
L0D0_0
10
177.2
20
236
0
VERTEX
8
L0D0_0
10
177.2
20
227.5
0
SEQEND
0
POLYLINE
8
L0D0_0
70
1
40
0
41
0
66
1
0
VERTEX
8
L0D0_0
10
185.6
20
227.5
0
VERTEX
8
L0D0_0
10
185.6
20
228.75
0
VERTEX
8
L0D0_0
10
186.3
20
228.75
0
VERTEX
8
L0D0_0
10
186.3
20
234.75
0
VERTEX
8
L0D0_0
10
185.6
20
234.75
0
VERTEX
8
L0D0_0
10
185.6
20
236
0
VERTEX
8
L0D0_0
10
189.6
20
236
0
VERTEX
8
L0D0_0
10
189.6
20
227.5
0
SEQEND
0
POLYLINE
8
L0D0_0
70
1
40
0
41
0
66
1
0
VERTEX
8
L0D0_0
10
198
20
227.5
0
VERTEX
8
L0D0_0
10
198
20
228.75
0
VERTEX
8
L0D0_0
10
198.7
20
228.75
0
VERTEX
8
L0D0_0
10
198.7
20
234.75
0
VERTEX
8
L0D0_0
10
198
20
234.75
0
VERTEX
8
L0D0_0
10
198
20
236
0
VERTEX
8
L0D0_0
10
201
20
236
0
VERTEX
8
L0D0_0
10
201
20
227.5
0
SEQEND
0
POLYLINE
8
L0D0_0
70
1
40
0
41
0
66
1
0
VERTEX
8
L0D0_0
10
142.4
20
242
0
VERTEX
8
L0D0_0
10
142.4
20
243.5
0
VERTEX
8
L0D0_0
10
143.05
20
243.5
0
VERTEX
8
L0D0_0
10
143.05
20
249.5
0
VERTEX
8
L0D0_0
10
142.4
20
249.5
0
VERTEX
8
L0D0_0
10
142.4
20
251
0
VERTEX
8
L0D0_0
10
149.4
20
251
0
VERTEX
8
L0D0_0
10
149.4
20
242
0
SEQEND
0
POLYLINE
8
L0D0_0
70
1
40
0
41
0
66
1
0
VERTEX
8
L0D0_0
10
157.8
20
242
0
VERTEX
8
L0D0_0
10
157.8
20
243.5
0
VERTEX
8
L0D0_0
10
158.45
20
243.5
0
VERTEX
8
L0D0_0
10
158.45
20
249.5
0
VERTEX
8
L0D0_0
10
157.8
20
249.5
0
VERTEX
8
L0D0_0
10
157.8
20
251
0
VERTEX
8
L0D0_0
10
163.8
20
251
0
VERTEX
8
L0D0_0
10
163.8
20
242
0
SEQEND
0
POLYLINE
8
L0D0_0
70
1
40
0
41
0
66
1
0
VERTEX
8
L0D0_0
10
172.2
20
242
0
VERTEX
8
L0D0_0
10
172.2
20
243.5
0
VERTEX
8
L0D0_0
10
172.85
20
243.5
0
VERTEX
8
L0D0_0
10
172.85
20
249.5
0
VERTEX
8
L0D0_0
10
172.2
20
249.5
0
VERTEX
8
L0D0_0
10
172.2
20
251
0
VERTEX
8
L0D0_0
10
177.2
20
251
0
VERTEX
8
L0D0_0
10
177.2
20
242
0
SEQEND
0
POLYLINE
8
L0D0_0
70
1
40
0
41
0
66
1
0
VERTEX
8
L0D0_0
10
185.6
20
242
0
VERTEX
8
L0D0_0
10
185.6
20
243.5
0
VERTEX
8
L0D0_0
10
186.25
20
243.5
0
VERTEX
8
L0D0_0
10
186.25
20
249.5
0
VERTEX
8
L0D0_0
10
185.6
20
249.5
0
VERTEX
8
L0D0_0
10
185.6
20
251
0
VERTEX
8
L0D0_0
10
189.6
20
251
0
VERTEX
8
L0D0_0
10
189.6
20
242
0
SEQEND
0
POLYLINE
8
L0D0_0
70
1
40
0
41
0
66
1
0
VERTEX
8
L0D0_0
10
198
20
242
0
VERTEX
8
L0D0_0
10
198
20
243.5
0
VERTEX
8
L0D0_0
10
198.65
20
243.5
0
VERTEX
8
L0D0_0
10
198.65
20
249.5
0
VERTEX
8
L0D0_0
10
198
20
249.5
0
VERTEX
8
L0D0_0
10
198
20
251
0
VERTEX
8
L0D0_0
10
201
20
251
0
VERTEX
8
L0D0_0
10
201
20
242
0
SEQEND
0
POLYLINE
8
L0D0_0
70
1
40
0
41
0
66
1
0
VERTEX
8
L0D0_0
10
105.2
20
242
0
VERTEX
8
L0D0_0
10
105.2
20
243.75
0
VERTEX
8
L0D0_0
10
105.85
20
243.75
0
VERTEX
8
L0D0_0
10
105.85
20
249.75
0
VERTEX
8
L0D0_0
10
105.2
20
249.75
0
VERTEX
8
L0D0_0
10
105.2
20
251.5
0
VERTEX
8
L0D0_0
10
110.2
20
251.5
0
VERTEX
8
L0D0_0
10
110.2
20
242
0
SEQEND
0
POLYLINE
8
L0D0_0
70
1
40
0
41
0
66
1
0
VERTEX
8
L0D0_0
10
118.6
20
242
0
VERTEX
8
L0D0_0
10
118.6
20
243.75
0
VERTEX
8
L0D0_0
10
119.25
20
243.75
0
VERTEX
8
L0D0_0
10
119.25
20
249.75
0
VERTEX
8
L0D0_0
10
118.6
20
249.75
0
VERTEX
8
L0D0_0
10
118.6
20
251.5
0
VERTEX
8
L0D0_0
10
122.6
20
251.5
0
VERTEX
8
L0D0_0
10
122.6
20
242
0
SEQEND
0
POLYLINE
8
L0D0_0
70
1
40
0
41
0
66
1
0
VERTEX
8
L0D0_0
10
131
20
242
0
VERTEX
8
L0D0_0
10
131
20
243.75
0
VERTEX
8
L0D0_0
10
131.65
20
243.75
0
VERTEX
8
L0D0_0
10
131.65
20
249.75
0
VERTEX
8
L0D0_0
10
131
20
249.75
0
VERTEX
8
L0D0_0
10
131
20
251.5
0
VERTEX
8
L0D0_0
10
134
20
251.5
0
VERTEX
8
L0D0_0
10
134
20
242
0
SEQEND
0
POLYLINE
8
L0D0_0
70
1
40
0
41
0
66
1
0
VERTEX
8
L0D0_0
10
105.2
20
257.5
0
VERTEX
8
L0D0_0
10
105.2
20
258.5
0
VERTEX
8
L0D0_0
10
105.85
20
258.5
0
VERTEX
8
L0D0_0
10
105.85
20
264.5
0
VERTEX
8
L0D0_0
10
105.2
20
264.5
0
VERTEX
8
L0D0_0
10
105.2
20
265.5
0
VERTEX
8
L0D0_0
10
110.2
20
265.5
0
VERTEX
8
L0D0_0
10
110.2
20
257.5
0
SEQEND
0
POLYLINE
8
L0D0_0
70
1
40
0
41
0
66
1
0
VERTEX
8
L0D0_0
10
118.6
20
257.5
0
VERTEX
8
L0D0_0
10
118.6
20
258.5
0
VERTEX
8
L0D0_0
10
119.25
20
258.5
0
VERTEX
8
L0D0_0
10
119.25
20
264.5
0
VERTEX
8
L0D0_0
10
118.6
20
264.5
0
VERTEX
8
L0D0_0
10
118.6
20
265.5
0
VERTEX
8
L0D0_0
10
122.6
20
265.5
0
VERTEX
8
L0D0_0
10
122.6
20
257.5
0
SEQEND
0
POLYLINE
8
L0D0_0
70
1
40
0
41
0
66
1
0
VERTEX
8
L0D0_0
10
131
20
257.5
0
VERTEX
8
L0D0_0
10
131
20
258.5
0
VERTEX
8
L0D0_0
10
131.65
20
258.5
0
VERTEX
8
L0D0_0
10
131.65
20
264.5
0
VERTEX
8
L0D0_0
10
131
20
264.5
0
VERTEX
8
L0D0_0
10
131
20
265.5
0
VERTEX
8
L0D0_0
10
134
20
265.5
0
VERTEX
8
L0D0_0
10
134
20
257.5
0
SEQEND
0
POLYLINE
8
L0D0_0
70
1
40
0
41
0
66
1
0
VERTEX
8
L0D0_0
10
142.4
20
257
0
VERTEX
8
L0D0_0
10
142.4
20
258.25
0
VERTEX
8
L0D0_0
10
143.05
20
258.25
0
VERTEX
8
L0D0_0
10
143.05
20
264.25
0
VERTEX
8
L0D0_0
10
142.4
20
264.25
0
VERTEX
8
L0D0_0
10
142.4
20
265.5
0
VERTEX
8
L0D0_0
10
149.4
20
265.5
0
VERTEX
8
L0D0_0
10
149.4
20
257
0
SEQEND
0
POLYLINE
8
L0D0_0
70
1
40
0
41
0
66
1
0
VERTEX
8
L0D0_0
10
157.8
20
257
0
VERTEX
8
L0D0_0
10
157.8
20
258.25
0
VERTEX
8
L0D0_0
10
158.45
20
258.25
0
VERTEX
8
L0D0_0
10
158.45
20
264.25
0
VERTEX
8
L0D0_0
10
157.8
20
264.25
0
VERTEX
8
L0D0_0
10
157.8
20
265.5
0
VERTEX
8
L0D0_0
10
163.8
20
265.5
0
VERTEX
8
L0D0_0
10
163.8
20
257
0
SEQEND
0
POLYLINE
8
L0D0_0
70
1
40
0
41
0
66
1
0
VERTEX
8
L0D0_0
10
172.2
20
257
0
VERTEX
8
L0D0_0
10
172.2
20
258.25
0
VERTEX
8
L0D0_0
10
172.85
20
258.25
0
VERTEX
8
L0D0_0
10
172.85
20
264.25
0
VERTEX
8
L0D0_0
10
172.2
20
264.25
0
VERTEX
8
L0D0_0
10
172.2
20
265.5
0
VERTEX
8
L0D0_0
10
177.2
20
265.5
0
VERTEX
8
L0D0_0
10
177.2
20
257
0
SEQEND
0
POLYLINE
8
L0D0_0
70
1
40
0
41
0
66
1
0
VERTEX
8
L0D0_0
10
185.6
20
257
0
VERTEX
8
L0D0_0
10
185.6
20
258.25
0
VERTEX
8
L0D0_0
10
186.25
20
258.25
0
VERTEX
8
L0D0_0
10
186.25
20
264.25
0
VERTEX
8
L0D0_0
10
185.6
20
264.25
0
VERTEX
8
L0D0_0
10
185.6
20
265.5
0
VERTEX
8
L0D0_0
10
189.6
20
265.5
0
VERTEX
8
L0D0_0
10
189.6
20
257
0
SEQEND
0
POLYLINE
8
L0D0_0
70
1
40
0
41
0
66
1
0
VERTEX
8
L0D0_0
10
198
20
257
0
VERTEX
8
L0D0_0
10
198
20
258.25
0
VERTEX
8
L0D0_0
10
198.65
20
258.25
0
VERTEX
8
L0D0_0
10
198.65
20
264.25
0
VERTEX
8
L0D0_0
10
198
20
264.25
0
VERTEX
8
L0D0_0
10
198
20
265.5
0
VERTEX
8
L0D0_0
10
201
20
265.5
0
VERTEX
8
L0D0_0
10
201
20
257
0
SEQEND
0
POLYLINE
8
L0D0_0
70
1
40
0
41
0
66
1
0
VERTEX
8
L0D0_0
10
142.4
20
271.5
0
VERTEX
8
L0D0_0
10
142.4
20
273
0
VERTEX
8
L0D0_0
10
143
20
273
0
VERTEX
8
L0D0_0
10
143
20
279
0
VERTEX
8
L0D0_0
10
142.4
20
279
0
VERTEX
8
L0D0_0
10
142.4
20
280.5
0
VERTEX
8
L0D0_0
10
149.4
20
280.5
0
VERTEX
8
L0D0_0
10
149.4
20
271.5
0
SEQEND
0
POLYLINE
8
L0D0_0
70
1
40
0
41
0
66
1
0
VERTEX
8
L0D0_0
10
157.8
20
271.5
0
VERTEX
8
L0D0_0
10
157.8
20
273
0
VERTEX
8
L0D0_0
10
158.4
20
273
0
VERTEX
8
L0D0_0
10
158.4
20
279
0
VERTEX
8
L0D0_0
10
157.8
20
279
0
VERTEX
8
L0D0_0
10
157.8
20
280.5
0
VERTEX
8
L0D0_0
10
163.8
20
280.5
0
VERTEX
8
L0D0_0
10
163.8
20
271.5
0
SEQEND
0
POLYLINE
8
L0D0_0
70
1
40
0
41
0
66
1
0
VERTEX
8
L0D0_0
10
172.2
20
271.5
0
VERTEX
8
L0D0_0
10
172.2
20
273
0
VERTEX
8
L0D0_0
10
172.8
20
273
0
VERTEX
8
L0D0_0
10
172.8
20
279
0
VERTEX
8
L0D0_0
10
172.2
20
279
0
VERTEX
8
L0D0_0
10
172.2
20
280.5
0
VERTEX
8
L0D0_0
10
177.2
20
280.5
0
VERTEX
8
L0D0_0
10
177.2
20
271.5
0
SEQEND
0
POLYLINE
8
L0D0_0
70
1
40
0
41
0
66
1
0
VERTEX
8
L0D0_0
10
185.6
20
271.5
0
VERTEX
8
L0D0_0
10
185.6
20
273
0
VERTEX
8
L0D0_0
10
186.2
20
273
0
VERTEX
8
L0D0_0
10
186.2
20
279
0
VERTEX
8
L0D0_0
10
185.6
20
279
0
VERTEX
8
L0D0_0
10
185.6
20
280.5
0
VERTEX
8
L0D0_0
10
189.6
20
280.5
0
VERTEX
8
L0D0_0
10
189.6
20
271.5
0
SEQEND
0
POLYLINE
8
L0D0_0
70
1
40
0
41
0
66
1
0
VERTEX
8
L0D0_0
10
198
20
271.5
0
VERTEX
8
L0D0_0
10
198
20
273
0
VERTEX
8
L0D0_0
10
198.6
20
273
0
VERTEX
8
L0D0_0
10
198.6
20
279
0
VERTEX
8
L0D0_0
10
198
20
279
0
VERTEX
8
L0D0_0
10
198
20
280.5
0
VERTEX
8
L0D0_0
10
201
20
280.5
0
VERTEX
8
L0D0_0
10
201
20
271.5
0
SEQEND
0
POLYLINE
8
L0D0_0
70
1
40
0
41
0
66
1
0
VERTEX
8
L0D0_0
10
105.2
20
271.5
0
VERTEX
8
L0D0_0
10
105.2
20
273.5
0
VERTEX
8
L0D0_0
10
105.8
20
273.5
0
VERTEX
8
L0D0_0
10
105.8
20
279.25
0
VERTEX
8
L0D0_0
10
105.2
20
279.25
0
VERTEX
8
L0D0_0
10
105.2
20
281
0
VERTEX
8
L0D0_0
10
110.2
20
281
0
VERTEX
8
L0D0_0
10
110.2
20
271.5
0
SEQEND
0
POLYLINE
8
L0D0_0
70
1
40
0
41
0
66
1
0
VERTEX
8
L0D0_0
10
118.6
20
271.5
0
VERTEX
8
L0D0_0
10
118.6
20
273.5
0
VERTEX
8
L0D0_0
10
119.2
20
273.5
0
VERTEX
8
L0D0_0
10
119.2
20
279.25
0
VERTEX
8
L0D0_0
10
118.6
20
279.25
0
VERTEX
8
L0D0_0
10
118.6
20
281
0
VERTEX
8
L0D0_0
10
122.6
20
281
0
VERTEX
8
L0D0_0
10
122.6
20
271.5
0
SEQEND
0
POLYLINE
8
L0D0_0
70
1
40
0
41
0
66
1
0
VERTEX
8
L0D0_0
10
131
20
271.5
0
VERTEX
8
L0D0_0
10
131
20
273.5
0
VERTEX
8
L0D0_0
10
131.6
20
273.5
0
VERTEX
8
L0D0_0
10
131.6
20
279.25
0
VERTEX
8
L0D0_0
10
131
20
279.25
0
VERTEX
8
L0D0_0
10
131
20
281
0
VERTEX
8
L0D0_0
10
134
20
281
0
VERTEX
8
L0D0_0
10
134
20
271.5
0
SEQEND
0
POLYLINE
8
L0D0_0
70
1
40
0
41
0
66
1
0
VERTEX
8
L0D0_0
10
105.2
20
287
0
VERTEX
8
L0D0_0
10
105.2
20
288.25
0
VERTEX
8
L0D0_0
10
105.8
20
288.25
0
VERTEX
8
L0D0_0
10
105.8
20
294
0
VERTEX
8
L0D0_0
10
105.2
20
294
0
VERTEX
8
L0D0_0
10
105.2
20
295
0
VERTEX
8
L0D0_0
10
110.2
20
295
0
VERTEX
8
L0D0_0
10
110.2
20
287
0
SEQEND
0
POLYLINE
8
L0D0_0
70
1
40
0
41
0
66
1
0
VERTEX
8
L0D0_0
10
118.6
20
287
0
VERTEX
8
L0D0_0
10
118.6
20
288.25
0
VERTEX
8
L0D0_0
10
119.2
20
288.25
0
VERTEX
8
L0D0_0
10
119.2
20
294
0
VERTEX
8
L0D0_0
10
118.6
20
294
0
VERTEX
8
L0D0_0
10
118.6
20
295
0
VERTEX
8
L0D0_0
10
122.6
20
295
0
VERTEX
8
L0D0_0
10
122.6
20
287
0
SEQEND
0
POLYLINE
8
L0D0_0
70
1
40
0
41
0
66
1
0
VERTEX
8
L0D0_0
10
131
20
287
0
VERTEX
8
L0D0_0
10
131
20
288.25
0
VERTEX
8
L0D0_0
10
131.6
20
288.25
0
VERTEX
8
L0D0_0
10
131.6
20
294
0
VERTEX
8
L0D0_0
10
131
20
294
0
VERTEX
8
L0D0_0
10
131
20
295
0
VERTEX
8
L0D0_0
10
134
20
295
0
VERTEX
8
L0D0_0
10
134
20
287
0
SEQEND
0
POLYLINE
8
L0D0_0
70
1
40
0
41
0
66
1
0
VERTEX
8
L0D0_0
10
142.4
20
286.5
0
VERTEX
8
L0D0_0
10
142.4
20
287.75
0
VERTEX
8
L0D0_0
10
143
20
287.75
0
VERTEX
8
L0D0_0
10
143
20
293.75
0
VERTEX
8
L0D0_0
10
142.4
20
293.75
0
VERTEX
8
L0D0_0
10
142.4
20
295
0
VERTEX
8
L0D0_0
10
149.4
20
295
0
VERTEX
8
L0D0_0
10
149.4
20
286.5
0
SEQEND
0
POLYLINE
8
L0D0_0
70
1
40
0
41
0
66
1
0
VERTEX
8
L0D0_0
10
157.8
20
286.5
0
VERTEX
8
L0D0_0
10
157.8
20
287.75
0
VERTEX
8
L0D0_0
10
158.4
20
287.75
0
VERTEX
8
L0D0_0
10
158.4
20
293.75
0
VERTEX
8
L0D0_0
10
157.8
20
293.75
0
VERTEX
8
L0D0_0
10
157.8
20
295
0
VERTEX
8
L0D0_0
10
163.8
20
295
0
VERTEX
8
L0D0_0
10
163.8
20
286.5
0
SEQEND
0
POLYLINE
8
L0D0_0
70
1
40
0
41
0
66
1
0
VERTEX
8
L0D0_0
10
172.2
20
286.5
0
VERTEX
8
L0D0_0
10
172.2
20
287.75
0
VERTEX
8
L0D0_0
10
172.8
20
287.75
0
VERTEX
8
L0D0_0
10
172.8
20
293.75
0
VERTEX
8
L0D0_0
10
172.2
20
293.75
0
VERTEX
8
L0D0_0
10
172.2
20
295
0
VERTEX
8
L0D0_0
10
177.2
20
295
0
VERTEX
8
L0D0_0
10
177.2
20
286.5
0
SEQEND
0
POLYLINE
8
L0D0_0
70
1
40
0
41
0
66
1
0
VERTEX
8
L0D0_0
10
185.6
20
286.5
0
VERTEX
8
L0D0_0
10
185.6
20
287.75
0
VERTEX
8
L0D0_0
10
186.2
20
287.75
0
VERTEX
8
L0D0_0
10
186.2
20
293.75
0
VERTEX
8
L0D0_0
10
185.6
20
293.75
0
VERTEX
8
L0D0_0
10
185.6
20
295
0
VERTEX
8
L0D0_0
10
189.6
20
295
0
VERTEX
8
L0D0_0
10
189.6
20
286.5
0
SEQEND
0
POLYLINE
8
L0D0_0
70
1
40
0
41
0
66
1
0
VERTEX
8
L0D0_0
10
198
20
286.5
0
VERTEX
8
L0D0_0
10
198
20
287.75
0
VERTEX
8
L0D0_0
10
198.6
20
287.75
0
VERTEX
8
L0D0_0
10
198.6
20
293.75
0
VERTEX
8
L0D0_0
10
198
20
293.75
0
VERTEX
8
L0D0_0
10
198
20
295
0
VERTEX
8
L0D0_0
10
201
20
295
0
VERTEX
8
L0D0_0
10
201
20
286.5
0
SEQEND
0
POLYLINE
8
L0D0_0
70
1
40
0
41
0
66
1
0
VERTEX
8
L0D0_0
10
105.2
20
169
0
VERTEX
8
L0D0_0
10
105.2
20
170
0
VERTEX
8
L0D0_0
10
106
20
170
0
VERTEX
8
L0D0_0
10
106
20
176
0
VERTEX
8
L0D0_0
10
105.2
20
176
0
VERTEX
8
L0D0_0
10
105.2
20
177
0
VERTEX
8
L0D0_0
10
110.2
20
177
0
VERTEX
8
L0D0_0
10
110.2
20
169
0
SEQEND
0
POLYLINE
8
L0D0_0
70
1
40
0
41
0
66
1
0
VERTEX
8
L0D0_0
10
51.6
20
169.5
0
VERTEX
8
L0D0_0
10
51.6
20
170.25
0
VERTEX
8
L0D0_0
10
52.4
20
170.25
0
VERTEX
8
L0D0_0
10
52.4
20
176.25
0
VERTEX
8
L0D0_0
10
51.6
20
176.25
0
VERTEX
8
L0D0_0
10
51.6
20
177
0
VERTEX
8
L0D0_0
10
55.6
20
177
0
VERTEX
8
L0D0_0
10
55.6
20
169.5
0
SEQEND
0
POLYLINE
8
L0D0_0
70
1
40
0
41
0
66
1
0
VERTEX
8
L0D0_0
10
64
20
169.5
0
VERTEX
8
L0D0_0
10
64
20
170.25
0
VERTEX
8
L0D0_0
10
64.8
20
170.25
0
VERTEX
8
L0D0_0
10
64.8
20
176.25
0
VERTEX
8
L0D0_0
10
64
20
176.25
0
VERTEX
8
L0D0_0
10
64
20
177
0
VERTEX
8
L0D0_0
10
67
20
177
0
VERTEX
8
L0D0_0
10
67
20
169.5
0
SEQEND
0
POLYLINE
8
L0D0_0
70
1
40
0
41
0
66
1
0
VERTEX
8
L0D0_0
10
75.4
20
169
0
VERTEX
8
L0D0_0
10
75.4
20
170
0
VERTEX
8
L0D0_0
10
76.2
20
170
0
VERTEX
8
L0D0_0
10
76.2
20
176
0
VERTEX
8
L0D0_0
10
75.4
20
176
0
VERTEX
8
L0D0_0
10
75.4
20
177
0
VERTEX
8
L0D0_0
10
82.4
20
177
0
VERTEX
8
L0D0_0
10
82.4
20
169
0
SEQEND
0
POLYLINE
8
L0D0_0
70
1
40
0
41
0
66
1
0
VERTEX
8
L0D0_0
10
75.4
20
183
0
VERTEX
8
L0D0_0
10
75.4
20
184.75
0
VERTEX
8
L0D0_0
10
76.15
20
184.75
0
VERTEX
8
L0D0_0
10
76.15
20
190.75
0
VERTEX
8
L0D0_0
10
75.4
20
190.75
0
VERTEX
8
L0D0_0
10
75.4
20
192.5
0
VERTEX
8
L0D0_0
10
82.4
20
192.5
0
VERTEX
8
L0D0_0
10
82.4
20
183
0
SEQEND
0
POLYLINE
8
L0D0_0
70
1
40
0
41
0
66
1
0
VERTEX
8
L0D0_0
10
90.8
20
183
0
VERTEX
8
L0D0_0
10
90.8
20
184.75
0
VERTEX
8
L0D0_0
10
91.55
20
184.75
0
VERTEX
8
L0D0_0
10
91.55
20
190.75
0
VERTEX
8
L0D0_0
10
90.8
20
190.75
0
VERTEX
8
L0D0_0
10
90.8
20
192.5
0
VERTEX
8
L0D0_0
10
96.8
20
192.5
0
VERTEX
8
L0D0_0
10
96.8
20
183
0
SEQEND
0
POLYLINE
8
L0D0_0
70
1
40
0
41
0
66
1
0
VERTEX
8
L0D0_0
10
90.8
20
169
0
VERTEX
8
L0D0_0
10
90.8
20
170
0
VERTEX
8
L0D0_0
10
91.6
20
170
0
VERTEX
8
L0D0_0
10
91.6
20
176
0
VERTEX
8
L0D0_0
10
90.8
20
176
0
VERTEX
8
L0D0_0
10
90.8
20
177
0
VERTEX
8
L0D0_0
10
96.8
20
177
0
VERTEX
8
L0D0_0
10
96.8
20
169
0
SEQEND
0
POLYLINE
8
L0D0_0
70
1
40
0
41
0
66
1
0
VERTEX
8
L0D0_0
10
8.4
20
169.5
0
VERTEX
8
L0D0_0
10
8.4
20
170.25
0
VERTEX
8
L0D0_0
10
9.2
20
170.25
0
VERTEX
8
L0D0_0
10
9.2
20
176.25
0
VERTEX
8
L0D0_0
10
8.4
20
176.25
0
VERTEX
8
L0D0_0
10
8.4
20
177
0
VERTEX
8
L0D0_0
10
15.4
20
177
0
VERTEX
8
L0D0_0
10
15.4
20
169.5
0
SEQEND
0
POLYLINE
8
L0D0_0
70
1
40
0
41
0
66
1
0
VERTEX
8
L0D0_0
10
75.4
20
242
0
VERTEX
8
L0D0_0
10
75.4
20
243.75
0
VERTEX
8
L0D0_0
10
76.05
20
243.75
0
VERTEX
8
L0D0_0
10
76.05
20
249.75
0
VERTEX
8
L0D0_0
10
75.4
20
249.75
0
VERTEX
8
L0D0_0
10
75.4
20
251.5
0
VERTEX
8
L0D0_0
10
82.4
20
251.5
0
VERTEX
8
L0D0_0
10
82.4
20
242
0
SEQEND
0
POLYLINE
8
L0D0_0
70
1
40
0
41
0
66
1
0
VERTEX
8
L0D0_0
10
90.8
20
242
0
VERTEX
8
L0D0_0
10
90.8
20
243.75
0
VERTEX
8
L0D0_0
10
91.45
20
243.75
0
VERTEX
8
L0D0_0
10
91.45
20
249.75
0
VERTEX
8
L0D0_0
10
90.8
20
249.75
0
VERTEX
8
L0D0_0
10
90.8
20
251.5
0
VERTEX
8
L0D0_0
10
96.8
20
251.5
0
VERTEX
8
L0D0_0
10
96.8
20
242
0
SEQEND
0
POLYLINE
8
L0D0_0
70
1
40
0
41
0
66
1
0
VERTEX
8
L0D0_0
10
23.8
20
169.5
0
VERTEX
8
L0D0_0
10
23.8
20
170.25
0
VERTEX
8
L0D0_0
10
24.6
20
170.25
0
VERTEX
8
L0D0_0
10
24.6
20
176.25
0
VERTEX
8
L0D0_0
10
23.8
20
176.25
0
VERTEX
8
L0D0_0
10
23.8
20
177
0
VERTEX
8
L0D0_0
10
29.8
20
177
0
VERTEX
8
L0D0_0
10
29.8
20
169.5
0
SEQEND
0
POLYLINE
8
L0D0_0
70
1
40
0
41
0
66
1
0
VERTEX
8
L0D0_0
10
8.4
20
183
0
VERTEX
8
L0D0_0
10
8.4
20
185
0
VERTEX
8
L0D0_0
10
9.15
20
185
0
VERTEX
8
L0D0_0
10
9.15
20
191
0
VERTEX
8
L0D0_0
10
8.4
20
191
0
VERTEX
8
L0D0_0
10
8.4
20
193
0
VERTEX
8
L0D0_0
10
15.4
20
193
0
VERTEX
8
L0D0_0
10
15.4
20
183
0
SEQEND
0
POLYLINE
8
L0D0_0
70
1
40
0
41
0
66
1
0
VERTEX
8
L0D0_0
10
23.8
20
183
0
VERTEX
8
L0D0_0
10
23.8
20
185
0
VERTEX
8
L0D0_0
10
24.55
20
185
0
VERTEX
8
L0D0_0
10
24.55
20
191
0
VERTEX
8
L0D0_0
10
23.8
20
191
0
VERTEX
8
L0D0_0
10
23.8
20
193
0
VERTEX
8
L0D0_0
10
29.8
20
193
0
VERTEX
8
L0D0_0
10
29.8
20
183
0
SEQEND
0
POLYLINE
8
L0D0_0
70
1
40
0
41
0
66
1
0
VERTEX
8
L0D0_0
10
8.4
20
242
0
VERTEX
8
L0D0_0
10
8.4
20
244
0
VERTEX
8
L0D0_0
10
9.05
20
244
0
VERTEX
8
L0D0_0
10
9.05
20
250
0
VERTEX
8
L0D0_0
10
8.4
20
250
0
VERTEX
8
L0D0_0
10
8.4
20
252
0
VERTEX
8
L0D0_0
10
15.4
20
252
0
VERTEX
8
L0D0_0
10
15.4
20
242
0
SEQEND
0
POLYLINE
8
L0D0_0
70
1
40
0
41
0
66
1
0
VERTEX
8
L0D0_0
10
23.8
20
242
0
VERTEX
8
L0D0_0
10
23.8
20
244
0
VERTEX
8
L0D0_0
10
24.45
20
244
0
VERTEX
8
L0D0_0
10
24.45
20
250
0
VERTEX
8
L0D0_0
10
23.8
20
250
0
VERTEX
8
L0D0_0
10
23.8
20
252
0
VERTEX
8
L0D0_0
10
29.8
20
252
0
VERTEX
8
L0D0_0
10
29.8
20
242
0
SEQEND
0
POLYLINE
8
L0D0_0
70
1
40
0
41
0
66
1
0
VERTEX
8
L0D0_0
10
38.2
20
242
0
VERTEX
8
L0D0_0
10
38.2
20
244
0
VERTEX
8
L0D0_0
10
38.85
20
244
0
VERTEX
8
L0D0_0
10
38.85
20
250
0
VERTEX
8
L0D0_0
10
38.2
20
250
0
VERTEX
8
L0D0_0
10
38.2
20
252
0
VERTEX
8
L0D0_0
10
43.2
20
252
0
VERTEX
8
L0D0_0
10
43.2
20
242
0
SEQEND
0
POLYLINE
8
L0D0_0
70
1
40
0
41
0
66
1
0
VERTEX
8
L0D0_0
10
51.6
20
242
0
VERTEX
8
L0D0_0
10
51.6
20
244
0
VERTEX
8
L0D0_0
10
52.25
20
244
0
VERTEX
8
L0D0_0
10
52.25
20
250
0
VERTEX
8
L0D0_0
10
51.6
20
250
0
VERTEX
8
L0D0_0
10
51.6
20
252
0
VERTEX
8
L0D0_0
10
55.6
20
252
0
VERTEX
8
L0D0_0
10
55.6
20
242
0
SEQEND
0
POLYLINE
8
L0D0_0
70
1
40
0
41
0
66
1
0
VERTEX
8
L0D0_0
10
64
20
242
0
VERTEX
8
L0D0_0
10
64
20
244
0
VERTEX
8
L0D0_0
10
64.65
20
244
0
VERTEX
8
L0D0_0
10
64.65
20
250
0
VERTEX
8
L0D0_0
10
64
20
250
0
VERTEX
8
L0D0_0
10
64
20
252
0
VERTEX
8
L0D0_0
10
67
20
252
0
VERTEX
8
L0D0_0
10
67
20
242
0
SEQEND
0
POLYLINE
8
L0D0_0
70
1
40
0
41
0
66
1
0
VERTEX
8
L0D0_0
10
8.4
20
258
0
VERTEX
8
L0D0_0
10
8.4
20
258.75
0
VERTEX
8
L0D0_0
10
9.05
20
258.75
0
VERTEX
8
L0D0_0
10
9.05
20
264.75
0
VERTEX
8
L0D0_0
10
8.4
20
264.75
0
VERTEX
8
L0D0_0
10
8.4
20
265.5
0
VERTEX
8
L0D0_0
10
15.4
20
265.5
0
VERTEX
8
L0D0_0
10
15.4
20
258
0
SEQEND
0
POLYLINE
8
L0D0_0
70
1
40
0
41
0
66
1
0
VERTEX
8
L0D0_0
10
23.8
20
258
0
VERTEX
8
L0D0_0
10
23.8
20
258.75
0
VERTEX
8
L0D0_0
10
24.45
20
258.75
0
VERTEX
8
L0D0_0
10
24.45
20
264.75
0
VERTEX
8
L0D0_0
10
23.8
20
264.75
0
VERTEX
8
L0D0_0
10
23.8
20
265.5
0
VERTEX
8
L0D0_0
10
29.8
20
265.5
0
VERTEX
8
L0D0_0
10
29.8
20
258
0
SEQEND
0
POLYLINE
8
L0D0_0
70
1
40
0
41
0
66
1
0
VERTEX
8
L0D0_0
10
38.2
20
258
0
VERTEX
8
L0D0_0
10
38.2
20
258.75
0
VERTEX
8
L0D0_0
10
38.85
20
258.75
0
VERTEX
8
L0D0_0
10
38.85
20
264.75
0
VERTEX
8
L0D0_0
10
38.2
20
264.75
0
VERTEX
8
L0D0_0
10
38.2
20
265.5
0
VERTEX
8
L0D0_0
10
43.2
20
265.5
0
VERTEX
8
L0D0_0
10
43.2
20
258
0
SEQEND
0
POLYLINE
8
L0D0_0
70
1
40
0
41
0
66
1
0
VERTEX
8
L0D0_0
10
51.6
20
258
0
VERTEX
8
L0D0_0
10
51.6
20
258.75
0
VERTEX
8
L0D0_0
10
52.25
20
258.75
0
VERTEX
8
L0D0_0
10
52.25
20
264.75
0
VERTEX
8
L0D0_0
10
51.6
20
264.75
0
VERTEX
8
L0D0_0
10
51.6
20
265.5
0
VERTEX
8
L0D0_0
10
55.6
20
265.5
0
VERTEX
8
L0D0_0
10
55.6
20
258
0
SEQEND
0
POLYLINE
8
L0D0_0
70
1
40
0
41
0
66
1
0
VERTEX
8
L0D0_0
10
64
20
258
0
VERTEX
8
L0D0_0
10
64
20
258.75
0
VERTEX
8
L0D0_0
10
64.65
20
258.75
0
VERTEX
8
L0D0_0
10
64.65
20
264.75
0
VERTEX
8
L0D0_0
10
64
20
264.75
0
VERTEX
8
L0D0_0
10
64
20
265.5
0
VERTEX
8
L0D0_0
10
67
20
265.5
0
VERTEX
8
L0D0_0
10
67
20
258
0
SEQEND
0
POLYLINE
8
L0D0_0
70
1
40
0
41
0
66
1
0
VERTEX
8
L0D0_0
10
75.4
20
257.5
0
VERTEX
8
L0D0_0
10
75.4
20
258.5
0
VERTEX
8
L0D0_0
10
76.05
20
258.5
0
VERTEX
8
L0D0_0
10
76.05
20
264.5
0
VERTEX
8
L0D0_0
10
75.4
20
264.5
0
VERTEX
8
L0D0_0
10
75.4
20
265.5
0
VERTEX
8
L0D0_0
10
82.4
20
265.5
0
VERTEX
8
L0D0_0
10
82.4
20
257.5
0
SEQEND
0
POLYLINE
8
L0D0_0
70
1
40
0
41
0
66
1
0
VERTEX
8
L0D0_0
10
90.8
20
257.5
0
VERTEX
8
L0D0_0
10
90.8
20
258.5
0
VERTEX
8
L0D0_0
10
91.45
20
258.5
0
VERTEX
8
L0D0_0
10
91.45
20
264.5
0
VERTEX
8
L0D0_0
10
90.8
20
264.5
0
VERTEX
8
L0D0_0
10
90.8
20
265.5
0
VERTEX
8
L0D0_0
10
96.8
20
265.5
0
VERTEX
8
L0D0_0
10
96.8
20
257.5
0
SEQEND
0
POLYLINE
8
L0D0_0
70
1
40
0
41
0
66
1
0
VERTEX
8
L0D0_0
10
38.2
20
183
0
VERTEX
8
L0D0_0
10
38.2
20
185
0
VERTEX
8
L0D0_0
10
38.95
20
185
0
VERTEX
8
L0D0_0
10
38.95
20
191
0
VERTEX
8
L0D0_0
10
38.2
20
191
0
VERTEX
8
L0D0_0
10
38.2
20
193
0
VERTEX
8
L0D0_0
10
43.2
20
193
0
VERTEX
8
L0D0_0
10
43.2
20
183
0
SEQEND
0
POLYLINE
8
L0D0_0
70
1
40
0
41
0
66
1
0
VERTEX
8
L0D0_0
10
51.6
20
183
0
VERTEX
8
L0D0_0
10
51.6
20
185
0
VERTEX
8
L0D0_0
10
52.35
20
185
0
VERTEX
8
L0D0_0
10
52.35
20
191
0
VERTEX
8
L0D0_0
10
51.6
20
191
0
VERTEX
8
L0D0_0
10
51.6
20
193
0
VERTEX
8
L0D0_0
10
55.6
20
193
0
VERTEX
8
L0D0_0
10
55.6
20
183
0
SEQEND
0
POLYLINE
8
L0D0_0
70
1
40
0
41
0
66
1
0
VERTEX
8
L0D0_0
10
75.4
20
212.5
0
VERTEX
8
L0D0_0
10
75.4
20
214.25
0
VERTEX
8
L0D0_0
10
76.1
20
214.25
0
VERTEX
8
L0D0_0
10
76.1
20
220.25
0
VERTEX
8
L0D0_0
10
75.4
20
220.25
0
VERTEX
8
L0D0_0
10
75.4
20
222
0
VERTEX
8
L0D0_0
10
82.4
20
222
0
VERTEX
8
L0D0_0
10
82.4
20
212.5
0
SEQEND
0
POLYLINE
8
L0D0_0
70
1
40
0
41
0
66
1
0
VERTEX
8
L0D0_0
10
90.8
20
212.5
0
VERTEX
8
L0D0_0
10
90.8
20
214.25
0
VERTEX
8
L0D0_0
10
91.5
20
214.25
0
VERTEX
8
L0D0_0
10
91.5
20
220.25
0
VERTEX
8
L0D0_0
10
90.8
20
220.25
0
VERTEX
8
L0D0_0
10
90.8
20
222
0
VERTEX
8
L0D0_0
10
96.8
20
222
0
VERTEX
8
L0D0_0
10
96.8
20
212.5
0
SEQEND
0
POLYLINE
8
L0D0_0
70
1
40
0
41
0
66
1
0
VERTEX
8
L0D0_0
10
64
20
183
0
VERTEX
8
L0D0_0
10
64
20
185
0
VERTEX
8
L0D0_0
10
64.75
20
185
0
VERTEX
8
L0D0_0
10
64.75
20
191
0
VERTEX
8
L0D0_0
10
64
20
191
0
VERTEX
8
L0D0_0
10
64
20
193
0
VERTEX
8
L0D0_0
10
67
20
193
0
VERTEX
8
L0D0_0
10
67
20
183
0
SEQEND
0
POLYLINE
8
L0D0_0
70
1
40
0
41
0
66
1
0
VERTEX
8
L0D0_0
10
8.4
20
199
0
VERTEX
8
L0D0_0
10
8.4
20
199.75
0
VERTEX
8
L0D0_0
10
9.15
20
199.75
0
VERTEX
8
L0D0_0
10
9.15
20
205.75
0
VERTEX
8
L0D0_0
10
8.4
20
205.75
0
VERTEX
8
L0D0_0
10
8.4
20
206.5
0
VERTEX
8
L0D0_0
10
15.4
20
206.5
0
VERTEX
8
L0D0_0
10
15.4
20
199
0
SEQEND
0
POLYLINE
8
L0D0_0
70
1
40
0
41
0
66
1
0
VERTEX
8
L0D0_0
10
23.8
20
199
0
VERTEX
8
L0D0_0
10
23.8
20
199.75
0
VERTEX
8
L0D0_0
10
24.55
20
199.75
0
VERTEX
8
L0D0_0
10
24.55
20
205.75
0
VERTEX
8
L0D0_0
10
23.8
20
205.75
0
VERTEX
8
L0D0_0
10
23.8
20
206.5
0
VERTEX
8
L0D0_0
10
29.8
20
206.5
0
VERTEX
8
L0D0_0
10
29.8
20
199
0
SEQEND
0
POLYLINE
8
L0D0_0
70
1
40
0
41
0
66
1
0
VERTEX
8
L0D0_0
10
8.4
20
212.5
0
VERTEX
8
L0D0_0
10
8.4
20
214.5
0
VERTEX
8
L0D0_0
10
9.1
20
214.5
0
VERTEX
8
L0D0_0
10
9.1
20
220.5
0
VERTEX
8
L0D0_0
10
8.4
20
220.5
0
VERTEX
8
L0D0_0
10
8.4
20
222.5
0
VERTEX
8
L0D0_0
10
15.4
20
222.5
0
VERTEX
8
L0D0_0
10
15.4
20
212.5
0
SEQEND
0
POLYLINE
8
L0D0_0
70
1
40
0
41
0
66
1
0
VERTEX
8
L0D0_0
10
23.8
20
212.5
0
VERTEX
8
L0D0_0
10
23.8
20
214.5
0
VERTEX
8
L0D0_0
10
24.5
20
214.5
0
VERTEX
8
L0D0_0
10
24.5
20
220.5
0
VERTEX
8
L0D0_0
10
23.8
20
220.5
0
VERTEX
8
L0D0_0
10
23.8
20
222.5
0
VERTEX
8
L0D0_0
10
29.8
20
222.5
0
VERTEX
8
L0D0_0
10
29.8
20
212.5
0
SEQEND
0
POLYLINE
8
L0D0_0
70
1
40
0
41
0
66
1
0
VERTEX
8
L0D0_0
10
38.2
20
212.5
0
VERTEX
8
L0D0_0
10
38.2
20
214.5
0
VERTEX
8
L0D0_0
10
38.9
20
214.5
0
VERTEX
8
L0D0_0
10
38.9
20
220.5
0
VERTEX
8
L0D0_0
10
38.2
20
220.5
0
VERTEX
8
L0D0_0
10
38.2
20
222.5
0
VERTEX
8
L0D0_0
10
43.2
20
222.5
0
VERTEX
8
L0D0_0
10
43.2
20
212.5
0
SEQEND
0
POLYLINE
8
L0D0_0
70
1
40
0
41
0
66
1
0
VERTEX
8
L0D0_0
10
51.6
20
212.5
0
VERTEX
8
L0D0_0
10
51.6
20
214.5
0
VERTEX
8
L0D0_0
10
52.3
20
214.5
0
VERTEX
8
L0D0_0
10
52.3
20
220.5
0
VERTEX
8
L0D0_0
10
51.6
20
220.5
0
VERTEX
8
L0D0_0
10
51.6
20
222.5
0
VERTEX
8
L0D0_0
10
55.6
20
222.5
0
VERTEX
8
L0D0_0
10
55.6
20
212.5
0
SEQEND
0
POLYLINE
8
L0D0_0
70
1
40
0
41
0
66
1
0
VERTEX
8
L0D0_0
10
64
20
212.5
0
VERTEX
8
L0D0_0
10
64
20
214.5
0
VERTEX
8
L0D0_0
10
64.7
20
214.5
0
VERTEX
8
L0D0_0
10
64.7
20
220.5
0
VERTEX
8
L0D0_0
10
64
20
220.5
0
VERTEX
8
L0D0_0
10
64
20
222.5
0
VERTEX
8
L0D0_0
10
67
20
222.5
0
VERTEX
8
L0D0_0
10
67
20
212.5
0
SEQEND
0
POLYLINE
8
L0D0_0
70
1
40
0
41
0
66
1
0
VERTEX
8
L0D0_0
10
8.4
20
228.5
0
VERTEX
8
L0D0_0
10
8.4
20
229.25
0
VERTEX
8
L0D0_0
10
9.1
20
229.25
0
VERTEX
8
L0D0_0
10
9.1
20
235.25
0
VERTEX
8
L0D0_0
10
8.4
20
235.25
0
VERTEX
8
L0D0_0
10
8.4
20
236
0
VERTEX
8
L0D0_0
10
15.4
20
236
0
VERTEX
8
L0D0_0
10
15.4
20
228.5
0
SEQEND
0
POLYLINE
8
L0D0_0
70
1
40
0
41
0
66
1
0
VERTEX
8
L0D0_0
10
75.4
20
271.5
0
VERTEX
8
L0D0_0
10
75.4
20
273.25
0
VERTEX
8
L0D0_0
10
76
20
273.25
0
VERTEX
8
L0D0_0
10
76
20
279.25
0
VERTEX
8
L0D0_0
10
75.4
20
279.25
0
VERTEX
8
L0D0_0
10
75.4
20
281
0
VERTEX
8
L0D0_0
10
82.4
20
281
0
VERTEX
8
L0D0_0
10
82.4
20
271.5
0
SEQEND
0
POLYLINE
8
L0D0_0
70
1
40
0
41
0
66
1
0
VERTEX
8
L0D0_0
10
90.8
20
271.5
0
VERTEX
8
L0D0_0
10
90.8
20
273.5
0
VERTEX
8
L0D0_0
10
91.4
20
273.5
0
VERTEX
8
L0D0_0
10
91.4
20
279.25
0
VERTEX
8
L0D0_0
10
90.8
20
279.25
0
VERTEX
8
L0D0_0
10
90.8
20
281
0
VERTEX
8
L0D0_0
10
96.8
20
281
0
VERTEX
8
L0D0_0
10
96.8
20
271.5
0
SEQEND
0
POLYLINE
8
L0D0_0
70
1
40
0
41
0
66
1
0
VERTEX
8
L0D0_0
10
23.8
20
228.5
0
VERTEX
8
L0D0_0
10
23.8
20
229.25
0
VERTEX
8
L0D0_0
10
24.5
20
229.25
0
VERTEX
8
L0D0_0
10
24.5
20
235.25
0
VERTEX
8
L0D0_0
10
23.8
20
235.25
0
VERTEX
8
L0D0_0
10
23.8
20
236
0
VERTEX
8
L0D0_0
10
29.8
20
236
0
VERTEX
8
L0D0_0
10
29.8
20
228.5
0
SEQEND
0
POLYLINE
8
L0D0_0
70
1
40
0
41
0
66
1
0
VERTEX
8
L0D0_0
10
38.2
20
228.5
0
VERTEX
8
L0D0_0
10
38.2
20
229.25
0
VERTEX
8
L0D0_0
10
38.9
20
229.25
0
VERTEX
8
L0D0_0
10
38.9
20
235.25
0
VERTEX
8
L0D0_0
10
38.2
20
235.25
0
VERTEX
8
L0D0_0
10
38.2
20
236
0
VERTEX
8
L0D0_0
10
43.2
20
236
0
VERTEX
8
L0D0_0
10
43.2
20
228.5
0
SEQEND
0
POLYLINE
8
L0D0_0
70
1
40
0
41
0
66
1
0
VERTEX
8
L0D0_0
10
51.6
20
228.5
0
VERTEX
8
L0D0_0
10
51.6
20
229.25
0
VERTEX
8
L0D0_0
10
52.3
20
229.25
0
VERTEX
8
L0D0_0
10
52.3
20
235.25
0
VERTEX
8
L0D0_0
10
51.6
20
235.25
0
VERTEX
8
L0D0_0
10
51.6
20
236
0
VERTEX
8
L0D0_0
10
55.6
20
236
0
VERTEX
8
L0D0_0
10
55.6
20
228.5
0
SEQEND
0
POLYLINE
8
L0D0_0
70
1
40
0
41
0
66
1
0
VERTEX
8
L0D0_0
10
8.4
20
271.5
0
VERTEX
8
L0D0_0
10
8.4
20
273.5
0
VERTEX
8
L0D0_0
10
9
20
273.5
0
VERTEX
8
L0D0_0
10
9
20
279.5
0
VERTEX
8
L0D0_0
10
8.4
20
279.5
0
VERTEX
8
L0D0_0
10
8.4
20
281.5
0
VERTEX
8
L0D0_0
10
15.4
20
281.5
0
VERTEX
8
L0D0_0
10
15.4
20
271.5
0
SEQEND
0
POLYLINE
8
L0D0_0
70
1
40
0
41
0
66
1
0
VERTEX
8
L0D0_0
10
23.8
20
271.5
0
VERTEX
8
L0D0_0
10
23.8
20
273.5
0
VERTEX
8
L0D0_0
10
24.4
20
273.5
0
VERTEX
8
L0D0_0
10
24.4
20
279.5
0
VERTEX
8
L0D0_0
10
23.8
20
279.5
0
VERTEX
8
L0D0_0
10
23.8
20
281.5
0
VERTEX
8
L0D0_0
10
29.8
20
281.5
0
VERTEX
8
L0D0_0
10
29.8
20
271.5
0
SEQEND
0
POLYLINE
8
L0D0_0
70
1
40
0
41
0
66
1
0
VERTEX
8
L0D0_0
10
38.2
20
271.5
0
VERTEX
8
L0D0_0
10
38.2
20
273.5
0
VERTEX
8
L0D0_0
10
38.8
20
273.5
0
VERTEX
8
L0D0_0
10
38.8
20
279.5
0
VERTEX
8
L0D0_0
10
38.2
20
279.5
0
VERTEX
8
L0D0_0
10
38.2
20
281.5
0
VERTEX
8
L0D0_0
10
43.2
20
281.5
0
VERTEX
8
L0D0_0
10
43.2
20
271.5
0
SEQEND
0
POLYLINE
8
L0D0_0
70
1
40
0
41
0
66
1
0
VERTEX
8
L0D0_0
10
51.6
20
271.5
0
VERTEX
8
L0D0_0
10
51.6
20
273.5
0
VERTEX
8
L0D0_0
10
52.2
20
273.5
0
VERTEX
8
L0D0_0
10
52.2
20
279.5
0
VERTEX
8
L0D0_0
10
51.6
20
279.5
0
VERTEX
8
L0D0_0
10
51.6
20
281.5
0
VERTEX
8
L0D0_0
10
55.6
20
281.5
0
VERTEX
8
L0D0_0
10
55.6
20
271.5
0
SEQEND
0
POLYLINE
8
L0D0_0
70
1
40
0
41
0
66
1
0
VERTEX
8
L0D0_0
10
64
20
271.5
0
VERTEX
8
L0D0_0
10
64
20
273.5
0
VERTEX
8
L0D0_0
10
64.6
20
273.5
0
VERTEX
8
L0D0_0
10
64.6
20
279.5
0
VERTEX
8
L0D0_0
10
64
20
279.5
0
VERTEX
8
L0D0_0
10
64
20
281.5
0
VERTEX
8
L0D0_0
10
67
20
281.5
0
VERTEX
8
L0D0_0
10
67
20
271.5
0
SEQEND
0
POLYLINE
8
L0D0_0
70
1
40
0
41
0
66
1
0
VERTEX
8
L0D0_0
10
8.4
20
287.5
0
VERTEX
8
L0D0_0
10
8.4
20
288.25
0
VERTEX
8
L0D0_0
10
9
20
288.25
0
VERTEX
8
L0D0_0
10
9
20
294.25
0
VERTEX
8
L0D0_0
10
8.4
20
294.25
0
VERTEX
8
L0D0_0
10
8.4
20
295
0
VERTEX
8
L0D0_0
10
15.4
20
295
0
VERTEX
8
L0D0_0
10
15.4
20
287.5
0
SEQEND
0
POLYLINE
8
L0D0_0
70
1
40
0
41
0
66
1
0
VERTEX
8
L0D0_0
10
23.8
20
287.5
0
VERTEX
8
L0D0_0
10
23.8
20
288.25
0
VERTEX
8
L0D0_0
10
24.4
20
288.25
0
VERTEX
8
L0D0_0
10
24.4
20
294.25
0
VERTEX
8
L0D0_0
10
23.8
20
294.25
0
VERTEX
8
L0D0_0
10
23.8
20
295
0
VERTEX
8
L0D0_0
10
29.8
20
295
0
VERTEX
8
L0D0_0
10
29.8
20
287.5
0
SEQEND
0
POLYLINE
8
L0D0_0
70
1
40
0
41
0
66
1
0
VERTEX
8
L0D0_0
10
38.2
20
287.5
0
VERTEX
8
L0D0_0
10
38.2
20
288.25
0
VERTEX
8
L0D0_0
10
38.8
20
288.25
0
VERTEX
8
L0D0_0
10
38.8
20
294.25
0
VERTEX
8
L0D0_0
10
38.2
20
294.25
0
VERTEX
8
L0D0_0
10
38.2
20
295
0
VERTEX
8
L0D0_0
10
43.2
20
295
0
VERTEX
8
L0D0_0
10
43.2
20
287.5
0
SEQEND
0
POLYLINE
8
L0D0_0
70
1
40
0
41
0
66
1
0
VERTEX
8
L0D0_0
10
51.6
20
287.5
0
VERTEX
8
L0D0_0
10
51.6
20
288.25
0
VERTEX
8
L0D0_0
10
52.2
20
288.25
0
VERTEX
8
L0D0_0
10
52.2
20
294.25
0
VERTEX
8
L0D0_0
10
51.6
20
294.25
0
VERTEX
8
L0D0_0
10
51.6
20
295
0
VERTEX
8
L0D0_0
10
55.6
20
295
0
VERTEX
8
L0D0_0
10
55.6
20
287.5
0
SEQEND
0
POLYLINE
8
L0D0_0
70
1
40
0
41
0
66
1
0
VERTEX
8
L0D0_0
10
64
20
287.5
0
VERTEX
8
L0D0_0
10
64
20
288.25
0
VERTEX
8
L0D0_0
10
64.6
20
288.25
0
VERTEX
8
L0D0_0
10
64.6
20
294.25
0
VERTEX
8
L0D0_0
10
64
20
294.25
0
VERTEX
8
L0D0_0
10
64
20
295
0
VERTEX
8
L0D0_0
10
67
20
295
0
VERTEX
8
L0D0_0
10
67
20
287.5
0
SEQEND
0
POLYLINE
8
L0D0_0
70
1
40
0
41
0
66
1
0
VERTEX
8
L0D0_0
10
75.4
20
287
0
VERTEX
8
L0D0_0
10
75.4
20
288
0
VERTEX
8
L0D0_0
10
76
20
288
0
VERTEX
8
L0D0_0
10
76
20
294
0
VERTEX
8
L0D0_0
10
75.4
20
294
0
VERTEX
8
L0D0_0
10
75.4
20
295
0
VERTEX
8
L0D0_0
10
82.4
20
295
0
VERTEX
8
L0D0_0
10
82.4
20
287
0
SEQEND
0
POLYLINE
8
L0D0_0
70
1
40
0
41
0
66
1
0
VERTEX
8
L0D0_0
10
90.8
20
287
0
VERTEX
8
L0D0_0
10
90.8
20
288
0
VERTEX
8
L0D0_0
10
91.4
20
288
0
VERTEX
8
L0D0_0
10
91.4
20
294
0
VERTEX
8
L0D0_0
10
90.8
20
294
0
VERTEX
8
L0D0_0
10
90.8
20
295
0
VERTEX
8
L0D0_0
10
96.8
20
295
0
VERTEX
8
L0D0_0
10
96.8
20
287
0
SEQEND
0
POLYLINE
8
L0D0_0
70
1
40
0
41
0
66
1
0
VERTEX
8
L0D0_0
10
64
20
228.5
0
VERTEX
8
L0D0_0
10
64
20
229.25
0
VERTEX
8
L0D0_0
10
64.7
20
229.25
0
VERTEX
8
L0D0_0
10
64.7
20
235.25
0
VERTEX
8
L0D0_0
10
64
20
235.25
0
VERTEX
8
L0D0_0
10
64
20
236
0
VERTEX
8
L0D0_0
10
67
20
236
0
VERTEX
8
L0D0_0
10
67
20
228.5
0
SEQEND
0
POLYLINE
8
L0D0_0
70
1
40
0
41
0
66
1
0
VERTEX
8
L0D0_0
10
75.4
20
228
0
VERTEX
8
L0D0_0
10
75.4
20
229
0
VERTEX
8
L0D0_0
10
76.1
20
229
0
VERTEX
8
L0D0_0
10
76.1
20
235
0
VERTEX
8
L0D0_0
10
75.4
20
235
0
VERTEX
8
L0D0_0
10
75.4
20
236
0
VERTEX
8
L0D0_0
10
82.4
20
236
0
VERTEX
8
L0D0_0
10
82.4
20
228
0
SEQEND
0
POLYLINE
8
L0D0_0
70
1
40
0
41
0
66
1
0
VERTEX
8
L0D0_0
10
90.8
20
228
0
VERTEX
8
L0D0_0
10
90.8
20
229
0
VERTEX
8
L0D0_0
10
91.5
20
229
0
VERTEX
8
L0D0_0
10
91.5
20
235
0
VERTEX
8
L0D0_0
10
90.8
20
235
0
VERTEX
8
L0D0_0
10
90.8
20
236
0
VERTEX
8
L0D0_0
10
96.8
20
236
0
VERTEX
8
L0D0_0
10
96.8
20
228
0
SEQEND
0
POLYLINE
8
L0D0_0
70
1
40
0
41
0
66
1
0
VERTEX
8
L0D0_0
10
38.2
20
199
0
VERTEX
8
L0D0_0
10
38.2
20
199.75
0
VERTEX
8
L0D0_0
10
38.95
20
199.75
0
VERTEX
8
L0D0_0
10
38.95
20
205.75
0
VERTEX
8
L0D0_0
10
38.2
20
205.75
0
VERTEX
8
L0D0_0
10
38.2
20
206.5
0
VERTEX
8
L0D0_0
10
43.2
20
206.5
0
VERTEX
8
L0D0_0
10
43.2
20
199
0
SEQEND
0
POLYLINE
8
L0D0_0
70
1
40
0
41
0
66
1
0
VERTEX
8
L0D0_0
10
51.6
20
199
0
VERTEX
8
L0D0_0
10
51.6
20
199.75
0
VERTEX
8
L0D0_0
10
52.35
20
199.75
0
VERTEX
8
L0D0_0
10
52.35
20
205.75
0
VERTEX
8
L0D0_0
10
51.6
20
205.75
0
VERTEX
8
L0D0_0
10
51.6
20
206.5
0
VERTEX
8
L0D0_0
10
55.6
20
206.5
0
VERTEX
8
L0D0_0
10
55.6
20
199
0
SEQEND
0
POLYLINE
8
L0D0_0
70
1
40
0
41
0
66
1
0
VERTEX
8
L0D0_0
10
64
20
199
0
VERTEX
8
L0D0_0
10
64
20
199.75
0
VERTEX
8
L0D0_0
10
64.75
20
199.75
0
VERTEX
8
L0D0_0
10
64.75
20
205.75
0
VERTEX
8
L0D0_0
10
64
20
205.75
0
VERTEX
8
L0D0_0
10
64
20
206.5
0
VERTEX
8
L0D0_0
10
67
20
206.5
0
VERTEX
8
L0D0_0
10
67
20
199
0
SEQEND
0
POLYLINE
8
L0D0_0
70
1
40
0
41
0
66
1
0
VERTEX
8
L0D0_0
10
75.4
20
198.5
0
VERTEX
8
L0D0_0
10
75.4
20
199.5
0
VERTEX
8
L0D0_0
10
76.15
20
199.5
0
VERTEX
8
L0D0_0
10
76.15
20
205.5
0
VERTEX
8
L0D0_0
10
75.4
20
205.5
0
VERTEX
8
L0D0_0
10
75.4
20
206.5
0
VERTEX
8
L0D0_0
10
82.4
20
206.5
0
VERTEX
8
L0D0_0
10
82.4
20
198.5
0
SEQEND
0
POLYLINE
8
L0D0_0
70
1
40
0
41
0
66
1
0
VERTEX
8
L0D0_0
10
90.8
20
198.5
0
VERTEX
8
L0D0_0
10
90.8
20
199.5
0
VERTEX
8
L0D0_0
10
91.55
20
199.5
0
VERTEX
8
L0D0_0
10
91.55
20
205.5
0
VERTEX
8
L0D0_0
10
90.8
20
205.5
0
VERTEX
8
L0D0_0
10
90.8
20
206.5
0
VERTEX
8
L0D0_0
10
96.8
20
206.5
0
VERTEX
8
L0D0_0
10
96.8
20
198.5
0
SEQEND
0
POLYLINE
8
L0D0_0
70
1
40
0
41
0
66
1
0
VERTEX
8
L0D0_0
10
38.2
20
169.5
0
VERTEX
8
L0D0_0
10
38.2
20
170.25
0
VERTEX
8
L0D0_0
10
39
20
170.25
0
VERTEX
8
L0D0_0
10
39
20
176.25
0
VERTEX
8
L0D0_0
10
38.2
20
176.25
0
VERTEX
8
L0D0_0
10
38.2
20
177
0
VERTEX
8
L0D0_0
10
43.2
20
177
0
VERTEX
8
L0D0_0
10
43.2
20
169.5
0
SEQEND
0
POLYLINE
8
L0D0_0
70
1
40
0
41
0
66
1
0
VERTEX
8
L0D0_0
10
51.6
20
51.5
0
VERTEX
8
L0D0_0
10
51.6
20
52.25
0
VERTEX
8
L0D0_0
10
52.6
20
52.25
0
VERTEX
8
L0D0_0
10
52.6
20
58.25
0
VERTEX
8
L0D0_0
10
51.6
20
58.25
0
VERTEX
8
L0D0_0
10
51.6
20
59
0
VERTEX
8
L0D0_0
10
55.6
20
59
0
VERTEX
8
L0D0_0
10
55.6
20
51.5
0
SEQEND
0
POLYLINE
8
L0D0_0
70
1
40
0
41
0
66
1
0
VERTEX
8
L0D0_0
10
64
20
51.5
0
VERTEX
8
L0D0_0
10
64
20
52.25
0
VERTEX
8
L0D0_0
10
65
20
52.25
0
VERTEX
8
L0D0_0
10
65
20
58.25
0
VERTEX
8
L0D0_0
10
64
20
58.25
0
VERTEX
8
L0D0_0
10
64
20
59
0
VERTEX
8
L0D0_0
10
67
20
59
0
VERTEX
8
L0D0_0
10
67
20
51.5
0
SEQEND
0
POLYLINE
8
L0D0_0
70
1
40
0
41
0
66
1
0
VERTEX
8
L0D0_0
10
75.4
20
51
0
VERTEX
8
L0D0_0
10
75.4
20
52
0
VERTEX
8
L0D0_0
10
76.4
20
52
0
VERTEX
8
L0D0_0
10
76.4
20
58
0
VERTEX
8
L0D0_0
10
75.4
20
58
0
VERTEX
8
L0D0_0
10
75.4
20
59
0
VERTEX
8
L0D0_0
10
82.4
20
59
0
VERTEX
8
L0D0_0
10
82.4
20
51
0
SEQEND
0
POLYLINE
8
L0D0_0
70
1
40
0
41
0
66
1
0
VERTEX
8
L0D0_0
10
90.8
20
51
0
VERTEX
8
L0D0_0
10
90.8
20
52
0
VERTEX
8
L0D0_0
10
91.8
20
52
0
VERTEX
8
L0D0_0
10
91.8
20
58
0
VERTEX
8
L0D0_0
10
90.8
20
58
0
VERTEX
8
L0D0_0
10
90.8
20
59
0
VERTEX
8
L0D0_0
10
96.8
20
59
0
VERTEX
8
L0D0_0
10
96.8
20
51
0
SEQEND
0
POLYLINE
8
L0D0_0
70
1
40
0
41
0
66
1
0
VERTEX
8
L0D0_0
10
75.4
20
65
0
VERTEX
8
L0D0_0
10
75.4
20
66.75
0
VERTEX
8
L0D0_0
10
76.35
20
66.75
0
VERTEX
8
L0D0_0
10
76.35
20
72.75
0
VERTEX
8
L0D0_0
10
75.4
20
72.75
0
VERTEX
8
L0D0_0
10
75.4
20
74.5
0
VERTEX
8
L0D0_0
10
82.4
20
74.5
0
VERTEX
8
L0D0_0
10
82.4
20
65
0
SEQEND
0
POLYLINE
8
L0D0_0
70
1
40
0
41
0
66
1
0
VERTEX
8
L0D0_0
10
90.8
20
65
0
VERTEX
8
L0D0_0
10
90.8
20
66.75
0
VERTEX
8
L0D0_0
10
91.75
20
66.75
0
VERTEX
8
L0D0_0
10
91.75
20
72.75
0
VERTEX
8
L0D0_0
10
90.8
20
72.75
0
VERTEX
8
L0D0_0
10
90.8
20
74.5
0
VERTEX
8
L0D0_0
10
96.8
20
74.5
0
VERTEX
8
L0D0_0
10
96.8
20
65
0
SEQEND
0
POLYLINE
8
L0D0_0
70
1
40
0
41
0
66
1
0
VERTEX
8
L0D0_0
10
8.4
20
65
0
VERTEX
8
L0D0_0
10
8.4
20
67
0
VERTEX
8
L0D0_0
10
9.35
20
67
0
VERTEX
8
L0D0_0
10
9.35
20
73
0
VERTEX
8
L0D0_0
10
8.4
20
73
0
VERTEX
8
L0D0_0
10
8.4
20
75
0
VERTEX
8
L0D0_0
10
15.4
20
75
0
VERTEX
8
L0D0_0
10
15.4
20
65
0
SEQEND
0
POLYLINE
8
L0D0_0
70
1
40
0
41
0
66
1
0
VERTEX
8
L0D0_0
10
23.8
20
65
0
VERTEX
8
L0D0_0
10
23.8
20
67
0
VERTEX
8
L0D0_0
10
24.75
20
67
0
VERTEX
8
L0D0_0
10
24.75
20
73
0
VERTEX
8
L0D0_0
10
23.8
20
73
0
VERTEX
8
L0D0_0
10
23.8
20
75
0
VERTEX
8
L0D0_0
10
29.8
20
75
0
VERTEX
8
L0D0_0
10
29.8
20
65
0
SEQEND
0
POLYLINE
8
L0D0_0
70
1
40
0
41
0
66
1
0
VERTEX
8
L0D0_0
10
38.2
20
65
0
VERTEX
8
L0D0_0
10
38.2
20
67
0
VERTEX
8
L0D0_0
10
39.15
20
67
0
VERTEX
8
L0D0_0
10
39.15
20
73
0
VERTEX
8
L0D0_0
10
38.2
20
73
0
VERTEX
8
L0D0_0
10
38.2
20
75
0
VERTEX
8
L0D0_0
10
43.2
20
75
0
VERTEX
8
L0D0_0
10
43.2
20
65
0
SEQEND
0
POLYLINE
8
L0D0_0
70
1
40
0
41
0
66
1
0
VERTEX
8
L0D0_0
10
51.6
20
65
0
VERTEX
8
L0D0_0
10
51.6
20
67
0
VERTEX
8
L0D0_0
10
52.55
20
67
0
VERTEX
8
L0D0_0
10
52.55
20
73
0
VERTEX
8
L0D0_0
10
51.6
20
73
0
VERTEX
8
L0D0_0
10
51.6
20
75
0
VERTEX
8
L0D0_0
10
55.6
20
75
0
VERTEX
8
L0D0_0
10
55.6
20
65
0
SEQEND
0
POLYLINE
8
L0D0_0
70
1
40
0
41
0
66
1
0
VERTEX
8
L0D0_0
10
64
20
65
0
VERTEX
8
L0D0_0
10
64
20
67
0
VERTEX
8
L0D0_0
10
64.95
20
67
0
VERTEX
8
L0D0_0
10
64.95
20
73
0
VERTEX
8
L0D0_0
10
64
20
73
0
VERTEX
8
L0D0_0
10
64
20
75
0
VERTEX
8
L0D0_0
10
67
20
75
0
VERTEX
8
L0D0_0
10
67
20
65
0
SEQEND
0
POLYLINE
8
L0D0_0
70
1
40
0
41
0
66
1
0
VERTEX
8
L0D0_0
10
8.4
20
81
0
VERTEX
8
L0D0_0
10
8.4
20
81.75
0
VERTEX
8
L0D0_0
10
9.35
20
81.75
0
VERTEX
8
L0D0_0
10
9.35
20
87.75
0
VERTEX
8
L0D0_0
10
8.4
20
87.75
0
VERTEX
8
L0D0_0
10
8.4
20
88.5
0
VERTEX
8
L0D0_0
10
15.4
20
88.5
0
VERTEX
8
L0D0_0
10
15.4
20
81
0
SEQEND
0
POLYLINE
8
L0D0_0
70
1
40
0
41
0
66
1
0
VERTEX
8
L0D0_0
10
23.8
20
81
0
VERTEX
8
L0D0_0
10
23.8
20
81.75
0
VERTEX
8
L0D0_0
10
24.75
20
81.75
0
VERTEX
8
L0D0_0
10
24.75
20
87.75
0
VERTEX
8
L0D0_0
10
23.8
20
87.75
0
VERTEX
8
L0D0_0
10
23.8
20
88.5
0
VERTEX
8
L0D0_0
10
29.8
20
88.5
0
VERTEX
8
L0D0_0
10
29.8
20
81
0
SEQEND
0
POLYLINE
8
L0D0_0
70
1
40
0
41
0
66
1
0
VERTEX
8
L0D0_0
10
38.2
20
81
0
VERTEX
8
L0D0_0
10
38.2
20
81.75
0
VERTEX
8
L0D0_0
10
39.15
20
81.75
0
VERTEX
8
L0D0_0
10
39.15
20
87.75
0
VERTEX
8
L0D0_0
10
38.2
20
87.75
0
VERTEX
8
L0D0_0
10
38.2
20
88.5
0
VERTEX
8
L0D0_0
10
43.2
20
88.5
0
VERTEX
8
L0D0_0
10
43.2
20
81
0
SEQEND
0
POLYLINE
8
L0D0_0
70
1
40
0
41
0
66
1
0
VERTEX
8
L0D0_0
10
51.6
20
81
0
VERTEX
8
L0D0_0
10
51.6
20
81.75
0
VERTEX
8
L0D0_0
10
52.55
20
81.75
0
VERTEX
8
L0D0_0
10
52.55
20
87.75
0
VERTEX
8
L0D0_0
10
51.6
20
87.75
0
VERTEX
8
L0D0_0
10
51.6
20
88.5
0
VERTEX
8
L0D0_0
10
55.6
20
88.5
0
VERTEX
8
L0D0_0
10
55.6
20
81
0
SEQEND
0
POLYLINE
8
L0D0_0
70
1
40
0
41
0
66
1
0
VERTEX
8
L0D0_0
10
64
20
81
0
VERTEX
8
L0D0_0
10
64
20
81.75
0
VERTEX
8
L0D0_0
10
64.95
20
81.75
0
VERTEX
8
L0D0_0
10
64.95
20
87.75
0
VERTEX
8
L0D0_0
10
64
20
87.75
0
VERTEX
8
L0D0_0
10
64
20
88.5
0
VERTEX
8
L0D0_0
10
67
20
88.5
0
VERTEX
8
L0D0_0
10
67
20
81
0
SEQEND
0
POLYLINE
8
L0D0_0
70
1
40
0
41
0
66
1
0
VERTEX
8
L0D0_0
10
75.4
20
80.5
0
VERTEX
8
L0D0_0
10
75.4
20
81.5
0
VERTEX
8
L0D0_0
10
76.35
20
81.5
0
VERTEX
8
L0D0_0
10
76.35
20
87.5
0
VERTEX
8
L0D0_0
10
75.4
20
87.5
0
VERTEX
8
L0D0_0
10
75.4
20
88.5
0
VERTEX
8
L0D0_0
10
82.4
20
88.5
0
VERTEX
8
L0D0_0
10
82.4
20
80.5
0
SEQEND
0
POLYLINE
8
L0D0_0
70
1
40
0
41
0
66
1
0
VERTEX
8
L0D0_0
10
90.8
20
80.5
0
VERTEX
8
L0D0_0
10
90.8
20
81.5
0
VERTEX
8
L0D0_0
10
91.75
20
81.5
0
VERTEX
8
L0D0_0
10
91.75
20
87.5
0
VERTEX
8
L0D0_0
10
90.8
20
87.5
0
VERTEX
8
L0D0_0
10
90.8
20
88.5
0
VERTEX
8
L0D0_0
10
96.8
20
88.5
0
VERTEX
8
L0D0_0
10
96.8
20
80.5
0
SEQEND
0
POLYLINE
8
L0D0_0
70
1
40
0
41
0
66
1
0
VERTEX
8
L0D0_0
10
75.4
20
94.5
0
VERTEX
8
L0D0_0
10
75.4
20
96.25
0
VERTEX
8
L0D0_0
10
76.3
20
96.25
0
VERTEX
8
L0D0_0
10
76.3
20
102.25
0
VERTEX
8
L0D0_0
10
75.4
20
102.25
0
VERTEX
8
L0D0_0
10
75.4
20
104
0
VERTEX
8
L0D0_0
10
82.4
20
104
0
VERTEX
8
L0D0_0
10
82.4
20
94.5
0
SEQEND
0
POLYLINE
8
L0D0_0
70
1
40
0
41
0
66
1
0
VERTEX
8
L0D0_0
10
90.8
20
94.5
0
VERTEX
8
L0D0_0
10
90.8
20
96.25
0
VERTEX
8
L0D0_0
10
91.7
20
96.25
0
VERTEX
8
L0D0_0
10
91.7
20
102.25
0
VERTEX
8
L0D0_0
10
90.8
20
102.25
0
VERTEX
8
L0D0_0
10
90.8
20
104
0
VERTEX
8
L0D0_0
10
96.8
20
104
0
VERTEX
8
L0D0_0
10
96.8
20
94.5
0
SEQEND
0
POLYLINE
8
L0D0_0
70
1
40
0
41
0
66
1
0
VERTEX
8
L0D0_0
10
8.4
20
94.5
0
VERTEX
8
L0D0_0
10
8.4
20
96.5
0
VERTEX
8
L0D0_0
10
9.3
20
96.5
0
VERTEX
8
L0D0_0
10
9.3
20
102.5
0
VERTEX
8
L0D0_0
10
8.4
20
102.5
0
VERTEX
8
L0D0_0
10
8.4
20
104.5
0
VERTEX
8
L0D0_0
10
15.4
20
104.5
0
VERTEX
8
L0D0_0
10
15.4
20
94.5
0
SEQEND
0
POLYLINE
8
L0D0_0
70
1
40
0
41
0
66
1
0
VERTEX
8
L0D0_0
10
23.8
20
94.5
0
VERTEX
8
L0D0_0
10
23.8
20
96.5
0
VERTEX
8
L0D0_0
10
24.7
20
96.5
0
VERTEX
8
L0D0_0
10
24.7
20
102.5
0
VERTEX
8
L0D0_0
10
23.8
20
102.5
0
VERTEX
8
L0D0_0
10
23.8
20
104.5
0
VERTEX
8
L0D0_0
10
29.8
20
104.5
0
VERTEX
8
L0D0_0
10
29.8
20
94.5
0
SEQEND
0
POLYLINE
8
L0D0_0
70
1
40
0
41
0
66
1
0
VERTEX
8
L0D0_0
10
38.2
20
94.5
0
VERTEX
8
L0D0_0
10
38.2
20
96.5
0
VERTEX
8
L0D0_0
10
39.1
20
96.5
0
VERTEX
8
L0D0_0
10
39.1
20
102.5
0
VERTEX
8
L0D0_0
10
38.2
20
102.5
0
VERTEX
8
L0D0_0
10
38.2
20
104.5
0
VERTEX
8
L0D0_0
10
43.2
20
104.5
0
VERTEX
8
L0D0_0
10
43.2
20
94.5
0
SEQEND
0
POLYLINE
8
L0D0_0
70
1
40
0
41
0
66
1
0
VERTEX
8
L0D0_0
10
51.6
20
94.5
0
VERTEX
8
L0D0_0
10
51.6
20
96.5
0
VERTEX
8
L0D0_0
10
52.5
20
96.5
0
VERTEX
8
L0D0_0
10
52.5
20
102.5
0
VERTEX
8
L0D0_0
10
51.6
20
102.5
0
VERTEX
8
L0D0_0
10
51.6
20
104.5
0
VERTEX
8
L0D0_0
10
55.6
20
104.5
0
VERTEX
8
L0D0_0
10
55.6
20
94.5
0
SEQEND
0
POLYLINE
8
L0D0_0
70
1
40
0
41
0
66
1
0
VERTEX
8
L0D0_0
10
64
20
94.5
0
VERTEX
8
L0D0_0
10
64
20
96.5
0
VERTEX
8
L0D0_0
10
64.9
20
96.5
0
VERTEX
8
L0D0_0
10
64.9
20
102.5
0
VERTEX
8
L0D0_0
10
64
20
102.5
0
VERTEX
8
L0D0_0
10
64
20
104.5
0
VERTEX
8
L0D0_0
10
67
20
104.5
0
VERTEX
8
L0D0_0
10
67
20
94.5
0
SEQEND
0
POLYLINE
8
L0D0_0
70
1
40
0
41
0
66
1
0
VERTEX
8
L0D0_0
10
8.4
20
110.5
0
VERTEX
8
L0D0_0
10
8.4
20
111.25
0
VERTEX
8
L0D0_0
10
9.3
20
111.25
0
VERTEX
8
L0D0_0
10
9.3
20
117.25
0
VERTEX
8
L0D0_0
10
8.4
20
117.25
0
VERTEX
8
L0D0_0
10
8.4
20
118
0
VERTEX
8
L0D0_0
10
15.4
20
118
0
VERTEX
8
L0D0_0
10
15.4
20
110.5
0
SEQEND
0
POLYLINE
8
L0D0_0
70
1
40
0
41
0
66
1
0
VERTEX
8
L0D0_0
10
23.8
20
110.5
0
VERTEX
8
L0D0_0
10
23.8
20
111.25
0
VERTEX
8
L0D0_0
10
24.7
20
111.25
0
VERTEX
8
L0D0_0
10
24.7
20
117.25
0
VERTEX
8
L0D0_0
10
23.8
20
117.25
0
VERTEX
8
L0D0_0
10
23.8
20
118
0
VERTEX
8
L0D0_0
10
29.8
20
118
0
VERTEX
8
L0D0_0
10
29.8
20
110.5
0
SEQEND
0
POLYLINE
8
L0D0_0
70
1
40
0
41
0
66
1
0
VERTEX
8
L0D0_0
10
38.2
20
110.5
0
VERTEX
8
L0D0_0
10
38.2
20
111.25
0
VERTEX
8
L0D0_0
10
39.1
20
111.25
0
VERTEX
8
L0D0_0
10
39.1
20
117.25
0
VERTEX
8
L0D0_0
10
38.2
20
117.25
0
VERTEX
8
L0D0_0
10
38.2
20
118
0
VERTEX
8
L0D0_0
10
43.2
20
118
0
VERTEX
8
L0D0_0
10
43.2
20
110.5
0
SEQEND
0
POLYLINE
8
L0D0_0
70
1
40
0
41
0
66
1
0
VERTEX
8
L0D0_0
10
51.6
20
110.5
0
VERTEX
8
L0D0_0
10
51.6
20
111.25
0
VERTEX
8
L0D0_0
10
52.5
20
111.25
0
VERTEX
8
L0D0_0
10
52.5
20
117.25
0
VERTEX
8
L0D0_0
10
51.6
20
117.25
0
VERTEX
8
L0D0_0
10
51.6
20
118
0
VERTEX
8
L0D0_0
10
55.6
20
118
0
VERTEX
8
L0D0_0
10
55.6
20
110.5
0
SEQEND
0
POLYLINE
8
L0D0_0
70
1
40
0
41
0
66
1
0
VERTEX
8
L0D0_0
10
64
20
110.5
0
VERTEX
8
L0D0_0
10
64
20
111.25
0
VERTEX
8
L0D0_0
10
64.9
20
111.25
0
VERTEX
8
L0D0_0
10
64.9
20
117.25
0
VERTEX
8
L0D0_0
10
64
20
117.25
0
VERTEX
8
L0D0_0
10
64
20
118
0
VERTEX
8
L0D0_0
10
67
20
118
0
VERTEX
8
L0D0_0
10
67
20
110.5
0
SEQEND
0
POLYLINE
8
L0D0_0
70
1
40
0
41
0
66
1
0
VERTEX
8
L0D0_0
10
75.4
20
110
0
VERTEX
8
L0D0_0
10
75.4
20
111
0
VERTEX
8
L0D0_0
10
76.3
20
111
0
VERTEX
8
L0D0_0
10
76.3
20
117
0
VERTEX
8
L0D0_0
10
75.4
20
117
0
VERTEX
8
L0D0_0
10
75.4
20
118
0
VERTEX
8
L0D0_0
10
82.4
20
118
0
VERTEX
8
L0D0_0
10
82.4
20
110
0
SEQEND
0
POLYLINE
8
L0D0_0
70
1
40
0
41
0
66
1
0
VERTEX
8
L0D0_0
10
90.8
20
110
0
VERTEX
8
L0D0_0
10
90.8
20
111
0
VERTEX
8
L0D0_0
10
91.7
20
111
0
VERTEX
8
L0D0_0
10
91.7
20
117
0
VERTEX
8
L0D0_0
10
90.8
20
117
0
VERTEX
8
L0D0_0
10
90.8
20
118
0
VERTEX
8
L0D0_0
10
96.8
20
118
0
VERTEX
8
L0D0_0
10
96.8
20
110
0
SEQEND
0
POLYLINE
8
L0D0_0
70
1
40
0
41
0
66
1
0
VERTEX
8
L0D0_0
10
75.4
20
124
0
VERTEX
8
L0D0_0
10
75.4
20
125.75
0
VERTEX
8
L0D0_0
10
76.25
20
125.75
0
VERTEX
8
L0D0_0
10
76.25
20
131.75
0
VERTEX
8
L0D0_0
10
75.4
20
131.75
0
VERTEX
8
L0D0_0
10
75.4
20
133.5
0
VERTEX
8
L0D0_0
10
82.4
20
133.5
0
VERTEX
8
L0D0_0
10
82.4
20
124
0
SEQEND
0
POLYLINE
8
L0D0_0
70
1
40
0
41
0
66
1
0
VERTEX
8
L0D0_0
10
90.8
20
124
0
VERTEX
8
L0D0_0
10
90.8
20
125.75
0
VERTEX
8
L0D0_0
10
91.65
20
125.75
0
VERTEX
8
L0D0_0
10
91.65
20
131.75
0
VERTEX
8
L0D0_0
10
90.8
20
131.75
0
VERTEX
8
L0D0_0
10
90.8
20
133.5
0
VERTEX
8
L0D0_0
10
96.8
20
133.5
0
VERTEX
8
L0D0_0
10
96.8
20
124
0
SEQEND
0
POLYLINE
8
L0D0_0
70
1
40
0
41
0
66
1
0
VERTEX
8
L0D0_0
10
8.4
20
124
0
VERTEX
8
L0D0_0
10
8.4
20
126
0
VERTEX
8
L0D0_0
10
9.25
20
126
0
VERTEX
8
L0D0_0
10
9.25
20
132
0
VERTEX
8
L0D0_0
10
8.4
20
132
0
VERTEX
8
L0D0_0
10
8.4
20
134
0
VERTEX
8
L0D0_0
10
15.4
20
134
0
VERTEX
8
L0D0_0
10
15.4
20
124
0
SEQEND
0
POLYLINE
8
L0D0_0
70
1
40
0
41
0
66
1
0
VERTEX
8
L0D0_0
10
23.8
20
124
0
VERTEX
8
L0D0_0
10
23.8
20
126
0
VERTEX
8
L0D0_0
10
24.65
20
126
0
VERTEX
8
L0D0_0
10
24.65
20
132
0
VERTEX
8
L0D0_0
10
23.8
20
132
0
VERTEX
8
L0D0_0
10
23.8
20
134
0
VERTEX
8
L0D0_0
10
29.8
20
134
0
VERTEX
8
L0D0_0
10
29.8
20
124
0
SEQEND
0
POLYLINE
8
L0D0_0
70
1
40
0
41
0
66
1
0
VERTEX
8
L0D0_0
10
38.2
20
124
0
VERTEX
8
L0D0_0
10
38.2
20
126
0
VERTEX
8
L0D0_0
10
39.05
20
126
0
VERTEX
8
L0D0_0
10
39.05
20
132
0
VERTEX
8
L0D0_0
10
38.2
20
132
0
VERTEX
8
L0D0_0
10
38.2
20
134
0
VERTEX
8
L0D0_0
10
43.2
20
134
0
VERTEX
8
L0D0_0
10
43.2
20
124
0
SEQEND
0
POLYLINE
8
L0D0_0
70
1
40
0
41
0
66
1
0
VERTEX
8
L0D0_0
10
51.6
20
124
0
VERTEX
8
L0D0_0
10
51.6
20
126
0
VERTEX
8
L0D0_0
10
52.45
20
126
0
VERTEX
8
L0D0_0
10
52.45
20
132
0
VERTEX
8
L0D0_0
10
51.6
20
132
0
VERTEX
8
L0D0_0
10
51.6
20
134
0
VERTEX
8
L0D0_0
10
55.6
20
134
0
VERTEX
8
L0D0_0
10
55.6
20
124
0
SEQEND
0
POLYLINE
8
L0D0_0
70
1
40
0
41
0
66
1
0
VERTEX
8
L0D0_0
10
64
20
124
0
VERTEX
8
L0D0_0
10
64
20
126
0
VERTEX
8
L0D0_0
10
64.85
20
126
0
VERTEX
8
L0D0_0
10
64.85
20
132
0
VERTEX
8
L0D0_0
10
64
20
132
0
VERTEX
8
L0D0_0
10
64
20
134
0
VERTEX
8
L0D0_0
10
67
20
134
0
VERTEX
8
L0D0_0
10
67
20
124
0
SEQEND
0
POLYLINE
8
L0D0_0
70
1
40
0
41
0
66
1
0
VERTEX
8
L0D0_0
10
8.4
20
140
0
VERTEX
8
L0D0_0
10
8.4
20
140.75
0
VERTEX
8
L0D0_0
10
9.25
20
140.75
0
VERTEX
8
L0D0_0
10
9.25
20
146.75
0
VERTEX
8
L0D0_0
10
8.4
20
146.75
0
VERTEX
8
L0D0_0
10
8.4
20
147.5
0
VERTEX
8
L0D0_0
10
15.4
20
147.5
0
VERTEX
8
L0D0_0
10
15.4
20
140
0
SEQEND
0
POLYLINE
8
L0D0_0
70
1
40
0
41
0
66
1
0
VERTEX
8
L0D0_0
10
23.8
20
140
0
VERTEX
8
L0D0_0
10
23.8
20
140.75
0
VERTEX
8
L0D0_0
10
24.65
20
140.75
0
VERTEX
8
L0D0_0
10
24.65
20
146.75
0
VERTEX
8
L0D0_0
10
23.8
20
146.75
0
VERTEX
8
L0D0_0
10
23.8
20
147.5
0
VERTEX
8
L0D0_0
10
29.8
20
147.5
0
VERTEX
8
L0D0_0
10
29.8
20
140
0
SEQEND
0
POLYLINE
8
L0D0_0
70
1
40
0
41
0
66
1
0
VERTEX
8
L0D0_0
10
38.2
20
140
0
VERTEX
8
L0D0_0
10
38.2
20
140.75
0
VERTEX
8
L0D0_0
10
39.05
20
140.75
0
VERTEX
8
L0D0_0
10
39.05
20
146.75
0
VERTEX
8
L0D0_0
10
38.2
20
146.75
0
VERTEX
8
L0D0_0
10
38.2
20
147.5
0
VERTEX
8
L0D0_0
10
43.2
20
147.5
0
VERTEX
8
L0D0_0
10
43.2
20
140
0
SEQEND
0
POLYLINE
8
L0D0_0
70
1
40
0
41
0
66
1
0
VERTEX
8
L0D0_0
10
51.6
20
140
0
VERTEX
8
L0D0_0
10
51.6
20
140.75
0
VERTEX
8
L0D0_0
10
52.45
20
140.75
0
VERTEX
8
L0D0_0
10
52.45
20
146.75
0
VERTEX
8
L0D0_0
10
51.6
20
146.75
0
VERTEX
8
L0D0_0
10
51.6
20
147.5
0
VERTEX
8
L0D0_0
10
55.6
20
147.5
0
VERTEX
8
L0D0_0
10
55.6
20
140
0
SEQEND
0
POLYLINE
8
L0D0_0
70
1
40
0
41
0
66
1
0
VERTEX
8
L0D0_0
10
64
20
140
0
VERTEX
8
L0D0_0
10
64
20
140.75
0
VERTEX
8
L0D0_0
10
64.85
20
140.75
0
VERTEX
8
L0D0_0
10
64.85
20
146.75
0
VERTEX
8
L0D0_0
10
64
20
146.75
0
VERTEX
8
L0D0_0
10
64
20
147.5
0
VERTEX
8
L0D0_0
10
67
20
147.5
0
VERTEX
8
L0D0_0
10
67
20
140
0
SEQEND
0
POLYLINE
8
L0D0_0
70
1
40
0
41
0
66
1
0
VERTEX
8
L0D0_0
10
75.4
20
139.5
0
VERTEX
8
L0D0_0
10
75.4
20
140.5
0
VERTEX
8
L0D0_0
10
76.25
20
140.5
0
VERTEX
8
L0D0_0
10
76.25
20
146.5
0
VERTEX
8
L0D0_0
10
75.4
20
146.5
0
VERTEX
8
L0D0_0
10
75.4
20
147.5
0
VERTEX
8
L0D0_0
10
82.4
20
147.5
0
VERTEX
8
L0D0_0
10
82.4
20
139.5
0
SEQEND
0
POLYLINE
8
L0D0_0
70
1
40
0
41
0
66
1
0
VERTEX
8
L0D0_0
10
90.8
20
139.5
0
VERTEX
8
L0D0_0
10
90.8
20
140.5
0
VERTEX
8
L0D0_0
10
91.65
20
140.5
0
VERTEX
8
L0D0_0
10
91.65
20
146.5
0
VERTEX
8
L0D0_0
10
90.8
20
146.5
0
VERTEX
8
L0D0_0
10
90.8
20
147.5
0
VERTEX
8
L0D0_0
10
96.8
20
147.5
0
VERTEX
8
L0D0_0
10
96.8
20
139.5
0
SEQEND
0
POLYLINE
8
L0D0_0
70
1
40
0
41
0
66
1
0
VERTEX
8
L0D0_0
10
75.4
20
153.5
0
VERTEX
8
L0D0_0
10
75.4
20
155.25
0
VERTEX
8
L0D0_0
10
76.2
20
155.25
0
VERTEX
8
L0D0_0
10
76.2
20
161.25
0
VERTEX
8
L0D0_0
10
75.4
20
161.25
0
VERTEX
8
L0D0_0
10
75.4
20
163
0
VERTEX
8
L0D0_0
10
82.4
20
163
0
VERTEX
8
L0D0_0
10
82.4
20
153.5
0
SEQEND
0
POLYLINE
8
L0D0_0
70
1
40
0
41
0
66
1
0
VERTEX
8
L0D0_0
10
90.8
20
153.5
0
VERTEX
8
L0D0_0
10
90.8
20
155.25
0
VERTEX
8
L0D0_0
10
91.6
20
155.25
0
VERTEX
8
L0D0_0
10
91.6
20
161.25
0
VERTEX
8
L0D0_0
10
90.8
20
161.25
0
VERTEX
8
L0D0_0
10
90.8
20
163
0
VERTEX
8
L0D0_0
10
96.8
20
163
0
VERTEX
8
L0D0_0
10
96.8
20
153.5
0
SEQEND
0
POLYLINE
8
L0D0_0
70
1
40
0
41
0
66
1
0
VERTEX
8
L0D0_0
10
8.4
20
153.5
0
VERTEX
8
L0D0_0
10
8.4
20
155.5
0
VERTEX
8
L0D0_0
10
9.2
20
155.5
0
VERTEX
8
L0D0_0
10
9.2
20
161.5
0
VERTEX
8
L0D0_0
10
8.4
20
161.5
0
VERTEX
8
L0D0_0
10
8.4
20
163.5
0
VERTEX
8
L0D0_0
10
15.4
20
163.5
0
VERTEX
8
L0D0_0
10
15.4
20
153.5
0
SEQEND
0
POLYLINE
8
L0D0_0
70
1
40
0
41
0
66
1
0
VERTEX
8
L0D0_0
10
23.8
20
153.5
0
VERTEX
8
L0D0_0
10
23.8
20
155.5
0
VERTEX
8
L0D0_0
10
24.6
20
155.5
0
VERTEX
8
L0D0_0
10
24.6
20
161.5
0
VERTEX
8
L0D0_0
10
23.8
20
161.5
0
VERTEX
8
L0D0_0
10
23.8
20
163.5
0
VERTEX
8
L0D0_0
10
29.8
20
163.5
0
VERTEX
8
L0D0_0
10
29.8
20
153.5
0
SEQEND
0
POLYLINE
8
L0D0_0
70
1
40
0
41
0
66
1
0
VERTEX
8
L0D0_0
10
38.2
20
153.5
0
VERTEX
8
L0D0_0
10
38.2
20
155.5
0
VERTEX
8
L0D0_0
10
39
20
155.5
0
VERTEX
8
L0D0_0
10
39
20
161.5
0
VERTEX
8
L0D0_0
10
38.2
20
161.5
0
VERTEX
8
L0D0_0
10
38.2
20
163.5
0
VERTEX
8
L0D0_0
10
43.2
20
163.5
0
VERTEX
8
L0D0_0
10
43.2
20
153.5
0
SEQEND
0
POLYLINE
8
L0D0_0
70
1
40
0
41
0
66
1
0
VERTEX
8
L0D0_0
10
51.6
20
153.5
0
VERTEX
8
L0D0_0
10
51.6
20
155.5
0
VERTEX
8
L0D0_0
10
52.4
20
155.5
0
VERTEX
8
L0D0_0
10
52.4
20
161.5
0
VERTEX
8
L0D0_0
10
51.6
20
161.5
0
VERTEX
8
L0D0_0
10
51.6
20
163.5
0
VERTEX
8
L0D0_0
10
55.6
20
163.5
0
VERTEX
8
L0D0_0
10
55.6
20
153.5
0
SEQEND
0
POLYLINE
8
L0D0_0
70
1
40
0
41
0
66
1
0
VERTEX
8
L0D0_0
10
64
20
153.5
0
VERTEX
8
L0D0_0
10
64
20
155.5
0
VERTEX
8
L0D0_0
10
64.8
20
155.5
0
VERTEX
8
L0D0_0
10
64.8
20
161.5
0
VERTEX
8
L0D0_0
10
64
20
161.5
0
VERTEX
8
L0D0_0
10
64
20
163.5
0
VERTEX
8
L0D0_0
10
67
20
163.5
0
VERTEX
8
L0D0_0
10
67
20
153.5
0
SEQEND
0
POLYLINE
8
L0D0_0
70
1
40
0
41
0
66
1
0
VERTEX
8
L0D0_0
10
75.4
20
35.5
0
VERTEX
8
L0D0_0
10
75.4
20
37.25
0
VERTEX
8
L0D0_0
10
76.4
20
37.25
0
VERTEX
8
L0D0_0
10
76.4
20
43.25
0
VERTEX
8
L0D0_0
10
75.4
20
43.25
0
VERTEX
8
L0D0_0
10
75.4
20
45
0
VERTEX
8
L0D0_0
10
82.4
20
45
0
VERTEX
8
L0D0_0
10
82.4
20
35.5
0
SEQEND
0
POLYLINE
8
L0D0_0
70
1
40
0
41
0
66
1
0
VERTEX
8
L0D0_0
10
90.8
20
35.5
0
VERTEX
8
L0D0_0
10
90.8
20
37.25
0
VERTEX
8
L0D0_0
10
91.8
20
37.25
0
VERTEX
8
L0D0_0
10
91.8
20
43.25
0
VERTEX
8
L0D0_0
10
90.8
20
43.25
0
VERTEX
8
L0D0_0
10
90.8
20
45
0
VERTEX
8
L0D0_0
10
96.8
20
45
0
VERTEX
8
L0D0_0
10
96.8
20
35.5
0
SEQEND
0
POLYLINE
8
L0D0_0
70
1
40
0
41
0
66
1
0
VERTEX
8
L0D0_0
10
8.4
20
35.5
0
VERTEX
8
L0D0_0
10
8.4
20
37.5
0
VERTEX
8
L0D0_0
10
9.4
20
37.5
0
VERTEX
8
L0D0_0
10
9.4
20
43.5
0
VERTEX
8
L0D0_0
10
8.4
20
43.5
0
VERTEX
8
L0D0_0
10
8.4
20
45.5
0
VERTEX
8
L0D0_0
10
15.4
20
45.5
0
VERTEX
8
L0D0_0
10
15.4
20
35.5
0
SEQEND
0
POLYLINE
8
L0D0_0
70
1
40
0
41
0
66
1
0
VERTEX
8
L0D0_0
10
23.8
20
35.5
0
VERTEX
8
L0D0_0
10
23.8
20
37.5
0
VERTEX
8
L0D0_0
10
24.8
20
37.5
0
VERTEX
8
L0D0_0
10
24.8
20
43.5
0
VERTEX
8
L0D0_0
10
23.8
20
43.5
0
VERTEX
8
L0D0_0
10
23.8
20
45.5
0
VERTEX
8
L0D0_0
10
29.8
20
45.5
0
VERTEX
8
L0D0_0
10
29.8
20
35.5
0
SEQEND
0
POLYLINE
8
L0D0_0
70
1
40
0
41
0
66
1
0
VERTEX
8
L0D0_0
10
38.2
20
35.5
0
VERTEX
8
L0D0_0
10
38.2
20
37.5
0
VERTEX
8
L0D0_0
10
39.2
20
37.5
0
VERTEX
8
L0D0_0
10
39.2
20
43.5
0
VERTEX
8
L0D0_0
10
38.2
20
43.5
0
VERTEX
8
L0D0_0
10
38.2
20
45.5
0
VERTEX
8
L0D0_0
10
43.2
20
45.5
0
VERTEX
8
L0D0_0
10
43.2
20
35.5
0
SEQEND
0
POLYLINE
8
L0D0_0
70
1
40
0
41
0
66
1
0
VERTEX
8
L0D0_0
10
51.6
20
35.5
0
VERTEX
8
L0D0_0
10
51.6
20
37.5
0
VERTEX
8
L0D0_0
10
52.6
20
37.5
0
VERTEX
8
L0D0_0
10
52.6
20
43.5
0
VERTEX
8
L0D0_0
10
51.6
20
43.5
0
VERTEX
8
L0D0_0
10
51.6
20
45.5
0
VERTEX
8
L0D0_0
10
55.6
20
45.5
0
VERTEX
8
L0D0_0
10
55.6
20
35.5
0
SEQEND
0
POLYLINE
8
L0D0_0
70
1
40
0
41
0
66
1
0
VERTEX
8
L0D0_0
10
64
20
35.5
0
VERTEX
8
L0D0_0
10
64
20
37.5
0
VERTEX
8
L0D0_0
10
65
20
37.5
0
VERTEX
8
L0D0_0
10
65
20
43.5
0
VERTEX
8
L0D0_0
10
64
20
43.5
0
VERTEX
8
L0D0_0
10
64
20
45.5
0
VERTEX
8
L0D0_0
10
67
20
45.5
0
VERTEX
8
L0D0_0
10
67
20
35.5
0
SEQEND
0
POLYLINE
8
L0D0_0
70
1
40
0
41
0
66
1
0
VERTEX
8
L0D0_0
10
8.4
20
51.5
0
VERTEX
8
L0D0_0
10
8.4
20
52.25
0
VERTEX
8
L0D0_0
10
9.4
20
52.25
0
VERTEX
8
L0D0_0
10
9.4
20
58.25
0
VERTEX
8
L0D0_0
10
8.4
20
58.25
0
VERTEX
8
L0D0_0
10
8.4
20
59
0
VERTEX
8
L0D0_0
10
15.4
20
59
0
VERTEX
8
L0D0_0
10
15.4
20
51.5
0
SEQEND
0
POLYLINE
8
L0D0_0
70
1
40
0
41
0
66
1
0
VERTEX
8
L0D0_0
10
23.8
20
51.5
0
VERTEX
8
L0D0_0
10
23.8
20
52.25
0
VERTEX
8
L0D0_0
10
24.8
20
52.25
0
VERTEX
8
L0D0_0
10
24.8
20
58.25
0
VERTEX
8
L0D0_0
10
23.8
20
58.25
0
VERTEX
8
L0D0_0
10
23.8
20
59
0
VERTEX
8
L0D0_0
10
29.8
20
59
0
VERTEX
8
L0D0_0
10
29.8
20
51.5
0
SEQEND
0
POLYLINE
8
L0D0_0
70
1
40
0
41
0
66
1
0
VERTEX
8
L0D0_0
10
38.2
20
51.5
0
VERTEX
8
L0D0_0
10
38.2
20
52.25
0
VERTEX
8
L0D0_0
10
39.2
20
52.25
0
VERTEX
8
L0D0_0
10
39.2
20
58.25
0
VERTEX
8
L0D0_0
10
38.2
20
58.25
0
VERTEX
8
L0D0_0
10
38.2
20
59
0
VERTEX
8
L0D0_0
10
43.2
20
59
0
VERTEX
8
L0D0_0
10
43.2
20
51.5
0
SEQEND
0
POLYLINE
8
L0D0_0
70
1
40
0
41
0
66
1
0
VERTEX
8
L0D0_0
10
105.2
20
153.5
0
VERTEX
8
L0D0_0
10
105.2
20
155.25
0
VERTEX
8
L0D0_0
10
106
20
155.25
0
VERTEX
8
L0D0_0
10
106
20
161.25
0
VERTEX
8
L0D0_0
10
105.2
20
161.25
0
VERTEX
8
L0D0_0
10
105.2
20
163
0
VERTEX
8
L0D0_0
10
110.2
20
163
0
VERTEX
8
L0D0_0
10
110.2
20
153.5
0
SEQEND
0
POLYLINE
8
L0D0_0
70
1
40
0
41
0
66
1
0
VERTEX
8
L0D0_0
10
118.6
20
153.5
0
VERTEX
8
L0D0_0
10
118.6
20
155.25
0
VERTEX
8
L0D0_0
10
119.4
20
155.25
0
VERTEX
8
L0D0_0
10
119.4
20
161.25
0
VERTEX
8
L0D0_0
10
118.6
20
161.25
0
VERTEX
8
L0D0_0
10
118.6
20
163
0
VERTEX
8
L0D0_0
10
122.6
20
163
0
VERTEX
8
L0D0_0
10
122.6
20
153.5
0
SEQEND
0
POLYLINE
8
L0D0_0
70
1
40
0
41
0
66
1
0
VERTEX
8
L0D0_0
10
131
20
153.5
0
VERTEX
8
L0D0_0
10
131
20
155.25
0
VERTEX
8
L0D0_0
10
131.8
20
155.25
0
VERTEX
8
L0D0_0
10
131.8
20
161.25
0
VERTEX
8
L0D0_0
10
131
20
161.25
0
VERTEX
8
L0D0_0
10
131
20
163
0
VERTEX
8
L0D0_0
10
134
20
163
0
VERTEX
8
L0D0_0
10
134
20
153.5
0
SEQEND
0
POLYLINE
8
L0D0_0
70
1
40
0
41
0
66
1
0
VERTEX
8
L0D0_0
10
185.6
20
80
0
VERTEX
8
L0D0_0
10
185.6
20
81.25
0
VERTEX
8
L0D0_0
10
186.55
20
81.25
0
VERTEX
8
L0D0_0
10
186.55
20
87.25
0
VERTEX
8
L0D0_0
10
185.6
20
87.25
0
VERTEX
8
L0D0_0
10
185.6
20
88.5
0
VERTEX
8
L0D0_0
10
189.6
20
88.5
0
VERTEX
8
L0D0_0
10
189.6
20
80
0
SEQEND
0
POLYLINE
8
L0D0_0
70
1
40
0
41
0
66
1
0
VERTEX
8
L0D0_0
10
198
20
80
0
VERTEX
8
L0D0_0
10
198
20
81.25
0
VERTEX
8
L0D0_0
10
198.95
20
81.25
0
VERTEX
8
L0D0_0
10
198.95
20
87.25
0
VERTEX
8
L0D0_0
10
198
20
87.25
0
VERTEX
8
L0D0_0
10
198
20
88.5
0
VERTEX
8
L0D0_0
10
201
20
88.5
0
VERTEX
8
L0D0_0
10
201
20
80
0
SEQEND
0
POLYLINE
8
L0D0_0
70
1
40
0
41
0
66
1
0
VERTEX
8
L0D0_0
10
142.4
20
94.5
0
VERTEX
8
L0D0_0
10
142.4
20
96
0
VERTEX
8
L0D0_0
10
143.3
20
96
0
VERTEX
8
L0D0_0
10
143.3
20
102
0
VERTEX
8
L0D0_0
10
142.4
20
102
0
VERTEX
8
L0D0_0
10
142.4
20
103.5
0
VERTEX
8
L0D0_0
10
149.4
20
103.5
0
VERTEX
8
L0D0_0
10
149.4
20
94.5
0
SEQEND
0
POLYLINE
8
L0D0_0
70
1
40
0
41
0
66
1
0
VERTEX
8
L0D0_0
10
157.8
20
94.5
0
VERTEX
8
L0D0_0
10
157.8
20
96
0
VERTEX
8
L0D0_0
10
158.7
20
96
0
VERTEX
8
L0D0_0
10
158.7
20
102
0
VERTEX
8
L0D0_0
10
157.8
20
102
0
VERTEX
8
L0D0_0
10
157.8
20
103.5
0
VERTEX
8
L0D0_0
10
163.8
20
103.5
0
VERTEX
8
L0D0_0
10
163.8
20
94.5
0
SEQEND
0
POLYLINE
8
L0D0_0
70
1
40
0
41
0
66
1
0
VERTEX
8
L0D0_0
10
172.2
20
94.5
0
VERTEX
8
L0D0_0
10
172.2
20
96
0
VERTEX
8
L0D0_0
10
173.1
20
96
0
VERTEX
8
L0D0_0
10
173.1
20
102
0
VERTEX
8
L0D0_0
10
172.2
20
102
0
VERTEX
8
L0D0_0
10
172.2
20
103.5
0
VERTEX
8
L0D0_0
10
177.2
20
103.5
0
VERTEX
8
L0D0_0
10
177.2
20
94.5
0
SEQEND
0
POLYLINE
8
L0D0_0
70
1
40
0
41
0
66
1
0
VERTEX
8
L0D0_0
10
185.6
20
94.5
0
VERTEX
8
L0D0_0
10
185.6
20
96
0
VERTEX
8
L0D0_0
10
186.5
20
96
0
VERTEX
8
L0D0_0
10
186.5
20
102
0
VERTEX
8
L0D0_0
10
185.6
20
102
0
VERTEX
8
L0D0_0
10
185.6
20
103.5
0
VERTEX
8
L0D0_0
10
189.6
20
103.5
0
VERTEX
8
L0D0_0
10
189.6
20
94.5
0
SEQEND
0
POLYLINE
8
L0D0_0
70
1
40
0
41
0
66
1
0
VERTEX
8
L0D0_0
10
198
20
94.5
0
VERTEX
8
L0D0_0
10
198
20
96
0
VERTEX
8
L0D0_0
10
198.9
20
96
0
VERTEX
8
L0D0_0
10
198.9
20
102
0
VERTEX
8
L0D0_0
10
198
20
102
0
VERTEX
8
L0D0_0
10
198
20
103.5
0
VERTEX
8
L0D0_0
10
201
20
103.5
0
VERTEX
8
L0D0_0
10
201
20
94.5
0
SEQEND
0
POLYLINE
8
L0D0_0
70
1
40
0
41
0
66
1
0
VERTEX
8
L0D0_0
10
185.6
20
50.5
0
VERTEX
8
L0D0_0
10
185.6
20
51.75
0
VERTEX
8
L0D0_0
10
186.6
20
51.75
0
VERTEX
8
L0D0_0
10
186.6
20
57.75
0
VERTEX
8
L0D0_0
10
185.6
20
57.75
0
VERTEX
8
L0D0_0
10
185.6
20
59
0
VERTEX
8
L0D0_0
10
189.6
20
59
0
VERTEX
8
L0D0_0
10
189.6
20
50.5
0
SEQEND
0
POLYLINE
8
L0D0_0
70
1
40
0
41
0
66
1
0
VERTEX
8
L0D0_0
10
198
20
50.5
0
VERTEX
8
L0D0_0
10
198
20
51.75
0
VERTEX
8
L0D0_0
10
199
20
51.75
0
VERTEX
8
L0D0_0
10
199
20
57.75
0
VERTEX
8
L0D0_0
10
198
20
57.75
0
VERTEX
8
L0D0_0
10
198
20
59
0
VERTEX
8
L0D0_0
10
201
20
59
0
VERTEX
8
L0D0_0
10
201
20
50.5
0
SEQEND
0
POLYLINE
8
L0D0_0
70
1
40
0
41
0
66
1
0
VERTEX
8
L0D0_0
10
105.2
20
94.5
0
VERTEX
8
L0D0_0
10
105.2
20
96.25
0
VERTEX
8
L0D0_0
10
106.1
20
96.25
0
VERTEX
8
L0D0_0
10
106.1
20
102.25
0
VERTEX
8
L0D0_0
10
105.2
20
102.25
0
VERTEX
8
L0D0_0
10
105.2
20
104
0
VERTEX
8
L0D0_0
10
110.2
20
104
0
VERTEX
8
L0D0_0
10
110.2
20
94.5
0
SEQEND
0
POLYLINE
8
L0D0_0
70
1
40
0
41
0
66
1
0
VERTEX
8
L0D0_0
10
118.6
20
94.5
0
VERTEX
8
L0D0_0
10
118.6
20
96.25
0
VERTEX
8
L0D0_0
10
119.5
20
96.25
0
VERTEX
8
L0D0_0
10
119.5
20
102.25
0
VERTEX
8
L0D0_0
10
118.6
20
102.25
0
VERTEX
8
L0D0_0
10
118.6
20
104
0
VERTEX
8
L0D0_0
10
122.6
20
104
0
VERTEX
8
L0D0_0
10
122.6
20
94.5
0
SEQEND
0
POLYLINE
8
L0D0_0
70
1
40
0
41
0
66
1
0
VERTEX
8
L0D0_0
10
131
20
94.5
0
VERTEX
8
L0D0_0
10
131
20
96.25
0
VERTEX
8
L0D0_0
10
131.9
20
96.25
0
VERTEX
8
L0D0_0
10
131.9
20
102.25
0
VERTEX
8
L0D0_0
10
131
20
102.25
0
VERTEX
8
L0D0_0
10
131
20
104
0
VERTEX
8
L0D0_0
10
134
20
104
0
VERTEX
8
L0D0_0
10
134
20
94.5
0
SEQEND
0
POLYLINE
8
L0D0_0
70
1
40
0
41
0
66
1
0
VERTEX
8
L0D0_0
10
142.4
20
65
0
VERTEX
8
L0D0_0
10
142.4
20
66.5
0
VERTEX
8
L0D0_0
10
143.35
20
66.5
0
VERTEX
8
L0D0_0
10
143.35
20
72.5
0
VERTEX
8
L0D0_0
10
142.4
20
72.5
0
VERTEX
8
L0D0_0
10
142.4
20
74
0
VERTEX
8
L0D0_0
10
149.4
20
74
0
VERTEX
8
L0D0_0
10
149.4
20
65
0
SEQEND
0
POLYLINE
8
L0D0_0
70
1
40
0
41
0
66
1
0
VERTEX
8
L0D0_0
10
157.8
20
65
0
VERTEX
8
L0D0_0
10
157.8
20
66.5
0
VERTEX
8
L0D0_0
10
158.75
20
66.5
0
VERTEX
8
L0D0_0
10
158.75
20
72.5
0
VERTEX
8
L0D0_0
10
157.8
20
72.5
0
VERTEX
8
L0D0_0
10
157.8
20
74
0
VERTEX
8
L0D0_0
10
163.8
20
74
0
VERTEX
8
L0D0_0
10
163.8
20
65
0
SEQEND
0
POLYLINE
8
L0D0_0
70
1
40
0
41
0
66
1
0
VERTEX
8
L0D0_0
10
172.2
20
65
0
VERTEX
8
L0D0_0
10
172.2
20
66.5
0
VERTEX
8
L0D0_0
10
173.15
20
66.5
0
VERTEX
8
L0D0_0
10
173.15
20
72.5
0
VERTEX
8
L0D0_0
10
172.2
20
72.5
0
VERTEX
8
L0D0_0
10
172.2
20
74
0
VERTEX
8
L0D0_0
10
177.2
20
74
0
VERTEX
8
L0D0_0
10
177.2
20
65
0
SEQEND
0
POLYLINE
8
L0D0_0
70
1
40
0
41
0
66
1
0
VERTEX
8
L0D0_0
10
185.6
20
65
0
VERTEX
8
L0D0_0
10
185.6
20
66.5
0
VERTEX
8
L0D0_0
10
186.55
20
66.5
0
VERTEX
8
L0D0_0
10
186.55
20
72.5
0
VERTEX
8
L0D0_0
10
185.6
20
72.5
0
VERTEX
8
L0D0_0
10
185.6
20
74
0
VERTEX
8
L0D0_0
10
189.6
20
74
0
VERTEX
8
L0D0_0
10
189.6
20
65
0
SEQEND
0
POLYLINE
8
L0D0_0
70
1
40
0
41
0
66
1
0
VERTEX
8
L0D0_0
10
198
20
65
0
VERTEX
8
L0D0_0
10
198
20
66.5
0
VERTEX
8
L0D0_0
10
198.95
20
66.5
0
VERTEX
8
L0D0_0
10
198.95
20
72.5
0
VERTEX
8
L0D0_0
10
198
20
72.5
0
VERTEX
8
L0D0_0
10
198
20
74
0
VERTEX
8
L0D0_0
10
201
20
74
0
VERTEX
8
L0D0_0
10
201
20
65
0
SEQEND
0
POLYLINE
8
L0D0_0
70
1
40
0
41
0
66
1
0
VERTEX
8
L0D0_0
10
157.8
20
35.5
0
VERTEX
8
L0D0_0
10
157.8
20
37.25
0
VERTEX
8
L0D0_0
10
158.8
20
37.25
0
VERTEX
8
L0D0_0
10
158.8
20
43.25
0
VERTEX
8
L0D0_0
10
157.8
20
43.25
0
VERTEX
8
L0D0_0
10
157.8
20
44.5
0
VERTEX
8
L0D0_0
10
163.8
20
44.5
0
VERTEX
8
L0D0_0
10
163.8
20
35.5
0
SEQEND
0
POLYLINE
8
L0D0_0
70
1
40
0
41
0
66
1
0
VERTEX
8
L0D0_0
10
105.2
20
35.5
0
VERTEX
8
L0D0_0
10
105.2
20
37.25
0
VERTEX
8
L0D0_0
10
106.2
20
37.25
0
VERTEX
8
L0D0_0
10
106.2
20
43.25
0
VERTEX
8
L0D0_0
10
105.2
20
43.25
0
VERTEX
8
L0D0_0
10
105.2
20
45
0
VERTEX
8
L0D0_0
10
110.2
20
45
0
VERTEX
8
L0D0_0
10
110.2
20
35.5
0
SEQEND
0
POLYLINE
8
L0D0_0
70
1
40
0
41
0
66
1
0
VERTEX
8
L0D0_0
10
105.2
20
65
0
VERTEX
8
L0D0_0
10
105.2
20
66.75
0
VERTEX
8
L0D0_0
10
106.15
20
66.75
0
VERTEX
8
L0D0_0
10
106.15
20
72.75
0
VERTEX
8
L0D0_0
10
105.2
20
72.75
0
VERTEX
8
L0D0_0
10
105.2
20
74.5
0
VERTEX
8
L0D0_0
10
110.2
20
74.5
0
VERTEX
8
L0D0_0
10
110.2
20
65
0
SEQEND
0
POLYLINE
8
L0D0_0
70
1
40
0
41
0
66
1
0
VERTEX
8
L0D0_0
10
118.6
20
65
0
VERTEX
8
L0D0_0
10
118.6
20
66.75
0
VERTEX
8
L0D0_0
10
119.55
20
66.75
0
VERTEX
8
L0D0_0
10
119.55
20
72.75
0
VERTEX
8
L0D0_0
10
118.6
20
72.75
0
VERTEX
8
L0D0_0
10
118.6
20
74.5
0
VERTEX
8
L0D0_0
10
122.6
20
74.5
0
VERTEX
8
L0D0_0
10
122.6
20
65
0
SEQEND
0
POLYLINE
8
L0D0_0
70
1
40
0
41
0
66
1
0
VERTEX
8
L0D0_0
10
131
20
65
0
VERTEX
8
L0D0_0
10
131
20
66.75
0
VERTEX
8
L0D0_0
10
131.95
20
66.75
0
VERTEX
8
L0D0_0
10
131.95
20
72.75
0
VERTEX
8
L0D0_0
10
131
20
72.75
0
VERTEX
8
L0D0_0
10
131
20
74.5
0
VERTEX
8
L0D0_0
10
134
20
74.5
0
VERTEX
8
L0D0_0
10
134
20
65
0
SEQEND
0
POLYLINE
8
L0D0_0
70
1
40
0
41
0
66
1
0
VERTEX
8
L0D0_0
10
118.6
20
35.5
0
VERTEX
8
L0D0_0
10
118.6
20
37.25
0
VERTEX
8
L0D0_0
10
119.6
20
37.25
0
VERTEX
8
L0D0_0
10
119.6
20
43.25
0
VERTEX
8
L0D0_0
10
118.6
20
43.25
0
VERTEX
8
L0D0_0
10
118.6
20
45
0
VERTEX
8
L0D0_0
10
122.6
20
45
0
VERTEX
8
L0D0_0
10
122.6
20
35.5
0
SEQEND
0
POLYLINE
8
L0D0_0
70
1
40
0
41
0
66
1
0
VERTEX
8
L0D0_0
10
131
20
35.5
0
VERTEX
8
L0D0_0
10
131
20
37.25
0
VERTEX
8
L0D0_0
10
132
20
37.25
0
VERTEX
8
L0D0_0
10
132
20
43.25
0
VERTEX
8
L0D0_0
10
131
20
43.25
0
VERTEX
8
L0D0_0
10
131
20
45
0
VERTEX
8
L0D0_0
10
134
20
45
0
VERTEX
8
L0D0_0
10
134
20
35.5
0
SEQEND
0
POLYLINE
8
L0D0_0
70
1
40
0
41
0
66
1
0
VERTEX
8
L0D0_0
10
105.2
20
110
0
VERTEX
8
L0D0_0
10
105.2
20
111
0
VERTEX
8
L0D0_0
10
106.1
20
111
0
VERTEX
8
L0D0_0
10
106.1
20
117
0
VERTEX
8
L0D0_0
10
105.2
20
117
0
VERTEX
8
L0D0_0
10
105.2
20
118
0
VERTEX
8
L0D0_0
10
110.2
20
118
0
VERTEX
8
L0D0_0
10
110.2
20
110
0
SEQEND
0
POLYLINE
8
L0D0_0
70
1
40
0
41
0
66
1
0
VERTEX
8
L0D0_0
10
118.6
20
110
0
VERTEX
8
L0D0_0
10
118.6
20
111
0
VERTEX
8
L0D0_0
10
119.5
20
111
0
VERTEX
8
L0D0_0
10
119.5
20
117
0
VERTEX
8
L0D0_0
10
118.6
20
117
0
VERTEX
8
L0D0_0
10
118.6
20
118
0
VERTEX
8
L0D0_0
10
122.6
20
118
0
VERTEX
8
L0D0_0
10
122.6
20
110
0
SEQEND
0
POLYLINE
8
L0D0_0
70
1
40
0
41
0
66
1
0
VERTEX
8
L0D0_0
10
131
20
110
0
VERTEX
8
L0D0_0
10
131
20
111
0
VERTEX
8
L0D0_0
10
131.9
20
111
0
VERTEX
8
L0D0_0
10
131.9
20
117
0
VERTEX
8
L0D0_0
10
131
20
117
0
VERTEX
8
L0D0_0
10
131
20
118
0
VERTEX
8
L0D0_0
10
134
20
118
0
VERTEX
8
L0D0_0
10
134
20
110
0
SEQEND
0
POLYLINE
8
L0D0_0
70
1
40
0
41
0
66
1
0
VERTEX
8
L0D0_0
10
142.4
20
109.5
0
VERTEX
8
L0D0_0
10
142.4
20
110.75
0
VERTEX
8
L0D0_0
10
143.3
20
110.75
0
VERTEX
8
L0D0_0
10
143.3
20
116.75
0
VERTEX
8
L0D0_0
10
142.4
20
116.75
0
VERTEX
8
L0D0_0
10
142.4
20
118
0
VERTEX
8
L0D0_0
10
149.4
20
118
0
VERTEX
8
L0D0_0
10
149.4
20
109.5
0
SEQEND
0
POLYLINE
8
L0D0_0
70
1
40
0
41
0
66
1
0
VERTEX
8
L0D0_0
10
157.8
20
109.5
0
VERTEX
8
L0D0_0
10
157.8
20
110.75
0
VERTEX
8
L0D0_0
10
158.7
20
110.75
0
VERTEX
8
L0D0_0
10
158.7
20
116.75
0
VERTEX
8
L0D0_0
10
157.8
20
116.75
0
VERTEX
8
L0D0_0
10
157.8
20
118
0
VERTEX
8
L0D0_0
10
163.8
20
118
0
VERTEX
8
L0D0_0
10
163.8
20
109.5
0
SEQEND
0
POLYLINE
8
L0D0_0
70
1
40
0
41
0
66
1
0
VERTEX
8
L0D0_0
10
172.2
20
109.5
0
VERTEX
8
L0D0_0
10
172.2
20
110.75
0
VERTEX
8
L0D0_0
10
173.1
20
110.75
0
VERTEX
8
L0D0_0
10
173.1
20
116.75
0
VERTEX
8
L0D0_0
10
172.2
20
116.75
0
VERTEX
8
L0D0_0
10
172.2
20
118
0
VERTEX
8
L0D0_0
10
177.2
20
118
0
VERTEX
8
L0D0_0
10
177.2
20
109.5
0
SEQEND
0
POLYLINE
8
L0D0_0
70
1
40
0
41
0
66
1
0
VERTEX
8
L0D0_0
10
185.6
20
109.5
0
VERTEX
8
L0D0_0
10
185.6
20
110.75
0
VERTEX
8
L0D0_0
10
186.5
20
110.75
0
VERTEX
8
L0D0_0
10
186.5
20
116.75
0
VERTEX
8
L0D0_0
10
185.6
20
116.75
0
VERTEX
8
L0D0_0
10
185.6
20
118
0
VERTEX
8
L0D0_0
10
189.6
20
118
0
VERTEX
8
L0D0_0
10
189.6
20
109.5
0
SEQEND
0
POLYLINE
8
L0D0_0
70
1
40
0
41
0
66
1
0
VERTEX
8
L0D0_0
10
198
20
109.5
0
VERTEX
8
L0D0_0
10
198
20
110.75
0
VERTEX
8
L0D0_0
10
198.9
20
110.75
0
VERTEX
8
L0D0_0
10
198.9
20
116.75
0
VERTEX
8
L0D0_0
10
198
20
116.75
0
VERTEX
8
L0D0_0
10
198
20
118
0
VERTEX
8
L0D0_0
10
201
20
118
0
VERTEX
8
L0D0_0
10
201
20
109.5
0
SEQEND
0
POLYLINE
8
L0D0_0
70
1
40
0
41
0
66
1
0
VERTEX
8
L0D0_0
10
142.4
20
124
0
VERTEX
8
L0D0_0
10
142.4
20
125.5
0
VERTEX
8
L0D0_0
10
143.25
20
125.5
0
VERTEX
8
L0D0_0
10
143.25
20
131.5
0
VERTEX
8
L0D0_0
10
142.4
20
131.5
0
VERTEX
8
L0D0_0
10
142.4
20
133
0
VERTEX
8
L0D0_0
10
149.4
20
133
0
VERTEX
8
L0D0_0
10
149.4
20
124
0
SEQEND
0
POLYLINE
8
L0D0_0
70
1
40
0
41
0
66
1
0
VERTEX
8
L0D0_0
10
157.8
20
124
0
VERTEX
8
L0D0_0
10
157.8
20
125.5
0
VERTEX
8
L0D0_0
10
158.65
20
125.5
0
VERTEX
8
L0D0_0
10
158.65
20
131.5
0
VERTEX
8
L0D0_0
10
157.8
20
131.5
0
VERTEX
8
L0D0_0
10
157.8
20
133
0
VERTEX
8
L0D0_0
10
163.8
20
133
0
VERTEX
8
L0D0_0
10
163.8
20
124
0
SEQEND
0
POLYLINE
8
L0D0_0
70
1
40
0
41
0
66
1
0
VERTEX
8
L0D0_0
10
172.2
20
124
0
VERTEX
8
L0D0_0
10
172.2
20
125.5
0
VERTEX
8
L0D0_0
10
173.05
20
125.5
0
VERTEX
8
L0D0_0
10
173.05
20
131.5
0
VERTEX
8
L0D0_0
10
172.2
20
131.5
0
VERTEX
8
L0D0_0
10
172.2
20
133
0
VERTEX
8
L0D0_0
10
177.2
20
133
0
VERTEX
8
L0D0_0
10
177.2
20
124
0
SEQEND
0
POLYLINE
8
L0D0_0
70
1
40
0
41
0
66
1
0
VERTEX
8
L0D0_0
10
185.6
20
124
0
VERTEX
8
L0D0_0
10
185.6
20
125.5
0
VERTEX
8
L0D0_0
10
186.45
20
125.5
0
VERTEX
8
L0D0_0
10
186.45
20
131.5
0
VERTEX
8
L0D0_0
10
185.6
20
131.5
0
VERTEX
8
L0D0_0
10
185.6
20
133
0
VERTEX
8
L0D0_0
10
189.6
20
133
0
VERTEX
8
L0D0_0
10
189.6
20
124
0
SEQEND
0
POLYLINE
8
L0D0_0
70
1
40
0
41
0
66
1
0
VERTEX
8
L0D0_0
10
198
20
124
0
VERTEX
8
L0D0_0
10
198
20
125.5
0
VERTEX
8
L0D0_0
10
198.85
20
125.5
0
VERTEX
8
L0D0_0
10
198.85
20
131.5
0
VERTEX
8
L0D0_0
10
198
20
131.5
0
VERTEX
8
L0D0_0
10
198
20
133
0
VERTEX
8
L0D0_0
10
201
20
133
0
VERTEX
8
L0D0_0
10
201
20
124
0
SEQEND
0
POLYLINE
8
L0D0_0
70
1
40
0
41
0
66
1
0
VERTEX
8
L0D0_0
10
172.2
20
35.5
0
VERTEX
8
L0D0_0
10
172.2
20
37.25
0
VERTEX
8
L0D0_0
10
173.2
20
37.25
0
VERTEX
8
L0D0_0
10
173.2
20
43.25
0
VERTEX
8
L0D0_0
10
172.2
20
43.25
0
VERTEX
8
L0D0_0
10
172.2
20
44.5
0
VERTEX
8
L0D0_0
10
177.2
20
44.5
0
VERTEX
8
L0D0_0
10
177.2
20
35.5
0
SEQEND
0
POLYLINE
8
L0D0_0
70
1
40
0
41
0
66
1
0
VERTEX
8
L0D0_0
10
185.6
20
35.5
0
VERTEX
8
L0D0_0
10
185.6
20
37.25
0
VERTEX
8
L0D0_0
10
186.6
20
37.25
0
VERTEX
8
L0D0_0
10
186.6
20
43.25
0
VERTEX
8
L0D0_0
10
185.6
20
43.25
0
VERTEX
8
L0D0_0
10
185.6
20
44.5
0
VERTEX
8
L0D0_0
10
189.6
20
44.5
0
VERTEX
8
L0D0_0
10
189.6
20
35.5
0
SEQEND
0
POLYLINE
8
L0D0_0
70
1
40
0
41
0
66
1
0
VERTEX
8
L0D0_0
10
105.2
20
124
0
VERTEX
8
L0D0_0
10
105.2
20
125.75
0
VERTEX
8
L0D0_0
10
106.05
20
125.75
0
VERTEX
8
L0D0_0
10
106.05
20
131.75
0
VERTEX
8
L0D0_0
10
105.2
20
131.75
0
VERTEX
8
L0D0_0
10
105.2
20
133.5
0
VERTEX
8
L0D0_0
10
110.2
20
133.5
0
VERTEX
8
L0D0_0
10
110.2
20
124
0
SEQEND
0
POLYLINE
8
L0D0_0
70
1
40
0
41
0
66
1
0
VERTEX
8
L0D0_0
10
118.6
20
124
0
VERTEX
8
L0D0_0
10
118.6
20
125.75
0
VERTEX
8
L0D0_0
10
119.45
20
125.75
0
VERTEX
8
L0D0_0
10
119.45
20
131.75
0
VERTEX
8
L0D0_0
10
118.6
20
131.75
0
VERTEX
8
L0D0_0
10
118.6
20
133.5
0
VERTEX
8
L0D0_0
10
122.6
20
133.5
0
VERTEX
8
L0D0_0
10
122.6
20
124
0
SEQEND
0
POLYLINE
8
L0D0_0
70
1
40
0
41
0
66
1
0
VERTEX
8
L0D0_0
10
131
20
124
0
VERTEX
8
L0D0_0
10
131
20
125.75
0
VERTEX
8
L0D0_0
10
131.85
20
125.75
0
VERTEX
8
L0D0_0
10
131.85
20
131.75
0
VERTEX
8
L0D0_0
10
131
20
131.75
0
VERTEX
8
L0D0_0
10
131
20
133.5
0
VERTEX
8
L0D0_0
10
134
20
133.5
0
VERTEX
8
L0D0_0
10
134
20
124
0
SEQEND
0
POLYLINE
8
L0D0_0
70
1
40
0
41
0
66
1
0
VERTEX
8
L0D0_0
10
198
20
35.5
0
VERTEX
8
L0D0_0
10
198
20
37.25
0
VERTEX
8
L0D0_0
10
199
20
37.25
0
VERTEX
8
L0D0_0
10
199
20
43.25
0
VERTEX
8
L0D0_0
10
198
20
43.25
0
VERTEX
8
L0D0_0
10
198
20
44.5
0
VERTEX
8
L0D0_0
10
201
20
44.5
0
VERTEX
8
L0D0_0
10
201
20
35.5
0
SEQEND
0
POLYLINE
8
L0D0_0
70
1
40
0
41
0
66
1
0
VERTEX
8
L0D0_0
10
142.4
20
35.5
0
VERTEX
8
L0D0_0
10
142.4
20
37.25
0
VERTEX
8
L0D0_0
10
143.4
20
37.25
0
VERTEX
8
L0D0_0
10
143.4
20
43.25
0
VERTEX
8
L0D0_0
10
142.4
20
43.25
0
VERTEX
8
L0D0_0
10
142.4
20
44.5
0
VERTEX
8
L0D0_0
10
149.4
20
44.5
0
VERTEX
8
L0D0_0
10
149.4
20
35.5
0
SEQEND
0
POLYLINE
8
L0D0_0
70
1
40
0
41
0
66
1
0
VERTEX
8
L0D0_0
10
105.2
20
51
0
VERTEX
8
L0D0_0
10
105.2
20
52
0
VERTEX
8
L0D0_0
10
106.2
20
52
0
VERTEX
8
L0D0_0
10
106.2
20
58
0
VERTEX
8
L0D0_0
10
105.2
20
58
0
VERTEX
8
L0D0_0
10
105.2
20
59
0
VERTEX
8
L0D0_0
10
110.2
20
59
0
VERTEX
8
L0D0_0
10
110.2
20
51
0
SEQEND
0
POLYLINE
8
L0D0_0
70
1
40
0
41
0
66
1
0
VERTEX
8
L0D0_0
10
118.6
20
51
0
VERTEX
8
L0D0_0
10
118.6
20
52
0
VERTEX
8
L0D0_0
10
119.6
20
52
0
VERTEX
8
L0D0_0
10
119.6
20
58
0
VERTEX
8
L0D0_0
10
118.6
20
58
0
VERTEX
8
L0D0_0
10
118.6
20
59
0
VERTEX
8
L0D0_0
10
122.6
20
59
0
VERTEX
8
L0D0_0
10
122.6
20
51
0
SEQEND
0
POLYLINE
8
L0D0_0
70
1
40
0
41
0
66
1
0
VERTEX
8
L0D0_0
10
131
20
51
0
VERTEX
8
L0D0_0
10
131
20
52
0
VERTEX
8
L0D0_0
10
132
20
52
0
VERTEX
8
L0D0_0
10
132
20
58
0
VERTEX
8
L0D0_0
10
131
20
58
0
VERTEX
8
L0D0_0
10
131
20
59
0
VERTEX
8
L0D0_0
10
134
20
59
0
VERTEX
8
L0D0_0
10
134
20
51
0
SEQEND
0
POLYLINE
8
L0D0_0
70
1
40
0
41
0
66
1
0
VERTEX
8
L0D0_0
10
142.4
20
50.5
0
VERTEX
8
L0D0_0
10
142.4
20
51.75
0
VERTEX
8
L0D0_0
10
143.4
20
51.75
0
VERTEX
8
L0D0_0
10
143.4
20
57.75
0
VERTEX
8
L0D0_0
10
142.4
20
57.75
0
VERTEX
8
L0D0_0
10
142.4
20
59
0
VERTEX
8
L0D0_0
10
149.4
20
59
0
VERTEX
8
L0D0_0
10
149.4
20
50.5
0
SEQEND
0
POLYLINE
8
L0D0_0
70
1
40
0
41
0
66
1
0
VERTEX
8
L0D0_0
10
157.8
20
50.5
0
VERTEX
8
L0D0_0
10
157.8
20
51.75
0
VERTEX
8
L0D0_0
10
158.8
20
51.75
0
VERTEX
8
L0D0_0
10
158.8
20
57.75
0
VERTEX
8
L0D0_0
10
157.8
20
57.75
0
VERTEX
8
L0D0_0
10
157.8
20
59
0
VERTEX
8
L0D0_0
10
163.8
20
59
0
VERTEX
8
L0D0_0
10
163.8
20
50.5
0
SEQEND
0
POLYLINE
8
L0D0_0
70
1
40
0
41
0
66
1
0
VERTEX
8
L0D0_0
10
172.2
20
50.5
0
VERTEX
8
L0D0_0
10
172.2
20
51.75
0
VERTEX
8
L0D0_0
10
173.2
20
51.75
0
VERTEX
8
L0D0_0
10
173.2
20
57.75
0
VERTEX
8
L0D0_0
10
172.2
20
57.75
0
VERTEX
8
L0D0_0
10
172.2
20
59
0
VERTEX
8
L0D0_0
10
177.2
20
59
0
VERTEX
8
L0D0_0
10
177.2
20
50.5
0
SEQEND
0
POLYLINE
8
L0D0_0
70
1
40
0
41
0
66
1
0
VERTEX
8
L0D0_0
10
105.2
20
80.5
0
VERTEX
8
L0D0_0
10
105.2
20
81.5
0
VERTEX
8
L0D0_0
10
106.15
20
81.5
0
VERTEX
8
L0D0_0
10
106.15
20
87.5
0
VERTEX
8
L0D0_0
10
105.2
20
87.5
0
VERTEX
8
L0D0_0
10
105.2
20
88.5
0
VERTEX
8
L0D0_0
10
110.2
20
88.5
0
VERTEX
8
L0D0_0
10
110.2
20
80.5
0
SEQEND
0
POLYLINE
8
L0D0_0
70
1
40
0
41
0
66
1
0
VERTEX
8
L0D0_0
10
118.6
20
80.5
0
VERTEX
8
L0D0_0
10
118.6
20
81.5
0
VERTEX
8
L0D0_0
10
119.55
20
81.5
0
VERTEX
8
L0D0_0
10
119.55
20
87.5
0
VERTEX
8
L0D0_0
10
118.6
20
87.5
0
VERTEX
8
L0D0_0
10
118.6
20
88.5
0
VERTEX
8
L0D0_0
10
122.6
20
88.5
0
VERTEX
8
L0D0_0
10
122.6
20
80.5
0
SEQEND
0
POLYLINE
8
L0D0_0
70
1
40
0
41
0
66
1
0
VERTEX
8
L0D0_0
10
131
20
80.5
0
VERTEX
8
L0D0_0
10
131
20
81.5
0
VERTEX
8
L0D0_0
10
131.95
20
81.5
0
VERTEX
8
L0D0_0
10
131.95
20
87.5
0
VERTEX
8
L0D0_0
10
131
20
87.5
0
VERTEX
8
L0D0_0
10
131
20
88.5
0
VERTEX
8
L0D0_0
10
134
20
88.5
0
VERTEX
8
L0D0_0
10
134
20
80.5
0
SEQEND
0
POLYLINE
8
L0D0_0
70
1
40
0
41
0
66
1
0
VERTEX
8
L0D0_0
10
142.4
20
80
0
VERTEX
8
L0D0_0
10
142.4
20
81.25
0
VERTEX
8
L0D0_0
10
143.35
20
81.25
0
VERTEX
8
L0D0_0
10
143.35
20
87.25
0
VERTEX
8
L0D0_0
10
142.4
20
87.25
0
VERTEX
8
L0D0_0
10
142.4
20
88.5
0
VERTEX
8
L0D0_0
10
149.4
20
88.5
0
VERTEX
8
L0D0_0
10
149.4
20
80
0
SEQEND
0
POLYLINE
8
L0D0_0
70
1
40
0
41
0
66
1
0
VERTEX
8
L0D0_0
10
105.2
20
139.5
0
VERTEX
8
L0D0_0
10
105.2
20
140.5
0
VERTEX
8
L0D0_0
10
106.05
20
140.5
0
VERTEX
8
L0D0_0
10
106.05
20
146.5
0
VERTEX
8
L0D0_0
10
105.2
20
146.5
0
VERTEX
8
L0D0_0
10
105.2
20
147.5
0
VERTEX
8
L0D0_0
10
110.2
20
147.5
0
VERTEX
8
L0D0_0
10
110.2
20
139.5
0
SEQEND
0
POLYLINE
8
L0D0_0
70
1
40
0
41
0
66
1
0
VERTEX
8
L0D0_0
10
118.6
20
139.5
0
VERTEX
8
L0D0_0
10
118.6
20
140.5
0
VERTEX
8
L0D0_0
10
119.45
20
140.5
0
VERTEX
8
L0D0_0
10
119.45
20
146.5
0
VERTEX
8
L0D0_0
10
118.6
20
146.5
0
VERTEX
8
L0D0_0
10
118.6
20
147.5
0
VERTEX
8
L0D0_0
10
122.6
20
147.5
0
VERTEX
8
L0D0_0
10
122.6
20
139.5
0
SEQEND
0
POLYLINE
8
L0D0_0
70
1
40
0
41
0
66
1
0
VERTEX
8
L0D0_0
10
131
20
139.5
0
VERTEX
8
L0D0_0
10
131
20
140.5
0
VERTEX
8
L0D0_0
10
131.85
20
140.5
0
VERTEX
8
L0D0_0
10
131.85
20
146.5
0
VERTEX
8
L0D0_0
10
131
20
146.5
0
VERTEX
8
L0D0_0
10
131
20
147.5
0
VERTEX
8
L0D0_0
10
134
20
147.5
0
VERTEX
8
L0D0_0
10
134
20
139.5
0
SEQEND
0
POLYLINE
8
L0D0_0
70
1
40
0
41
0
66
1
0
VERTEX
8
L0D0_0
10
142.4
20
139
0
VERTEX
8
L0D0_0
10
142.4
20
140.25
0
VERTEX
8
L0D0_0
10
143.25
20
140.25
0
VERTEX
8
L0D0_0
10
143.25
20
146.25
0
VERTEX
8
L0D0_0
10
142.4
20
146.25
0
VERTEX
8
L0D0_0
10
142.4
20
147.5
0
VERTEX
8
L0D0_0
10
149.4
20
147.5
0
VERTEX
8
L0D0_0
10
149.4
20
139
0
SEQEND
0
POLYLINE
8
L0D0_0
70
1
40
0
41
0
66
1
0
VERTEX
8
L0D0_0
10
157.8
20
139
0
VERTEX
8
L0D0_0
10
157.8
20
140.25
0
VERTEX
8
L0D0_0
10
158.65
20
140.25
0
VERTEX
8
L0D0_0
10
158.65
20
146.25
0
VERTEX
8
L0D0_0
10
157.8
20
146.25
0
VERTEX
8
L0D0_0
10
157.8
20
147.5
0
VERTEX
8
L0D0_0
10
163.8
20
147.5
0
VERTEX
8
L0D0_0
10
163.8
20
139
0
SEQEND
0
POLYLINE
8
L0D0_0
70
1
40
0
41
0
66
1
0
VERTEX
8
L0D0_0
10
172.2
20
139
0
VERTEX
8
L0D0_0
10
172.2
20
140.25
0
VERTEX
8
L0D0_0
10
173.05
20
140.25
0
VERTEX
8
L0D0_0
10
173.05
20
146.25
0
VERTEX
8
L0D0_0
10
172.2
20
146.25
0
VERTEX
8
L0D0_0
10
172.2
20
147.5
0
VERTEX
8
L0D0_0
10
177.2
20
147.5
0
VERTEX
8
L0D0_0
10
177.2
20
139
0
SEQEND
0
POLYLINE
8
L0D0_0
70
1
40
0
41
0
66
1
0
VERTEX
8
L0D0_0
10
185.6
20
139
0
VERTEX
8
L0D0_0
10
185.6
20
140.25
0
VERTEX
8
L0D0_0
10
186.45
20
140.25
0
VERTEX
8
L0D0_0
10
186.45
20
146.25
0
VERTEX
8
L0D0_0
10
185.6
20
146.25
0
VERTEX
8
L0D0_0
10
185.6
20
147.5
0
VERTEX
8
L0D0_0
10
189.6
20
147.5
0
VERTEX
8
L0D0_0
10
189.6
20
139
0
SEQEND
0
POLYLINE
8
L0D0_0
70
1
40
0
41
0
66
1
0
VERTEX
8
L0D0_0
10
198
20
139
0
VERTEX
8
L0D0_0
10
198
20
140.25
0
VERTEX
8
L0D0_0
10
198.85
20
140.25
0
VERTEX
8
L0D0_0
10
198.85
20
146.25
0
VERTEX
8
L0D0_0
10
198
20
146.25
0
VERTEX
8
L0D0_0
10
198
20
147.5
0
VERTEX
8
L0D0_0
10
201
20
147.5
0
VERTEX
8
L0D0_0
10
201
20
139
0
SEQEND
0
POLYLINE
8
L0D0_0
70
1
40
0
41
0
66
1
0
VERTEX
8
L0D0_0
10
142.4
20
153.5
0
VERTEX
8
L0D0_0
10
142.4
20
155
0
VERTEX
8
L0D0_0
10
143.2
20
155
0
VERTEX
8
L0D0_0
10
143.2
20
161
0
VERTEX
8
L0D0_0
10
142.4
20
161
0
VERTEX
8
L0D0_0
10
142.4
20
162.5
0
VERTEX
8
L0D0_0
10
149.4
20
162.5
0
VERTEX
8
L0D0_0
10
149.4
20
153.5
0
SEQEND
0
POLYLINE
8
L0D0_0
70
1
40
0
41
0
66
1
0
VERTEX
8
L0D0_0
10
157.8
20
153.5
0
VERTEX
8
L0D0_0
10
157.8
20
155
0
VERTEX
8
L0D0_0
10
158.6
20
155
0
VERTEX
8
L0D0_0
10
158.6
20
161
0
VERTEX
8
L0D0_0
10
157.8
20
161
0
VERTEX
8
L0D0_0
10
157.8
20
162.5
0
VERTEX
8
L0D0_0
10
163.8
20
162.5
0
VERTEX
8
L0D0_0
10
163.8
20
153.5
0
SEQEND
0
POLYLINE
8
L0D0_0
70
1
40
0
41
0
66
1
0
VERTEX
8
L0D0_0
10
172.2
20
153.5
0
VERTEX
8
L0D0_0
10
172.2
20
155
0
VERTEX
8
L0D0_0
10
173
20
155
0
VERTEX
8
L0D0_0
10
173
20
161
0
VERTEX
8
L0D0_0
10
172.2
20
161
0
VERTEX
8
L0D0_0
10
172.2
20
162.5
0
VERTEX
8
L0D0_0
10
177.2
20
162.5
0
VERTEX
8
L0D0_0
10
177.2
20
153.5
0
SEQEND
0
POLYLINE
8
L0D0_0
70
1
40
0
41
0
66
1
0
VERTEX
8
L0D0_0
10
185.6
20
153.5
0
VERTEX
8
L0D0_0
10
185.6
20
155
0
VERTEX
8
L0D0_0
10
186.4
20
155
0
VERTEX
8
L0D0_0
10
186.4
20
161
0
VERTEX
8
L0D0_0
10
185.6
20
161
0
VERTEX
8
L0D0_0
10
185.6
20
162.5
0
VERTEX
8
L0D0_0
10
189.6
20
162.5
0
VERTEX
8
L0D0_0
10
189.6
20
153.5
0
SEQEND
0
POLYLINE
8
L0D0_0
70
1
40
0
41
0
66
1
0
VERTEX
8
L0D0_0
10
198
20
153.5
0
VERTEX
8
L0D0_0
10
198
20
155
0
VERTEX
8
L0D0_0
10
198.8
20
155
0
VERTEX
8
L0D0_0
10
198.8
20
161
0
VERTEX
8
L0D0_0
10
198
20
161
0
VERTEX
8
L0D0_0
10
198
20
162.5
0
VERTEX
8
L0D0_0
10
201
20
162.5
0
VERTEX
8
L0D0_0
10
201
20
153.5
0
SEQEND
0
POLYLINE
8
L0D0_0
70
1
40
0
41
0
66
1
0
VERTEX
8
L0D0_0
10
157.8
20
80
0
VERTEX
8
L0D0_0
10
157.8
20
81.25
0
VERTEX
8
L0D0_0
10
158.75
20
81.25
0
VERTEX
8
L0D0_0
10
158.75
20
87.25
0
VERTEX
8
L0D0_0
10
157.8
20
87.25
0
VERTEX
8
L0D0_0
10
157.8
20
88.5
0
VERTEX
8
L0D0_0
10
163.8
20
88.5
0
VERTEX
8
L0D0_0
10
163.8
20
80
0
SEQEND
0
POLYLINE
8
L0D0_0
70
1
40
0
41
0
66
1
0
VERTEX
8
L0D0_0
10
172.2
20
80
0
VERTEX
8
L0D0_0
10
172.2
20
81.25
0
VERTEX
8
L0D0_0
10
173.15
20
81.25
0
VERTEX
8
L0D0_0
10
173.15
20
87.25
0
VERTEX
8
L0D0_0
10
172.2
20
87.25
0
VERTEX
8
L0D0_0
10
172.2
20
88.5
0
VERTEX
8
L0D0_0
10
177.2
20
88.5
0
VERTEX
8
L0D0_0
10
177.2
20
80
0
SEQEND
0
ENDSEC
0
EOF
